#N canvas 0 0 1440 872 12;
#X obj 1282 107 metronomos;
#X obj 1336 77 tgl 19 0 gtc empty empty 0 -10 0 12 #fcfcfc #000000 #000000 0 1;
#X floatatom 1286 72 5 0 0 0 - - bpm 0;
#X obj 40 60 cnv 19 310 280 empty empty Bass 20 12 0 12 #c6feff #404040 0;
#X obj 68 215 z_bass;
#X obj 65 168 tgl 19 0 gate1 empty * 0 -10 0 12 #fcfcfc #000000 #000000 0 1;
#X obj 104 168 tgl 19 0 gate2 empty empty 0 -10 0 12 #fcfcfc #000000 #000000 0 1;
#X obj 142 168 tgl 19 0 gate3 empty empty 0 -10 0 12 #fcfcfc #000000 #000000 0 1;
#X obj 179 168 tgl 19 0 gate4 empty * 0 -10 0 12 #fcfcfc #000000 #000000 0 1;
#X obj 216 168 tgl 19 0 gate5 empty empty 0 -10 0 12 #fcfcfc #000000 #000000 0 1;
#X obj 252 168 tgl 19 0 gate6 empty empty 0 -10 0 12 #fcfcfc #000000 #000000 0 1;
#X obj 68 273 vca;
#X obj 283 287 s blop;
#X obj 224 287 s bhip;
#X text 238 229 Filters;
#X obj 133 118 s bdec;
#X obj 64 118 s battck;
#X obj 120 269 hsl 62 19 0 0.7 0 0 empty empty Amp -2 -10 0 12 #00faff #000000 #000000 0 1;
#X text 288 169 Gater;
#X obj 268 117 s bnote;
#X text 187 118 Env;
#X msg 64 94 0;
#X obj 1134 375 adc~;
#X obj 1238 532 vu 15 160 empty empty -1 -8 0 12 #404040 #000000 1 0;
#N canvas 329 161 625 417 vu 0;
#X obj 59 129 env~ 1024;
#X obj 161 111 abs~;
#X obj 161 213 snapshot~;
#X obj 161 256 rmstodb;
#X obj 161 21 inlet~;
#X obj 161 288 - 100;
#X obj 59 287 - 100;
#X obj 59 361 outlet;
#X obj 161 361 outlet;
#X text 344 307 Check the help file of env~ and slop~ for more details., f 31;
#X obj 239 89 expr 1000 / $f1;
#X floatatom 239 117 5 0 0 0 - - - 0;
#X obj 161 146 slop~ 0 0 0 0 1e+09;
#X obj 239 18 inlet;
#X floatatom 239 57 5 0 0 0 - - - 0;
#X text 359 89 convert to hz;
#X text 282 118 hz;
#X text 284 57 peak decay time in ms;
#X obj 59 171 t f b;
#X text 345 132 The env~ object is dedicated to RMS analysis. Its output is in dB (0-100 range \, pd style) but needs to be converted to dBFS (and we do that by simply subtracting 100)., f 31;
#X text 345 225 The slop~ object is used here for peak detection. We need to convert the output to dB with rmstodb and also subtract by 100 to convert it to dBFS., f 31;
#X connect 0 0 18 0;
#X connect 1 0 12 0;
#X connect 2 0 3 0;
#X connect 3 0 5 0;
#X connect 4 0 0 0;
#X connect 4 0 1 0;
#X connect 5 0 8 0;
#X connect 6 0 7 0;
#X connect 10 0 11 0;
#X connect 11 0 12 3;
#X connect 12 0 2 0;
#X connect 13 0 14 0;
#X connect 14 0 10 0;
#X connect 18 0 6 0;
#X connect 18 1 2 0;
#X restore 1215 489 pd vu;
#X floatatom 1269 484 5 0 0 0 - - - 0;
#X obj 1134 433 *~;
#X obj 1134 399 *~ 0.1;
#X obj 1134 457 lop~ 1600;
#X obj 1134 481 hip~ 200;
#X obj 1180 425 hsl 162 19 0 0.5 0 0 empty empty empty -2 -10 0 12 #fcfcfc #000000 #000000 0 1;
#X obj 1226 183 modulos;
#X obj 561 695 r~ sampler;
#X obj 550 723 dac~;
#X obj 1134 532 s~ entrada;
#X obj 560 765 r~ entrada;
#X obj 620 654 r~ kick;
#X obj 68 297 s~ bass;
#X obj 563 654 r~ bass;
#X obj 45 353 cnv 19 310 280 empty empty Kick 20 12 0 12 #00faff #404040 0;
#X obj 72 491 z_kick;
#X obj 72 515 vca;
#X obj 72 539 s~ kick;
#X obj 72 447 r kick_bang;
#N canvas 0 0 1440 872 _kick 0;
#X obj 757 57 cnv 19 336 476 empty empty Auto 20 12 0 12 #e0e0e0 #404040 0;
#X obj 909 264 bng 19 250 50 0 empty m1 empty 0 -10 0 12 #fcfcfc #000000 #000000;
#X obj 920 294 spigot;
#X msg 946 262 0;
#X msg 995 264 1;
#X obj 903 365 bng 19 250 50 0 empty m6 empty 0 -10 0 12 #fcfcfc #000000 #000000;
#X obj 914 395 spigot;
#X msg 940 363 0;
#X msg 988 365 1;
#X obj 913 441 bng 19 250 50 0 empty m7 empty 0 -10 0 12 #fcfcfc #000000 #000000;
#X obj 896 481 spigot;
#X msg 950 439 0;
#X msg 1038 441 1, f 7;
#X obj 961 326 sel 1;
#X obj 978 408 sel 2;
#X obj 1000 111 bng 19 250 50 0 empty m3 empty 0 -10 0 12 #c6feff #000000 #000000;
#X obj 1000 135 random 14;
#X obj 949 193 sel 1 2;
#X obj 783 186 s kick_bang;
#X obj 1006 501 s klop;
#X msg 1065 489 700;
#X text 278 102 Presets;
#X msg 521 236 \; kd 111 \; kp 300 \; ks 10 \; ksine 19 \; ksat 1.2 \; klop 650 \; khip 10 \;;
#X msg 62 233 \; kd 131 \; kp 310 \; ks 3 \; ksine 21 \; ksat 1.2 \; klop 700 \; khip 60 \;;
#X msg 244 240 \; kd 191 \; kp 200 \; ks 30 \; ksine 37 \; ksat 1 \; klop 650 \; khip 10 \;;
#X msg 1005 473 100;
#X msg 66 387 \; kd 101 \; kp 308 \; ks 9 \; ksine 21 \; ksat 1 \; klop 1000 \; khip 40 \;;
#X connect 1 0 2 0;
#X connect 2 0 18 0;
#X connect 2 0 20 0;
#X connect 3 0 2 1;
#X connect 4 0 2 1;
#X connect 5 0 6 0;
#X connect 6 0 18 0;
#X connect 6 0 25 0;
#X connect 7 0 6 1;
#X connect 8 0 6 1;
#X connect 9 0 10 0;
#X connect 10 0 18 0;
#X connect 10 0 25 0;
#X connect 11 0 10 1;
#X connect 12 0 10 1;
#X connect 13 0 8 0;
#X connect 13 1 7 0;
#X connect 14 0 12 0;
#X connect 14 1 11 0;
#X connect 15 0 16 0;
#X connect 16 0 17 0;
#X connect 16 0 13 0;
#X connect 16 0 14 0;
#X connect 17 0 3 0;
#X connect 17 1 3 0;
#X connect 17 2 4 0;
#X connect 20 0 19 0;
#X connect 25 0 19 0;
#X restore 1226 149 pd _kick;
#N canvas 0 0 1440 872 _bass 0;
#X obj 625 207 bng 19 250 50 0 empty m2 empty 0 -10 0 12 #fcfcfc #000000 #000000;
#X obj 164 434 s bnote;
#X obj 264 438 s bnote;
#X obj 372 437 s bnote;
#X floatatom 312 275 5 0 0 0 - - - 0;
#X obj 168 282 tgl 19 0 empty empty empty 0 -10 0 12 #fcfcfc #000000 #000000 0 1;
#X obj 168 306 sel 0;
#X obj 371 309 sel 1;
#X obj 257 313 sel 1;
#X obj 256 284 tgl 19 0 empty empty empty 0 -10 0 12 #fcfcfc #000000 #000000 0 1;
#X obj 370 282 tgl 19 0 empty empty empty 0 -10 0 12 #fcfcfc #000000 #000000 0 1;
#X obj 627 96 tgl 34 0 empty empty MOD 0 -10 0 12 #c7c6ff #000000 #000000 0 1;
#X obj 627 135 sel 0 1;
#X msg 626 179 1;
#X msg 669 186 0;
#X obj 686 234 spigot;
#X obj 748 262 s bnote;
#X obj 168 259 > 3 && < 7;
#X obj 1043 58 bng 19 250 50 0 empty m3 empty 0 -10 0 12 #c6ffc7 #000000 #000000;
#X obj 1042 82 random 27;
#X obj 1043 130 tgl 19 0 empty empty empty 0 -10 0 12 #fcfcfc #000000 #000000 0 1;
#X obj 256 261 < 7;
#X obj 370 258 > 3;
#X obj 246 223 random 11;
#X obj 1042 106 > 22;
#X msg 372 407 25;
#X msg 164 410 26;
#X msg 266 410 26;
#X msg 748 238 25;
#X text 1166 85 Probabilidad;
#X connect 0 0 15 0;
#X connect 5 0 6 0;
#X connect 6 0 26 0;
#X connect 7 0 25 0;
#X connect 8 0 27 0;
#X connect 11 0 12 0;
#X connect 12 0 13 0;
#X connect 12 1 14 0;
#X connect 13 0 15 1;
#X connect 14 0 15 1;
#X connect 14 0 28 0;
#X connect 15 0 23 0;
#X connect 17 0 5 0;
#X connect 18 0 19 0;
#X connect 19 0 24 0;
#X connect 20 0 11 0;
#X connect 21 0 8 0;
#X connect 21 0 9 0;
#X connect 22 0 7 0;
#X connect 22 0 10 0;
#X connect 23 0 4 0;
#X connect 23 0 17 0;
#X connect 23 0 21 0;
#X connect 23 0 22 0;
#X connect 24 0 20 0;
#X connect 25 0 3 0;
#X connect 26 0 1 0;
#X connect 27 0 2 0;
#X connect 28 0 16 0;
#X restore 1145 145 pd _bass;
#X msg 223 263 20;
#X obj 736 59 cnv 19 340 650 empty empty HATS 20 12 0 12 #c7c6ff #404040 0;
#X obj 761 166 bng 30 250 50 0 empty hbang1 empty 0 -10 0 12 #c6feff #000000 #000000;
#X obj 818 124 vsl 25 80 0 127 0 0 empty empty A 0 -9 0 12 #c6feff #000000 #000000 0 1;
#X obj 856 123 vsl 25 80 0 500 0 0 empty empty R 0 -9 0 12 #c6feff #000000 #000000 0 1;
#X obj 893 140 hsl 100 19 0 10000 0 0 empty empty Low-pass -2 -10 0 12 #c6feff #000000 #000000 0 1;
#X obj 938 179 hsl 100 19 100 10000 0 0 empty empty Hi-pass -2 -10 0 12 #c6feff #000000 #000000 0 1;
#X obj 756 207 hat, f 26;
#X obj 783 349 bng 30 250 50 0 empty hbang2 empty 0 -10 0 12 #c6feff #000000 #000000;
#X obj 839 327 vsl 25 80 0 127 0 0 empty empty A 0 -9 0 12 #c6feff #000000 #000000 0 1;
#X obj 877 326 vsl 25 80 0 500 0 0 empty empty R 0 -9 0 12 #c6feff #000000 #000000 0 1;
#X obj 914 343 hsl 100 19 0 10000 0 0 empty empty Low-pass -2 -10 0 12 #c6feff #000000 #000000 0 1;
#X obj 959 382 hsl 100 19 100 10000 0 0 empty empty Hi-pass -2 -10 0 12 #c6feff #000000 #000000 0 1;
#X obj 777 410 hat, f 26;
#X obj 782 557 bng 30 250 50 0 empty hbang3 empty 0 -10 0 12 #c6feff #000000 #000000;
#X obj 837 512 vsl 25 80 0 127 0 0 empty empty A 0 -9 0 12 #c6feff #000000 #000000 0 1;
#X obj 875 511 vsl 25 80 0 500 0 0 empty empty R 0 -9 0 12 #c6feff #000000 #000000 0 1;
#X obj 912 528 hsl 100 19 0 10000 0 0 empty empty Low-pass -2 -10 0 12 #c6feff #000000 #000000 0 1;
#X obj 957 567 hsl 100 19 100 10000 0 0 empty empty Hi-pass -2 -10 0 12 #c6feff #000000 #000000 0 1;
#X obj 775 595 hat, f 26;
#X obj 755 668 s~ hats;
#X obj 757 258 vca;
#X obj 809 254 hsl 162 19 0 0.1 0 0 empty empty empty -2 -10 0 12 #fcfcfc #000000 #000000 0 1;
#X obj 778 443 vca;
#X obj 818 448 hsl 162 19 0 0.4 0 0 empty empty empty -2 -10 0 12 #fcfcfc #000000 #000000 0 1;
#X obj 775 631 vca;
#X obj 822 629 hsl 162 19 0 0.1 0 0 empty empty empty -2 -10 0 12 #fcfcfc #000000 #000000 0 1;
#X obj 505 654 r~ hats;
#X obj 1216 115 s bpm;
#X msg 283 263 130;
#X msg 112 514 0.5;
#X obj 397 58 cnv 19 286 426 empty empty empty 20 12 0 12 #e0e0e0 #404040 0;
#X obj 599 300 vu 19 160 empty empty -1 -10 0 12 #404040 #000000 1 0;
#N canvas 0 0 1440 872 sampler 0;
#X obj 311 330 soundfiler;
#X floatatom 311 354 5 0 0 0 - - - 0;
#X obj 311 278 openpanel;
#X obj 311 249 bng 19 250 50 0 empty sampler_panel1 Open 0 -10 0 12 #fcfcfc #000000 #000000;
#X msg 311 305 read -resize \$1 sample1;
#X obj 274 152 inlet;
#X obj 721 355 outlet~;
#X obj 716 274 bng 19 250 50 0 empty sampler_bang1 empty 0 -10 0 12 #fcfcfc #000000 #000000;
#X obj 716 326 *~;
#X obj 750 276 r sampler_vol1;
#X obj 716 302 tabplay~ sample1;
#X obj 599 125 inlet;
#X connect 0 0 1 0;
#X connect 2 0 4 0;
#X connect 3 0 2 0;
#X connect 4 0 0 0;
#X connect 5 0 3 0;
#X connect 7 0 10 0;
#X connect 8 0 6 0;
#X connect 9 0 8 1;
#X connect 10 0 8 0;
#X connect 11 0 7 0;
#X restore 440 223 pd sampler;
#N canvas 0 50 450 250 (subpatch) 0;
#X array sample1 1.30161e+07 float 0;
#X coords 0 1 1.30161e+07 -1 140 90 1 0 0;
#X restore 422 375 graph;
#X obj 440 170 bng 19 250 50 0 empty empty Load 0 -10 0 12 #c6feff #000000 #000000;
#X obj 507 169 bng 19 250 50 0 empty empty PLay 0 -10 0 12 #c6ffc7 #000000 #000000;
#X obj 440 247 vca;
#X obj 559 80 vsl 19 162 0 1 0 0 empty empty empty 0 -9 0 12 #fcfcfc #000000 #000000 0 1;
#N canvas 329 161 625 417 vu 0;
#X obj 59 129 env~ 1024;
#X obj 161 111 abs~;
#X obj 161 213 snapshot~;
#X obj 161 256 rmstodb;
#X obj 161 21 inlet~;
#X obj 161 288 - 100;
#X obj 59 287 - 100;
#X obj 59 361 outlet;
#X obj 161 361 outlet;
#X text 344 307 Check the help file of env~ and slop~ for more details., f 31;
#X obj 239 89 expr 1000 / $f1;
#X floatatom 239 117 5 0 0 0 - - - 0;
#X obj 161 146 slop~ 0 0 0 0 1e+09;
#X obj 239 18 inlet;
#X floatatom 239 57 5 0 0 0 - - - 0;
#X text 359 89 convert to hz;
#X text 282 118 hz;
#X text 284 57 peak decay time in ms;
#X obj 59 171 t f b;
#X text 345 132 The env~ object is dedicated to RMS analysis. Its output is in dB (0-100 range \, pd style) but needs to be converted to dBFS (and we do that by simply subtracting 100)., f 31;
#X text 345 225 The slop~ object is used here for peak detection. We need to convert the output to dB with rmstodb and also subtract by 100 to convert it to dBFS., f 31;
#X connect 0 0 18 0;
#X connect 1 0 12 0;
#X connect 2 0 3 0;
#X connect 3 0 5 0;
#X connect 4 0 0 0;
#X connect 4 0 1 0;
#X connect 5 0 8 0;
#X connect 6 0 7 0;
#X connect 10 0 11 0;
#X connect 11 0 12 3;
#X connect 12 0 2 0;
#X connect 13 0 14 0;
#X connect 14 0 10 0;
#X connect 18 0 6 0;
#X connect 18 1 2 0;
#X restore 587 267 pd vu;
#X floatatom 620 240 5 0 0 0 - - - 0;
#X obj 440 293 s~ sampler;
#X msg 213 402 \; kd 101 \; kp 345 \; ks 3 \; ksine 19 \; ksat 1.2 \; klop 650 \; khip 10 \;;
#X msg 133 89 118;
#X msg 1216 91 230;
#N canvas 0 0 1440 872 _hats 0;
#X obj 805 111 r m5;
#X obj 881 245 bng 19 250 50 0 empty empty empty 0 -10 0 12 #fcfcfc #000000 #000000;
#X msg 733 294 1;
#X msg 784 291 1;
#X obj 526 282 spigot;
#X obj 338 209 bng 30 250 50 0 empty m2 empty 0 -10 0 12 #c6feff #000000 #000000;
#X obj 330 338 bng 30 250 50 0 empty m6 empty 0 -10 0 12 #c6feff #000000 #000000;
#X obj 333 449 bng 30 250 50 0 empty m7 empty 0 -10 0 12 #c6feff #000000 #000000;
#X msg 884 279 1;
#X msg 623 239 0;
#X obj 805 135 bng 19 250 50 0 empty empty empty 0 -10 0 12 #fcfcfc #000000 #000000;
#X obj 805 159 random 10;
#X obj 525 420 spigot;
#X obj 562 519 spigot;
#X msg 783 453 0;
#X obj 523 454 s hbang2;
#X obj 562 543 s hbang3;
#X floatatom 1067 194 5 0 0 0 - - - 0;
#X obj 624 202 bng 19 250 50 0 empty empty empty 0 -10 0 12 #fcfcfc #000000 #000000;
#X obj 772 223 bng 19 250 50 0 empty empty empty 0 -10 0 12 #fcfcfc #000000 #000000;
#X obj 526 306 s hbang1;
#X obj 804 191 sel 0 1 2 3 4;
#X connect 0 0 10 0;
#X connect 1 0 8 0;
#X connect 1 0 14 0;
#X connect 2 0 12 1;
#X connect 3 0 13 1;
#X connect 4 0 20 0;
#X connect 5 0 4 0;
#X connect 6 0 12 0;
#X connect 7 0 13 0;
#X connect 8 0 4 1;
#X connect 9 0 4 1;
#X connect 10 0 11 0;
#X connect 11 0 17 0;
#X connect 11 0 21 0;
#X connect 12 0 15 0;
#X connect 13 0 16 0;
#X connect 14 0 13 1;
#X connect 14 0 12 1;
#X connect 18 0 9 0;
#X connect 19 0 2 0;
#X connect 19 0 9 0;
#X connect 21 0 18 0;
#X connect 21 1 19 0;
#X connect 21 2 3 0;
#X connect 21 3 3 0;
#X connect 21 3 18 0;
#X connect 21 4 2 0;
#X connect 21 5 1 0;
#X restore 1147 183 pd _hats;
#X text 1153 25 Zealott Live Patching 2026;
#X connect 4 0 11 0;
#X connect 11 0 37 0;
#X connect 17 0 11 1;
#X connect 21 0 16 0;
#X connect 22 0 27 0;
#X connect 24 0 23 0;
#X connect 24 1 23 1;
#X connect 25 0 24 1;
#X connect 26 0 28 0;
#X connect 27 0 26 0;
#X connect 28 0 29 0;
#X connect 29 0 24 0;
#X connect 29 0 34 0;
#X connect 30 0 26 1;
#X connect 32 0 33 0;
#X connect 32 0 33 1;
#X connect 35 0 33 0;
#X connect 35 0 33 1;
#X connect 36 0 33 0;
#X connect 36 0 33 1;
#X connect 38 0 33 0;
#X connect 38 0 33 1;
#X connect 40 0 41 0;
#X connect 41 0 42 0;
#X connect 43 0 40 0;
#X connect 46 0 13 0;
#X connect 48 0 53 0;
#X connect 49 0 53 1;
#X connect 50 0 53 2;
#X connect 51 0 53 3;
#X connect 52 0 53 4;
#X connect 53 0 67 0;
#X connect 54 0 59 0;
#X connect 55 0 59 1;
#X connect 56 0 59 2;
#X connect 57 0 59 3;
#X connect 58 0 59 4;
#X connect 59 0 69 0;
#X connect 60 0 65 0;
#X connect 61 0 65 1;
#X connect 62 0 65 2;
#X connect 63 0 65 3;
#X connect 64 0 65 4;
#X connect 65 0 71 0;
#X connect 67 0 66 0;
#X connect 68 0 67 1;
#X connect 69 0 66 0;
#X connect 70 0 69 1;
#X connect 71 0 66 0;
#X connect 72 0 71 1;
#X connect 73 0 33 0;
#X connect 73 0 33 1;
#X connect 75 0 12 0;
#X connect 76 0 41 1;
#X connect 79 0 83 0;
#X connect 81 0 79 0;
#X connect 82 0 79 1;
#X connect 83 0 85 0;
#X connect 83 0 87 0;
#X connect 84 0 83 1;
#X connect 85 0 78 0;
#X connect 85 1 78 1;
#X connect 86 0 85 1;
#X connect 89 0 15 0;
#X connect 90 0 74 0;
