#N canvas 0 28 1440 900 12;
#X obj 50 30 cnv 19 340 220 empty empty Kick 20 12 0 12 #c6feff #404040 0;
#X obj 82 66 bng 19 250 50 0 kbang empty empty 0 -10 0 12 #fcfcfc #000000 #000000;
#X obj 82 190 vca;
#X obj 82 214 dac~;
#X obj 420 29 cnv 19 310 280 empty empty Bass 20 12 0 12 #c6feff #404040 0;
#X obj 448 184 z_bass;
#X obj 445 137 tgl 19 0 gate1 empty * 0 -10 0 12 #fcfcfc #000000 #000000 0 1;
#X obj 484 137 tgl 19 0 gate2 empty empty 0 -10 0 12 #fcfcfc #000000 #000000 0 1;
#X obj 522 137 tgl 19 0 gate3 empty empty 0 -10 0 12 #fcfcfc #000000 #000000 0 1;
#X obj 559 137 tgl 19 0 gate4 empty * 0 -10 0 12 #fcfcfc #000000 #000000 0 1;
#X obj 596 137 tgl 19 0 gate5 empty empty 0 -10 0 12 #fcfcfc #000000 #000000 0 1;
#X obj 632 137 tgl 19 0 gate6 empty empty 0 -10 0 12 #fcfcfc #000000 #000000 0 1;
#X obj 448 242 vca;
#X obj 663 256 s blop;
#X obj 604 256 s bhip;
#X obj 448 269 dac~;
#X obj 976 168 s bpm;
#X text 618 198 Filters;
#X obj 742 30 cnv 19 150 330 empty empty Z_HAT_1 20 12 0 12 #c7c6ff #404040 0;
#X obj 513 88 s bdec;
#X obj 48 336 cnv 19 550 750 empty empty __AM_ATMOSPHERE_1__ 20 12 0 12 #feffc6 #404040 0;
#X obj 173 911 vca;
#X obj 208 1052 dac~;
#X obj 183 538 saturador;
#X obj 182 626 bob~;
#X obj 235 764 reverb, f 37;
#X obj 171 877 ar_env, f 20;
#X obj 382 551 bng 19 250 50 0 empty m5 empty 0 -10 0 12 #fcfcfc #000000 #000000;
#X text 500 578 random cutoff;
#X obj 320 705 vsl 19 45 0 1 0 0 empty empty room 0 -9 0 12 #c6feff #000000 #000000 0 1;
#X obj 405 702 vsl 19 45 0 1 0 0 empty empty wet 0 -9 0 12 #c6feff #000000 #000000 0 1;
#X obj 491 705 vsl 19 45 0 1 0 0 empty empty dry 0 -9 0 12 #c6feff #000000 #000000 0 1;
#X obj 171 1027 ping_pong_delay;
#X obj 382 578 random 4555;
#X obj 382 606 clip 1250 5000;
#X obj 182 679 lop~ 900;
#X text 412 951 Delay: time wet feedback;
#X obj 444 88 s battck;
#X obj 585 976 sampler, f 45;
#X obj 577 1086 dac~;
#X obj 585 1024 hip~ 2400;
#X obj 585 1048 lop~ 900;
#X obj 500 238 hsl 62 19 0 1 0 0 empty empty Amp -2 -10 0 12 #00faff #000000 #000000 0 1;
#X obj 1193 66 cnv 19 150 210 empty empty Core 20 12 0 12 #bbbbbb #404040 0;
#N canvas 0 0 1440 872 automations 0;
#X obj 69 127 cnv 19 300 400 empty empty bass_automation 20 12 0 12 #c6feff #404040 0;
#X obj 182 497 s bnote;
#X obj 109 254 bng 19 250 50 0 empty m4 empty 0 -10 0 12 #fcfcfc #000000 #000000;
#X obj 146 273 spigot;
#X obj 354 187 tgl 19 0 empty empty empty 0 -10 0 12 #fcfcfc #000000 #000000 0 1;
#X obj 146 323 random 25;
#X obj 289 157 sel 7;
#X floatatom 352 153 5 0 0 0 - - - 0;
#X msg 289 181 1;
#X obj 289 133 r m4;
#X text 382 429 Enviar notas al bassline;
#X obj 630 116 cnv 19 300 400 empty empty kick_automation 20 12 0 12 #c6feff #404040 0;
#X obj 653 182 random 40;
#X msg 779 263 0;
#X obj 652 226 sel 1 2 3 4 5 6;
#X msg 652 262 1;
#X msg 711 262 2;
#X obj 653 149 bng 19 250 50 0 empty m2 empty 0 -10 0 12 #fcfcfc #000000 #000000;
#X obj 965 207 random 300;
#X obj 1048 207 random 500;
#X obj 1130 206 random 100;
#X obj 1209 207 random 100;
#X obj 964 167 bng 22 250 50 0 empty krand_timbre random 0 -10 0 12 #c6feff #000000 #000000;
#X obj 965 231 s kd;
#X obj 1048 231 s kp;
#X obj 1130 230 s ks;
#X obj 1209 231 s ksine;
#X obj 666 438 bng 19 250 50 0 empty m1 empty 0 -10 0 12 #fcfcfc #000000 #000000;
#X obj 817 444 bng 19 250 50 0 empty m6 empty 0 -10 0 12 #fcfcfc #000000 #000000;
#X obj 962 447 bng 19 250 50 0 empty m7 empty 0 -10 0 12 #fcfcfc #000000 #000000;
#X obj 666 464 spigot;
#X obj 817 468 spigot;
#X obj 962 471 spigot;
#X obj 666 491 s kbang;
#X msg 716 559 1;
#X obj 962 495 s kbang;
#X obj 817 492 s kbang;
#X text 1278 596 Tempo Kick Automation;
#X text 1072 642 Automatización de cambios de tempo clock retorna valores que puede tomar vca para cuidar del solapamiento de kicks cuando el tempo es x2 y x4 Params: kselector Retorna: 1 \, 0.6;
#X obj 692 310 == 0;
#X obj 692 334 tgl 19 0 empty empty empty 0 -10 0 12 #fcfcfc #000000 #000000 0 1;
#X obj 738 334 tgl 19 0 empty empty empty 0 -10 0 12 #fcfcfc #000000 #000000 0 1;
#X obj 738 310 == 1;
#X obj 787 336 tgl 19 0 empty empty empty 0 -10 0 12 #fcfcfc #000000 #000000 0 1;
#X obj 788 312 == 2;
#X obj 284 474 bng 19 250 50 0 empty empty empty 0 -10 0 12 #fcfcfc #000000 #000000;
#X msg 284 498 0;
#X obj 284 533 s hat_vol;
#X text 378 537 Mutear hat en nota 17 (darker);
#X obj 104 480 bng 19 250 50 0 empty empty empty 0 -10 0 12 #fcfcfc #000000 #000000;
#X msg 104 504 1;
#X obj 104 528 s hat_vol;
#X msg 757 560 0.3;
#X obj 716 583 s kvol;
#X text 783 585 Manejo del volumen del kick para evitar saturación;
#X text 749 183 Aleatoriedad;
#X obj 147 382 sel 1 2 3 4 5 6;
#X obj 832 263 s kpresets;
#X obj 256 681 bng 19 250 50 0 empty m4 empty 0 -10 0 12 #fcfcfc #000000 #000000;
#X obj 256 705 random 13;
#X obj 253 732 s kpresets;
#X obj 501 231 random 3;
#X obj 502 302 s hat_selector;
#X msg 187 423 26;
#X msg 282 426 26;
#X msg 148 424 26;
#X msg 237 423 26;
#X connect 2 0 3 0;
#X connect 3 0 5 0;
#X connect 4 0 3 1;
#X connect 6 0 8 0;
#X connect 8 0 4 0;
#X connect 9 0 6 0;
#X connect 9 0 7 0;
#X connect 12 0 14 0;
#X connect 12 0 57 0;
#X connect 13 0 39 0;
#X connect 13 0 42 0;
#X connect 13 0 44 0;
#X connect 14 0 15 0;
#X connect 14 1 15 0;
#X connect 14 2 15 0;
#X connect 14 3 16 0;
#X connect 14 4 15 0;
#X connect 14 5 16 0;
#X connect 14 6 13 0;
#X connect 15 0 39 0;
#X connect 15 0 42 0;
#X connect 15 0 44 0;
#X connect 16 0 39 0;
#X connect 16 0 42 0;
#X connect 16 0 44 0;
#X connect 17 0 12 0;
#X connect 17 0 61 0;
#X connect 18 0 23 0;
#X connect 19 0 24 0;
#X connect 20 0 25 0;
#X connect 21 0 26 0;
#X connect 22 0 18 0;
#X connect 22 0 21 0;
#X connect 22 0 20 0;
#X connect 22 0 19 0;
#X connect 27 0 30 0;
#X connect 28 0 31 0;
#X connect 29 0 32 0;
#X connect 30 0 33 0;
#X connect 31 0 36 0;
#X connect 32 0 35 0;
#X connect 34 0 53 0;
#X connect 39 0 40 0;
#X connect 40 0 30 1;
#X connect 40 0 34 0;
#X connect 41 0 52 0;
#X connect 41 0 31 1;
#X connect 42 0 41 0;
#X connect 43 0 52 0;
#X connect 43 0 32 1;
#X connect 44 0 43 0;
#X connect 45 0 46 0;
#X connect 46 0 47 0;
#X connect 49 0 50 0;
#X connect 50 0 51 0;
#X connect 52 0 53 0;
#X connect 56 0 4 0;
#X connect 56 0 65 0;
#X connect 56 1 63 0;
#X connect 56 2 4 0;
#X connect 56 2 66 0;
#X connect 56 5 66 0;
#X connect 56 6 64 0;
#X connect 58 0 59 0;
#X connect 59 0 60 0;
#X connect 61 0 62 0;
#X connect 63 0 1 0;
#X connect 63 0 49 0;
#X connect 64 0 1 0;
#X connect 64 0 49 0;
#X connect 65 0 1 0;
#X connect 65 0 49 0;
#X connect 66 0 1 0;
#X connect 66 0 45 0;
#X restore 1211 97 pd automations;
#X obj 213 905 hsl 62 19 0 0.5 0 0 empty empty Amp -2 -10 0 12 #00faff #000000 #000000 0 1;
#X msg 977 139 225;
#X msg 1016 119 280;
#X obj 762 278 z_hat;
#X obj 761 78 hradio 34 1 0 3 hat_selector empty x1\ \ \ x2\ \ \ x4 0 -10 0 12 #e3c6ff #000000 #000000 0;
#X text 906 148 tempo BPM;
#X msg 762 133 0;
#X obj 762 157 s ahat;
#X obj 824 156 s rhat;
#X obj 762 220 s lophat;
#X obj 762 247 s hiphat;
#X text 928 214 AR env;
#X text 922 263 Filters;
#X obj 762 302 vca;
#X obj 814 299 hsl 62 19 0 0.09 0 0 empty empty Amp -2 -10 0 12 #00faff #000000 #000000 0 1;
#X obj 750 335 dac~;
#N canvas 430 295 450 300 config 0;
#X obj 115 34 metronomos;
#X restore 1212 136 pd config;
#X obj 974 218 tgl 40 0 gtc empty ON/OFF 0 -10 0 12 #c6feff #000000 #000000 0 1;
#N canvas 0 0 1440 872 presets 0;
#X text 802 78 Kick;
#X text 643 147 Initial Preset;
#X obj 943 30 r kpresets;
#X obj 972 71 sel 0 1 2 3 4;
#X msg 1056 493 \; kd 122 \; kp 5114 \; ks 125.45 \; ksine 16.2 \; ksat 1230.23 \; klop 122 \; khip 111 \;;
#X msg 535 215 \; kd 22 \; kp 2114 \; ks 125.45 \; ksine 66.2 \; ksat 130.23 \; klop 120 \; khip 111 \;;
#X msg 676 254 \; kd 22 \; kp 114 \; ks 45.45 \; ksine 72.2 \; ksat 0.23 \; klop 1920 \; khip 200 \;;
#X msg 1156 251 \; kd 22 \; kp 114 \; ks 450.45 \; ksine 71.2 \; klop 1720 \; khip 610 \; ksat 0.8 \;;
#X msg 895 251 \; kd 166.6 \; kp 328.2 \; ks 64.64 \; ksine 34.34 \; ksat 0.76 \; klop 6124 \; khip 300 \;;
#X msg 786 250 \; kd 21.21 \; kp 353.5 \; ks 30.3 \; ksine 30.3 \; ksat 0.25 \; klop 1520 \; khip 200 \;;
#X msg 1016 252 \; kd 39.3939 \; kp 247.475 \; ks 18.1818 \; ksine 82.82 \; klop 181.19 \; ksat 0.4 \; khip 600 \;;
#X connect 3 0 8 0;
#X connect 3 4 4 0;
#X connect 3 5 8 0;
#X connect 3 5 4 0;
#X restore 1212 172 pd presets;
#X obj 82 105 z_kick;
#X obj 152 140 hsl 62 19 0 1.6 0 0 empty empty Amp -2 -10 0 12 #00faff #000000 #000000 0 1;
#X text 252 63 Initial Preset;
#X text 668 138 Gater;
#X obj 1066 121 modulo_grabar;
#X obj 583 739 cnv 19 100 110 empty empty 1 20 12 0 12 #bbbbbb #404040 0;
#X obj 593 763 bng 30 250 50 0 sampler_bang1 empty empty -1 -10 0 12 #c6ffc7 #000000 #000000;
#X obj 593 815 bng 26 250 50 0 sampler_panel1 empty open -1 -8 0 11 #c6ffc7 #000000 #000000;
#X obj 640 763 vsl 23 76 0 1 0 0 sampler_vol1 empty Vol 0 -9 0 10 #c6feff #000000 #000000 0 1;
#X obj 693 739 cnv 19 100 110 empty empty 2 20 12 0 12 #bbbbbb #404040 0;
#X obj 703 763 bng 30 250 50 0 sampler_bang2 empty empty -1 -10 0 12 #c6ffc7 #000000 #000000;
#X obj 703 815 bng 26 250 50 0 sampler_panel2 empty open -1 -8 0 11 #c6ffc7 #000000 #000000;
#X obj 750 763 vsl 23 76 0 1 0 0 sampler_vol2 empty Vol 0 -9 0 10 #c6feff #000000 #000000 0 1;
#X obj 804 738 cnv 19 100 110 empty empty 3 20 12 0 12 #bbbbbb #404040 0;
#X obj 814 762 bng 30 250 50 0 sampler_bang3 empty empty -1 -10 0 12 #c6ffc7 #000000 #000000;
#X obj 814 814 bng 26 250 50 0 sampler_panel3 empty open -1 -8 0 11 #c6ffc7 #000000 #000000;
#X obj 861 762 vsl 23 76 0 1 0 0 sampler_vol3 empty Vol 0 -9 0 10 #c6feff #000000 #000000 0 1;
#X obj 584 860 cnv 19 100 110 empty empty 4 20 12 0 12 #bbbbbb #404040 0;
#X obj 594 884 bng 30 250 50 0 sampler_bang4 empty empty -1 -10 0 12 #c6ffc7 #000000 #000000;
#X obj 594 936 bng 26 250 50 0 sampler_panel4 empty open -1 -8 0 11 #c6ffc7 #000000 #000000;
#X obj 641 884 vsl 23 76 0 1 0 0 sampler_vol4 empty Vol 0 -9 0 10 #c6feff #000000 #000000 0 1;
#X obj 694 860 cnv 19 100 110 empty empty 5 20 12 0 12 #bbbbbb #404040 0;
#X obj 704 884 bng 30 250 50 0 sampler_bang5 empty empty -1 -10 0 12 #c6ffc7 #000000 #000000;
#X obj 704 936 bng 26 250 50 0 sampler_panel5 empty open -1 -8 0 11 #c6ffc7 #000000 #000000;
#X obj 751 884 vsl 23 76 0 1 0 0 sampler_vol5 empty Vol 0 -9 0 10 #c6feff #000000 #000000 0 1;
#X obj 805 860 cnv 19 100 110 empty empty 6 20 12 0 12 #bbbbbb #404040 0;
#X obj 815 884 bng 30 250 50 0 sampler_bang6 empty empty -1 -10 0 12 #c6ffc7 #000000 #000000;
#X obj 815 936 bng 26 250 50 0 sampler_panel6 empty open -1 -8 0 11 #c6ffc7 #000000 #000000;
#X obj 862 884 vsl 23 76 0 1 0 0 sampler_vol6 empty Vol 0 -9 0 10 #c6feff #000000 #000000 0 1;
#X text 796 700 Sampler;
#X text 239 406 Osc 1;
#X text 439 491 Osc 2;
#X text 256 628 Filters;
#X text 397 851 Envolvente;
#X obj 647 81 s bnote;
#X text 582 85 Env;
#X obj 1042 333 cnv 19 550 750 empty empty __AM_ATMO_2__ 20 12 0 12 #e0e0e0 #404040 0;
#X obj 1349 853 dac~, f 7;
#X obj 1081 565 5xLFO;
#X obj 1082 446 vsl 19 60 0.001 20 1 0 empty empty empty 0 -9 0 12 #fcfcfc #000000 #000000 0 1;
#X obj 1195 483 abs;
#X obj 1161 447 5xLFO;
#X obj 1161 376 vsl 19 60 0.001 20 1 0 empty empty empty 0 -9 0 12 #fcfcfc #000000 #000000 0 1;
#X obj 1186 776 vca;
#X obj 1250 744 vsl 22 92 0 1 0 0 s1v empty vol 0 -9 0 12 #c6feff #000000 #000000 0 1;
#X obj 1127 939 reverb, f 27;
#X obj 1107 609 abs;
#X msg 1115 536 0;
#X text 1151 539 LFO filter;
#X msg 1195 424 0;
#X obj 1128 878 ar_env;
#X obj 1114 823 bng 26 250 50 0 empty empty empty -2 -11 0 12 #c6ffc7 #000000 #000000;
#X obj 1291 457 saw, f 13;
#X obj 1290 532 osc, f 10;
#X obj 1286 614 vcf~;
#X msg 1303 910 1;
#X msg 1188 912 0.128;
#X obj 1113 767 % 2;
#X obj 1113 791 sel 1;
#X obj 1348 821 ping_pong_delay_2;
#X obj 149 180 *;
#X obj 190 181 r kvol;
#X msg 824 132 23;
#X msg 604 232 40;
#X floatatom 237 462 5 0 0 0 - - - 0;
#X floatatom 212 346 5 0 0 0 - - - 0;
#X obj 535 363 bng 19 250 50 0 empty m4 empty 0 -10 0 12 #fcfcfc #000000 #000000;
#X obj 345 404 random 30;
#X obj 398 458 hsl 162 19 0 1 0 0 empty empty empty -2 -10 0 12 #fcfcfc #000000 #000000 0 1;
#X obj 422 404 random 400;
#X obj 506 404 random 50;
#X obj 506 428 / 50;
#X text 1058 373 0.001 Ambos sliders;
#X obj 1255 381 osc, f 13;
#X floatatom 689 349 5 0 0 0 - - - 0;
#X obj 596 697 dac~;
#X obj 782 387 vsl 19 162 0 1222 0 0 empty empty empty 0 -9 0 12 #fcfcfc #000000 #000000 0 1;
#X obj 992 60 metronomos;
#X obj 1113 741 r m4;
#X obj 676 506 saturador;
#X obj 926 440 vradio 37 1 0 5 empty empty empty 0 -10 0 12 #c6feff #000000 #000000 0;
#X obj 872 458 vsl 33 162 0.01 10 1 0 empty empty Freq 0 -9 0 12 #c6feff #000000 #000000 0 1;
#X obj 872 628 5xLFO;
#X floatatom 952 645 5 0 0 0 - - - 0;
#X obj 989 690 vradio 37 1 0 5 empty empty empty 0 -10 0 12 #c6feff #000000 #000000 0;
#X obj 933 694 vsl 33 162 0.01 10 1 0 empty empty Freq 0 -9 0 12 #c6feff #000000 #000000 0 1;
#X obj 935 878 5xLFO, f 6;
#X floatatom 932 921 5 0 0 0 - - - 0;
#X obj 678 479 bob~;
#X obj 932 944 * 0.09;
#X obj 641 568 hip~ 1111;
#X obj 45 943 hsl 162 19 0 127 0 0 empty empty empty -2 -10 0 12 #fcfcfc #000000 #000000 0 1;
#X obj 791 524 vsl 24 88 0 5000 0 0 empty empty A 0 -9 0 10 #00faff #000000 #000000 0 1;
#X obj 845 381 bng 26 250 50 0 empty m1 Bang! -2 -11 0 12 #c6ffc7 #000000 #000000;
#X obj 830 511 vsl 25 88 0 1270 0 0 empty empty R 0 -9 0 10 #00faff #000000 #000000 0 1;
#X obj 617 597 ar_env, f 20;
#X obj 896 384 r m2;
#X obj 183 490 osc, f 32;
#X obj 71 297 ramp, f 19;
#X obj 85 436 osc, f 19;
#X obj 678 455 hip~ 1400;
#X obj 814 662 * 100.6;
#X obj 952 668 * 722;
#X obj 619 356 saw, f 8;
#X obj 678 407 saw, f 14;
#X floatatom 633 307 5 0 0 0 - - - 0;
#X text 186 97 comment;
#X obj 247 295 hsl 162 19 0 1270 0 0 empty empty empty -2 -10 0 12 #fcfcfc #000000 #000000 0 1;
#X msg 1414 490 1;
#X msg 1335 607 3;
#X obj 1412 106 sel 0 1 2 3 4;
#X obj 1414 185 mtof, f 10;
#X msg 1446 153 45;
#X msg 1486 150 45;
#X msg 1517 158 54;
#X obj 1412 82 r m6;
#X msg 1413 152 64;
#X obj 1383 238 triangular, f 18;
#X obj 1383 262 hip~ 430;
#X msg 1226 322 22;
#X msg 1308 340 3;
#X msg 1328 492 3;
#X msg 1379 421 0.8;
#X msg 1423 303 1.2;
#X msg 1334 393 2;
#X obj 1106 634 * 3000;
#X obj 1197 512 * 200;
#X msg 263 828 2000;
#X obj 181 653 hip~ 922;
#X msg 264 540 311;
#X msg 269 590 3.8;
#X msg 1419 785 0.657;
#X obj 621 649 *~ 0.02;
#X msg 743 471 0.4;
#X msg 576 307 3;
#X msg 673 327 1;
#X obj 644 534 clip~ -0.6 0.6;
#X obj 677 431 lop~ 111;
#X msg 761 192 2300;
#X msg 444 64 0;
#X msg 648 57 24;
#X obj 716 663 * 12;
#X msg 1473 805 0.71;
#X obj 1285 665 lop~ 399;
#X obj 1282 641 hip~ 723;
#X obj 419 1008 saw, f 16;
#X obj 475 1032 reverb;
#X obj 501 1042 *~ 0.2;
#X floatatom 454 919 5 0 0 0 - - - 0;
#X msg 537 913 9;
#X msg 496 897 0.2;
#X msg 260 100 \; kd 22 \; kp 2114 \; ks 125.45 \; ksine 66.2 \; ksat 130.23 \; klop 93 \; khip 111 \;;
#X msg 663 232 340;
#X msg 514 66 450;
#X msg 977 116 260;
#X msg 332 809 4000;
#X msg 291 460 1;
#X msg 338 459 200;
#X msg 200 399 200;
#X msg 157 411 1;
#X msg 117 409 60;
#X msg 105 270 200;
#X msg 148 266 3, f 2;
#X msg 239 989 0.857;
#X msg 294 1007 0.981;
#X msg 204 967 624;
#X msg 1244 910 0.97;
#X msg 1385 763 111;
#X msg 1152 849 122;
#X msg 1210 859 979.7;
#X connect 2 0 3 0;
#X connect 2 0 3 1;
#X connect 5 0 12 0;
#X connect 12 0 15 0;
#X connect 12 0 15 1;
#X connect 21 0 32 0;
#X connect 23 0 24 0;
#X connect 24 0 192 0;
#X connect 25 0 26 0;
#X connect 26 0 21 0;
#X connect 27 0 33 0;
#X connect 29 0 25 1;
#X connect 30 0 25 2;
#X connect 31 0 25 3;
#X connect 32 0 22 0;
#X connect 32 1 22 1;
#X connect 32 2 22 0;
#X connect 32 3 22 1;
#X connect 33 0 34 0;
#X connect 34 0 24 1;
#X connect 35 0 25 0;
#X connect 35 0 209 0;
#X connect 38 0 40 0;
#X connect 40 0 41 0;
#X connect 41 0 39 0;
#X connect 41 0 39 1;
#X connect 42 0 12 1;
#X connect 45 0 21 1;
#X connect 46 0 16 0;
#X connect 47 0 16 0;
#X connect 48 0 58 0;
#X connect 51 0 52 0;
#X connect 58 0 60 0;
#X connect 58 0 60 1;
#X connect 59 0 58 1;
#X connect 64 0 2 0;
#X connect 65 0 124 0;
#X connect 102 1 110 0;
#X connect 103 0 102 0;
#X connect 104 0 190 0;
#X connect 105 1 104 0;
#X connect 105 1 149 0;
#X connect 106 0 105 0;
#X connect 107 0 114 0;
#X connect 108 0 107 1;
#X connect 109 0 123 0;
#X connect 110 0 189 0;
#X connect 111 0 102 1;
#X connect 113 0 105 1;
#X connect 114 0 109 0;
#X connect 115 0 114 1;
#X connect 116 0 117 0;
#X connect 117 0 118 0;
#X connect 118 0 167 0;
#X connect 118 0 208 0;
#X connect 119 0 109 3;
#X connect 120 0 109 1;
#X connect 121 0 122 0;
#X connect 122 0 115 0;
#X connect 123 0 101 0;
#X connect 123 1 101 1;
#X connect 123 2 101 0;
#X connect 123 3 101 1;
#X connect 124 0 2 1;
#X connect 125 0 124 1;
#X connect 126 0 53 0;
#X connect 127 0 14 0;
#X connect 128 0 161 1;
#X connect 129 0 162 1;
#X connect 130 0 131 0;
#X connect 130 0 133 0;
#X connect 130 0 134 0;
#X connect 130 0 26 1;
#X connect 131 0 128 0;
#X connect 132 0 161 4;
#X connect 133 0 129 0;
#X connect 133 0 167 3;
#X connect 134 0 135 0;
#X connect 135 0 132 0;
#X connect 137 0 116 0;
#X connect 138 0 168 1;
#X connect 140 0 152 1;
#X connect 140 0 212 0;
#X connect 142 0 121 0;
#X connect 143 0 200 0;
#X connect 144 0 146 1;
#X connect 145 0 146 0;
#X connect 146 1 147 0;
#X connect 146 1 103 0;
#X connect 147 0 165 0;
#X connect 147 0 166 0;
#X connect 148 0 150 1;
#X connect 149 0 150 0;
#X connect 150 1 151 0;
#X connect 150 1 205 0;
#X connect 151 0 153 0;
#X connect 152 0 143 0;
#X connect 153 0 145 0;
#X connect 154 0 159 0;
#X connect 156 0 159 2;
#X connect 158 0 159 3;
#X connect 159 0 196 0;
#X connect 160 0 159 1;
#X connect 160 0 157 0;
#X connect 161 0 23 0;
#X connect 162 0 163 0;
#X connect 163 0 161 0;
#X connect 164 0 152 0;
#X connect 165 0 138 0;
#X connect 165 0 24 1;
#X connect 166 0 140 0;
#X connect 167 0 168 0;
#X connect 168 0 201 0;
#X connect 169 0 167 1;
#X connect 171 0 162 4;
#X connect 172 0 117 4;
#X connect 173 0 118 2;
#X connect 174 0 180 0;
#X connect 174 1 176 0;
#X connect 174 2 177 0;
#X connect 174 3 178 0;
#X connect 174 4 178 0;
#X connect 175 0 181 1;
#X connect 176 0 175 0;
#X connect 177 0 175 0;
#X connect 178 0 175 0;
#X connect 179 0 174 0;
#X connect 180 0 175 0;
#X connect 181 0 182 0;
#X connect 182 0 137 0;
#X connect 183 0 137 1;
#X connect 184 0 137 2;
#X connect 185 0 117 2;
#X connect 186 0 116 4;
#X connect 187 0 137 4;
#X connect 188 0 116 2;
#X connect 189 0 118 1;
#X connect 189 0 117 1;
#X connect 190 0 116 1;
#X connect 191 0 26 2;
#X connect 192 0 35 0;
#X connect 193 0 23 1;
#X connect 194 0 24 2;
#X connect 195 0 123 2;
#X connect 196 0 162 0;
#X connect 196 0 139 0;
#X connect 196 0 139 1;
#X connect 197 0 143 1;
#X connect 197 0 152 2;
#X connect 198 0 167 2;
#X connect 199 0 167 4;
#X connect 200 0 154 0;
#X connect 201 0 164 0;
#X connect 202 0 54 0;
#X connect 202 0 55 0;
#X connect 203 0 37 0;
#X connect 204 0 98 0;
#X connect 205 0 155 0;
#X connect 206 0 123 3;
#X connect 207 0 107 0;
#X connect 208 0 207 0;
#X connect 209 0 210 0;
#X connect 210 0 211 0;
#X connect 211 0 39 0;
#X connect 212 0 209 1;
#X connect 213 0 209 4;
#X connect 214 0 209 2;
#X connect 216 0 13 0;
#X connect 217 0 19 0;
#X connect 218 0 16 0;
#X connect 219 0 26 3;
#X connect 220 0 161 2;
#X connect 221 0 161 3;
#X connect 221 0 59 0;
#X connect 222 0 163 3;
#X connect 223 0 163 2;
#X connect 224 0 163 1;
#X connect 225 0 162 1;
#X connect 226 0 162 2;
#X connect 227 0 32 2;
#X connect 228 0 32 3;
#X connect 229 0 32 1;
#X connect 230 0 109 2;
#X connect 231 0 123 1;
#X connect 232 0 114 2;
#X connect 233 0 114 3;
