#N canvas 0 28 1440 900 12;
#X obj 50 30 cnv 19 340 220 empty empty Kick 20 12 0 12 #c6feff #404040 0;
#X obj 82 66 bng 19 250 50 0 kbang empty empty 0 -10 0 12 #fcfcfc #000000 #000000;
#X obj 84 165 vca;
#X obj 82 214 dac~;
#X obj 420 29 cnv 19 310 280 empty empty Bass 20 12 0 12 #c6feff #404040 0;
#X obj 448 184 z_bass;
#X obj 445 137 tgl 19 0 bt1 empty * 0 -10 0 12 #fcfcfc #000000 #000000 0 1;
#X obj 484 137 tgl 19 0 bt2 empty empty 0 -10 0 12 #fcfcfc #000000 #000000 0 1;
#X obj 522 137 tgl 19 0 bt3 empty empty 0 -10 0 12 #fcfcfc #000000 #000000 0 1;
#X obj 559 137 tgl 19 0 bt4 empty * 0 -10 0 12 #fcfcfc #000000 #000000 0 1;
#X obj 596 137 tgl 19 0 bt5 empty empty 0 -10 0 12 #fcfcfc #000000 #000000 0 1;
#X obj 632 137 tgl 19 0 bt6 empty empty 0 -10 0 12 #fcfcfc #000000 #000000 0 1;
#X obj 448 242 vca;
#X obj 663 256 s blop;
#X obj 604 256 s bhip;
#X obj 448 269 dac~;
#X obj 976 168 s bpm;
#X text 618 198 Filters;
#X obj 742 30 cnv 19 150 330 empty empty Z_HAT_1 20 12 0 12 #c7c6ff #404040 0;
#X obj 513 88 s bdec;
#X obj 48 336 cnv 19 550 750 empty empty __AM_SYNTH_1__ 20 12 0 12 #e0e0e0 #404040 0;
#X obj 173 911 vca;
#X obj 208 1052 dac~;
#X obj 183 538 saturador;
#X obj 217 831 bng 19 250 50 0 empty m5 empty 0 -10 0 12 #fcfcfc #000000 #000000;
#X obj 235 764 reverb, f 37;
#X obj 172 854 ar_env, f 20;
#X obj 382 551 bng 19 250 50 0 empty m5 empty 0 -10 0 12 #fcfcfc #000000 #000000;
#X text 500 578 random cutoff;
#X obj 320 705 vsl 19 45 0 1 0 0 empty empty room 0 -9 0 12 #c6feff #000000 #000000 0 1;
#X obj 405 702 vsl 19 45 0 1 0 0 empty empty wet 0 -9 0 12 #c6feff #000000 #000000 0 1;
#X obj 491 705 vsl 19 45 0 1 0 0 empty empty dry 0 -9 0 12 #c6feff #000000 #000000 0 1;
#X obj 171 1027 ping_pong_delay;
#X obj 382 578 random 4555;
#X obj 80 408 ramp, f 19;
#X msg 264 540 1311;
#X msg 205 967 225;
#X msg 239 989 0.857;
#X msg 293 1008 0.781;
#X text 412 951 Delay: time wet feedback;
#X obj 444 88 s battck;
#X obj 669 981 sampler, f 45;
#X obj 661 1091 dac~;
#X obj 669 1029 hip~ 2400;
#X obj 669 1053 lop~ 900;
#X obj 500 238 hsl 62 19 0 1 0 0 empty empty Amp -2 -10 0 12 #00faff #000000 #000000 0 1;
#X obj 1193 66 cnv 19 150 210 empty empty Core 20 12 0 12 #bbbbbb #404040 0;
#N canvas 0 28 1440 900 automations 0;
#X obj 69 127 cnv 19 300 400 empty empty bass_automation 20 12 0 12 #c6feff #404040 0;
#X obj 182 497 s bnote;
#X msg 148 424 23;
#X msg 282 425 22;
#X msg 238 423 17;
#X obj 109 254 bng 19 250 50 0 empty m4 empty 0 -10 0 12 #fcfcfc #000000 #000000;
#X obj 146 273 spigot;
#X obj 354 187 tgl 19 0 empty empty empty 0 -10 0 12 #fcfcfc #000000 #000000 0 1;
#X obj 146 323 random 25;
#X obj 289 157 sel 7;
#X floatatom 352 153 5 0 0 0 - - - 0;
#X msg 289 181 1;
#X obj 289 133 r m4;
#X text 382 429 Enviar notas al bassline;
#X obj 630 116 cnv 19 300 400 empty empty kick_automation 20 12 0 12 #c6feff #404040 0;
#X obj 653 182 random 40;
#X msg 779 263 0;
#X obj 652 226 sel 1 2 3 4 5 6;
#X msg 652 262 1;
#X msg 711 262 2;
#X obj 653 149 bng 19 250 50 0 empty m2 empty 0 -10 0 12 #fcfcfc #000000 #000000;
#X obj 953 172 random 300;
#X obj 1036 172 random 500;
#X obj 1118 171 random 100;
#X obj 1197 172 random 100;
#X obj 952 132 bng 22 250 50 0 empty krand_timbre random 0 -10 0 12 #c6feff #000000 #000000;
#X obj 953 196 s kd;
#X obj 1036 196 s kp;
#X obj 1118 195 s ks;
#X obj 1197 196 s ksine;
#X obj 666 438 bng 19 250 50 0 empty m1 empty 0 -10 0 12 #fcfcfc #000000 #000000;
#X obj 817 444 bng 19 250 50 0 empty m6 empty 0 -10 0 12 #fcfcfc #000000 #000000;
#X obj 962 447 bng 19 250 50 0 empty m7 empty 0 -10 0 12 #fcfcfc #000000 #000000;
#X obj 666 464 spigot;
#X obj 817 468 spigot;
#X obj 962 471 spigot;
#X obj 666 491 s kbang;
#X msg 716 559 1;
#X obj 962 495 s kbang;
#X obj 817 492 s kbang;
#X text 1278 596 Tempo Kick Automation;
#X text 1072 642 Automatización de cambios de tempo clock retorna valores que puede tomar vca para cuidar del solapamiento de kicks cuando el tempo es x2 y x4 Params: kselector Retorna: 1 \, 0.6;
#X obj 692 310 == 0;
#X obj 692 334 tgl 19 0 empty empty empty 0 -10 0 12 #fcfcfc #000000 #000000 0 1;
#X obj 738 334 tgl 19 0 empty empty empty 0 -10 0 12 #fcfcfc #000000 #000000 0 1;
#X obj 738 310 == 1;
#X obj 787 336 tgl 19 0 empty empty empty 0 -10 0 12 #fcfcfc #000000 #000000 0 1;
#X obj 788 312 == 2;
#X obj 284 474 bng 19 250 50 0 empty empty empty 0 -10 0 12 #fcfcfc #000000 #000000;
#X msg 284 498 0;
#X obj 284 533 s hat_vol;
#X text 378 537 Mutear hat en nota 17 (darker);
#X obj 104 480 bng 19 250 50 0 empty empty empty 0 -10 0 12 #fcfcfc #000000 #000000;
#X msg 104 504 1;
#X obj 104 528 s hat_vol;
#X msg 757 560 0.3;
#X obj 716 583 s kvol;
#X text 783 585 Manejo del volumen del kick para evitar saturación;
#X text 749 183 Aleatoriedad;
#X msg 198 423 24;
#X obj 147 382 sel 1 2 3 4 5 6;
#X connect 2 0 1 0;
#X connect 2 0 52 0;
#X connect 3 0 1 0;
#X connect 3 0 52 0;
#X connect 4 0 1 0;
#X connect 4 0 48 0;
#X connect 5 0 6 0;
#X connect 6 0 8 0;
#X connect 7 0 6 1;
#X connect 8 0 60 0;
#X connect 9 0 11 0;
#X connect 11 0 7 0;
#X connect 12 0 9 0;
#X connect 12 0 10 0;
#X connect 15 0 17 0;
#X connect 16 0 42 0;
#X connect 16 0 45 0;
#X connect 16 0 47 0;
#X connect 17 0 18 0;
#X connect 17 1 18 0;
#X connect 17 2 18 0;
#X connect 17 3 19 0;
#X connect 17 4 18 0;
#X connect 17 5 19 0;
#X connect 17 6 16 0;
#X connect 18 0 42 0;
#X connect 18 0 45 0;
#X connect 18 0 47 0;
#X connect 19 0 42 0;
#X connect 19 0 45 0;
#X connect 19 0 47 0;
#X connect 20 0 15 0;
#X connect 21 0 26 0;
#X connect 22 0 27 0;
#X connect 23 0 28 0;
#X connect 24 0 29 0;
#X connect 25 0 21 0;
#X connect 25 0 24 0;
#X connect 25 0 23 0;
#X connect 25 0 22 0;
#X connect 30 0 33 0;
#X connect 31 0 34 0;
#X connect 32 0 35 0;
#X connect 33 0 36 0;
#X connect 34 0 39 0;
#X connect 35 0 38 0;
#X connect 37 0 56 0;
#X connect 42 0 43 0;
#X connect 43 0 33 1;
#X connect 43 0 37 0;
#X connect 44 0 55 0;
#X connect 44 0 34 1;
#X connect 45 0 44 0;
#X connect 46 0 55 0;
#X connect 46 0 35 1;
#X connect 47 0 46 0;
#X connect 48 0 49 0;
#X connect 49 0 50 0;
#X connect 52 0 53 0;
#X connect 53 0 54 0;
#X connect 55 0 56 0;
#X connect 59 0 1 0;
#X connect 59 0 52 0;
#X connect 60 0 7 0;
#X connect 60 0 2 0;
#X connect 60 1 59 0;
#X connect 60 2 7 0;
#X connect 60 2 4 0;
#X connect 60 4 4 0;
#X connect 60 5 4 0;
#X connect 60 6 3 0;
#X restore 1211 96 pd automations;
#X obj 213 909 hsl 62 19 0 1.5 0 0 empty empty Amp -2 -10 0 12 #00faff #000000 #000000 0 1;
#X msg 444 64 100;
#X msg 513 64 450;
#X msg 977 139 225;
#X msg 1016 119 280;
#X obj 762 278 z_hat;
#X obj 761 78 hradio 34 1 0 3 hat_selector empty x1\ \ \ x2\ \ \ x4 0 -10 0 12 #e3c6ff #000000 #000000 0;
#X msg 978 116 170;
#X text 906 148 tempo BPM;
#X msg 762 133 0;
#X obj 762 157 s ahat;
#X obj 824 156 s rhat;
#X obj 762 220 s lophat;
#X obj 762 247 s hiphat;
#X text 928 214 AR env;
#X text 922 263 Filters;
#X obj 762 302 vca;
#X obj 814 299 hsl 62 19 0 0.09 0 0 empty empty Amp -2 -10 0 12 #00faff #000000 #000000 0 1;
#X obj 762 326 dac~;
#N canvas 430 295 450 300 config 0;
#X obj 115 34 metronomos;
#X restore 1212 136 pd config;
#X obj 974 218 tgl 40 0 gtc empty ON/OFF 0 -10 0 12 #c6feff #000000 #000000 0 1;
#N canvas 0 0 1440 872 presets 1;
#X text 801 93 Kick;
#X obj 973 6 bng 19 250 50 0 empty m3 empty 0 -10 0 12 #fcfcfc #000000 #000000;
#X obj 973 54 sel 1 4 2 3 0;
#X obj 875 83 random 18;
#X obj 1067 105 bng 19 250 50 0 empty empty empty 0 -10 0 12 #fcfcfc #000000 #000000;
#X text 628 132 Initial Preset;
#X msg 1142 171 \; kd 22 \; kp 114 \; ks 45.45 \; ksine 71.2 \; klop 120 \; khip 60 \;;
#X msg 871 179 \; kd 166.6 \; kp 328.2 \; ks 64.64 \; ksine 34.34 \; klop 120 \; khip 60 \;;
#X msg 762 178 \; kd 21.21 \; kp 353.5 \; ks 30.3 \; klop 112 \; khip 29 \; ksine 30.3 \;;
#X msg 638 167 \; kd 22 \; kp 114 \; ks 45.45 \; ksine 72.2 \; ksat 0.8 \; klop 90 \; khip 29 \; kvol 1 \;;
#X msg 992 180 \; kd 19.3939 \; kp 27.475 \; ks 182.182 \; ksat 1 \; ksine 2.82 \; klop 345 \; khip 30 \;;
#X connect 1 0 3 0;
#X connect 2 0 6 0;
#X connect 2 1 8 0;
#X connect 2 3 7 0;
#X connect 2 4 10 0;
#X connect 2 5 4 0;
#X connect 3 0 2 0;
#X connect 4 0 9 0;
#X restore 1212 172 pd presets;
#X obj 82 105 z_kick;
#X obj 152 140 hsl 62 19 0 5 0 0 empty empty Amp -2 -10 0 12 #00faff #000000 #000000 0 1;
#X text 252 63 Initial Preset;
#X text 668 138 Gater;
#X obj 1066 121 modulo_grabar;
#X obj 667 744 cnv 19 100 110 empty empty 1 20 12 0 12 #bbbbbb #404040 0;
#X obj 677 768 bng 30 250 50 0 sampler_bang1 empty empty -1 -10 0 12 #c6ffc7 #000000 #000000;
#X obj 677 820 bng 26 250 50 0 sampler_panel1 empty open -1 -8 0 11 #c6ffc7 #000000 #000000;
#X obj 724 768 vsl 23 76 0 1 0 0 sampler_vol1 empty Vol 0 -9 0 10 #c6feff #000000 #000000 0 1;
#X obj 777 744 cnv 19 100 110 empty empty 2 20 12 0 12 #bbbbbb #404040 0;
#X obj 787 768 bng 30 250 50 0 sampler_bang2 empty empty -1 -10 0 12 #c6ffc7 #000000 #000000;
#X obj 787 820 bng 26 250 50 0 sampler_panel2 empty open -1 -8 0 11 #c6ffc7 #000000 #000000;
#X obj 834 768 vsl 23 76 0 1 0 0 sampler_vol2 empty Vol 0 -9 0 10 #c6feff #000000 #000000 0 1;
#X obj 888 743 cnv 19 100 110 empty empty 3 20 12 0 12 #bbbbbb #404040 0;
#X obj 898 767 bng 30 250 50 0 sampler_bang3 empty empty -1 -10 0 12 #c6ffc7 #000000 #000000;
#X obj 898 819 bng 26 250 50 0 sampler_panel3 empty open -1 -8 0 11 #c6ffc7 #000000 #000000;
#X obj 945 767 vsl 23 76 0 1 0 0 sampler_vol3 empty Vol 0 -9 0 10 #c6feff #000000 #000000 0 1;
#X obj 668 865 cnv 19 100 110 empty empty 4 20 12 0 12 #bbbbbb #404040 0;
#X obj 678 889 bng 30 250 50 0 sampler_bang4 empty empty -1 -10 0 12 #c6ffc7 #000000 #000000;
#X obj 678 941 bng 26 250 50 0 sampler_panel4 empty open -1 -8 0 11 #c6ffc7 #000000 #000000;
#X obj 725 889 vsl 23 76 0 1 0 0 sampler_vol4 empty Vol 0 -9 0 10 #c6feff #000000 #000000 0 1;
#X obj 778 865 cnv 19 100 110 empty empty 5 20 12 0 12 #bbbbbb #404040 0;
#X obj 788 889 bng 30 250 50 0 sampler_bang5 empty empty -1 -10 0 12 #c6ffc7 #000000 #000000;
#X obj 788 941 bng 26 250 50 0 sampler_panel5 empty open -1 -8 0 11 #c6ffc7 #000000 #000000;
#X obj 835 889 vsl 23 76 0 1 0 0 sampler_vol5 empty Vol 0 -9 0 10 #c6feff #000000 #000000 0 1;
#X obj 889 865 cnv 19 100 110 empty empty 6 20 12 0 12 #bbbbbb #404040 0;
#X obj 899 889 bng 30 250 50 0 sampler_bang6 empty empty -1 -10 0 12 #c6ffc7 #000000 #000000;
#X obj 899 941 bng 26 250 50 0 sampler_panel6 empty open -1 -8 0 11 #c6ffc7 #000000 #000000;
#X obj 946 889 vsl 23 76 0 1 0 0 sampler_vol6 empty Vol 0 -9 0 10 #c6feff #000000 #000000 0 1;
#X text 796 700 Sampler;
#X text 239 406 Osc 1;
#X text 439 491 Osc 2;
#X text 256 628 Filters;
#X text 397 851 Envolvente;
#X msg 647 57 22;
#X obj 647 81 s bnote;
#X text 582 85 Env;
#X obj 1043 333 cnv 19 550 750 empty empty __AM_SYNTH_2__ 20 12 0 12 #e0e0e0 #404040 0;
#X obj 1372 902 dac~, f 7;
#X obj 1104 614 5xLFO;
#X obj 1105 495 vsl 19 60 0.001 20 1 0 empty empty empty 0 -9 0 12 #fcfcfc #000000 #000000 0 1;
#X obj 1218 532 abs;
#X obj 1184 496 5xLFO;
#X obj 1184 425 vsl 19 60 0.001 20 1 0 empty empty empty 0 -9 0 12 #fcfcfc #000000 #000000 0 1;
#X obj 1209 825 vca;
#X obj 1303 806 vsl 22 92 0 0.8 0 0 s1v empty vol 0 -9 0 12 #c6feff #000000 #000000 0 1;
#X obj 1150 988 reverb, f 27;
#X obj 1130 658 abs;
#X msg 1138 585 0;
#X text 1174 587 LFO filter;
#X msg 1218 473 0;
#X obj 1151 927 ar_env;
#X obj 1137 872 bng 26 250 50 0 empty empty empty -2 -11 0 12 #c6ffc7 #000000 #000000;
#X msg 1350 544 2;
#X obj 1314 506 saw, f 13;
#X obj 1313 581 osc, f 10;
#X floatatom 1336 475 5 0 0 0 - - - 0;
#X obj 1218 557 * 3120;
#X msg 1386 543 1111;
#X obj 1309 663 vcf~;
#X msg 1358 656 3;
#X msg 1326 959 1;
#X msg 1267 959 0.227;
#X msg 1211 961 0.128;
#X msg 1233 909 43.7;
#X msg 1176 899 4312;
#X obj 1136 816 % 2;
#X obj 1136 790 r m4;
#X obj 1136 840 sel 1;
#X obj 1129 683 * 1300;
#X obj 1371 870 ping_pong_delay_2;
#X msg 1408 812 225;
#X msg 1442 834 0.857;
#X msg 1496 853 0.781;
#X obj 1307 691 hip~ 2423;
#X obj 1308 714 lop~ 420;
#X obj 149 180 *;
#X obj 190 181 r kvol;
#X msg 824 132 23;
#X msg 761 192 1500;
#X msg 604 232 40;
#X obj 1006 52;
#X msg 262 98 \; kd 22 \; kp 114 \; ks 45.45 \; ksine 72.2 \; ksat 0.8 \; klop 120 \; khip 100 \; kvol 1 \;;
#X msg 662 232 100;
#X obj 111 360 bng 19 250 50 0 empty m4 empty 0 -10 0 12 #fcfcfc #000000 #000000;
#X msg 294 458 2;
#X obj 382 606 clip 150 5000;
#X obj 182 679 lop~ 340;
#X obj 182 626 vcf~;
#X msg 204 597 3.8;
#X obj 182 653 hip~ 1800;
#X msg 263 827 1196;
#X msg 325 835 315;
#X obj 111 384 random 23;
#X obj 183 490 saw, f 32;
#X connect 2 0 3 0;
#X connect 2 0 3 1;
#X connect 5 0 12 0;
#X connect 12 0 15 0;
#X connect 12 0 15 1;
#X connect 21 0 32 0;
#X connect 23 0 158 0;
#X connect 24 0 26 1;
#X connect 25 0 26 0;
#X connect 26 0 21 0;
#X connect 27 0 33 0;
#X connect 29 0 25 1;
#X connect 30 0 25 2;
#X connect 31 0 25 3;
#X connect 32 0 22 0;
#X connect 32 1 22 1;
#X connect 32 2 22 0;
#X connect 32 3 22 1;
#X connect 33 0 156 0;
#X connect 34 0 164 0;
#X connect 35 0 23 1;
#X connect 36 0 32 1;
#X connect 37 0 32 2;
#X connect 38 0 32 3;
#X connect 41 0 43 0;
#X connect 43 0 44 0;
#X connect 44 0 42 0;
#X connect 44 0 42 1;
#X connect 45 0 12 1;
#X connect 48 0 21 1;
#X connect 49 0 40 0;
#X connect 50 0 19 0;
#X connect 51 0 16 0;
#X connect 52 0 16 0;
#X connect 53 0 64 0;
#X connect 55 0 16 0;
#X connect 57 0 58 0;
#X connect 64 0 66 0;
#X connect 64 0 66 1;
#X connect 65 0 64 1;
#X connect 70 0 2 0;
#X connect 71 0 146 0;
#X connect 104 0 105 0;
#X connect 109 1 117 0;
#X connect 110 0 109 0;
#X connect 111 0 127 0;
#X connect 112 1 111 0;
#X connect 113 0 112 0;
#X connect 114 0 121 0;
#X connect 115 0 114 1;
#X connect 116 0 140 0;
#X connect 117 0 139 0;
#X connect 118 0 109 1;
#X connect 120 0 112 1;
#X connect 121 0 116 0;
#X connect 122 0 121 1;
#X connect 123 0 125 2;
#X connect 124 0 125 0;
#X connect 125 0 129 0;
#X connect 126 0 124 1;
#X connect 127 0 125 3;
#X connect 128 0 125 4;
#X connect 129 0 144 0;
#X connect 130 0 129 2;
#X connect 131 0 116 3;
#X connect 132 0 116 2;
#X connect 133 0 116 1;
#X connect 134 0 121 3;
#X connect 135 0 121 2;
#X connect 136 0 138 0;
#X connect 137 0 136 0;
#X connect 138 0 122 0;
#X connect 139 0 125 1;
#X connect 139 0 129 1;
#X connect 140 0 108 0;
#X connect 140 1 108 1;
#X connect 140 2 108 0;
#X connect 140 3 108 1;
#X connect 141 0 140 1;
#X connect 142 0 140 2;
#X connect 143 0 140 3;
#X connect 144 0 145 0;
#X connect 145 0 114 0;
#X connect 146 0 2 1;
#X connect 147 0 146 1;
#X connect 148 0 59 0;
#X connect 149 0 60 0;
#X connect 149 0 61 0;
#X connect 150 0 14 0;
#X connect 153 0 13 0;
#X connect 154 0 163 0;
#X connect 155 0 164 2;
#X connect 156 0 158 1;
#X connect 157 0 25 0;
#X connect 158 0 160 0;
#X connect 159 0 158 2;
#X connect 160 0 157 0;
#X connect 161 0 26 2;
#X connect 162 0 26 3;
#X connect 163 0 34 1;
#X connect 164 0 23 0;
