#N canvas 0 0 1920 1052 12;
#X obj 888 184 cnv 19 220 270 empty empty 4\ Wave 20 12 0 12 #c7c6ff #404040 0;
#X obj 69 263 osc~;
#X obj 160 245 phasor~;
#X obj 375 283 phasor~;
#X obj 467 330 phasor~;
#X obj 467 408 *~ 2;
#X obj 376 379 *~ 2;
#X obj 378 439 +~;
#X obj 376 329 -~ 0.5;
#X obj 467 358 -~ 0.5;
#X obj 377 481 -~ 0.5;
#X msg 441 247 0;
#X obj 478 220 bng 15 250 50 0 empty empty empty 17 7 0 10 #fcfcfc #000000 #000000;
#X obj 375 404 clip~ 0 1;
#X obj 466 433 clip~ 0 1;
#X obj 464 280 * -1;
#X msg 516 278 0.5;
#X text 43 239 SIN;
#X text 277 274 SAW/RAMP;
#X text 508 175 TRI;
#X obj 620 287 phasor~;
#X obj 707 330 phasor~;
#X obj 707 408 *~ 2;
#X obj 616 379 *~ 2;
#X obj 618 439 +~;
#X obj 616 329 -~ 0.5;
#X obj 706 373 -~ 0.5;
#X obj 617 481 -~ 0.5;
#X msg 686 251 0;
#X obj 723 224 bng 15 250 50 0 empty empty empty 17 7 0 10 #fcfcfc #000000 #000000;
#X obj 615 404 clip~ 0 1;
#X obj 706 433 clip~ 0 1;
#X obj 709 284 * -1;
#X text 730 184 SQU;
#X obj 75 104 inlet;
#X text 47 64 Frecuencia;
#X obj 436 87 hradio 33 1 0 5 empty empty WAVEFORM 0 -10 0 12 #c6feff #000000 #000000 0;
#X obj 120 342 sel 0;
#X obj 460 178 sel 3;
#X obj 386 48 inlet;
#X msg 78 372 1;
#X msg 115 373 0;
#X msg 221 304 1;
#X msg 258 305 0;
#X obj 203 338 *~;
#X obj 110 175 f;
#X obj 206 198 f;
#X msg 454 478 1;
#X msg 491 479 0;
#X obj 377 515 *~;
#X obj 617 538 *~;
#X msg 671 508 1;
#X msg 708 509 0;
#X obj 55 401 *~ 1;
#X obj 678 181 sel 4;
#X obj 257 110 sel 1 2;
#X obj 84 755 outlet~;
#X obj 183 163 * -1;
#X obj 671 58 loadbang;
#X obj 671 82 bng 19 250 50 0 empty empty empty 0 -10 0 12 #fcfcfc #000000 #000000;
#X msg 671 106 1;
#X obj 670 130 tgl 19 0 empty empty empty 0 -10 0 12 #fcfcfc #000000 #000000 0 1;
#X obj 670 154 metro 50;
#X msg 761 282 0;
#X obj 919 417 4_wave, f 17;
#X floatatom 923 357 5 0 0 2 Freq - - 0;
#X obj 1006 207 vradio 37 1 0 5 empty empty empty 0 -10 0 12 #c6feff #000000 #000000 0;
#X text 1052 208 SIN;
#X text 1053 249 SAW;
#X text 1050 284 RAMP;
#X text 1054 324 TRI;
#X text 1055 362 SQU;
#X connect 1 0 53 0;
#X connect 2 0 44 0;
#X connect 3 0 8 0;
#X connect 4 0 9 0;
#X connect 5 0 14 0;
#X connect 6 0 13 0;
#X connect 7 0 10 0;
#X connect 8 0 6 0;
#X connect 9 0 5 0;
#X connect 10 0 49 0;
#X connect 11 0 3 1;
#X connect 12 0 11 0;
#X connect 12 0 16 0;
#X connect 13 0 7 0;
#X connect 14 0 7 1;
#X connect 15 0 4 0;
#X connect 16 0 4 1;
#X connect 20 0 25 0;
#X connect 21 0 26 0;
#X connect 22 0 31 0;
#X connect 23 0 30 0;
#X connect 24 0 27 0;
#X connect 25 0 23 0;
#X connect 26 0 22 0;
#X connect 27 0 50 0;
#X connect 28 0 20 1;
#X connect 29 0 28 0;
#X connect 29 0 63 0;
#X connect 30 0 24 0;
#X connect 31 0 24 1;
#X connect 32 0 21 0;
#X connect 34 0 1 0;
#X connect 34 0 45 1;
#X connect 34 0 57 0;
#X connect 34 0 3 0;
#X connect 34 0 15 0;
#X connect 34 0 20 0;
#X connect 34 0 32 0;
#X connect 36 0 37 0;
#X connect 36 0 38 0;
#X connect 36 0 55 0;
#X connect 36 0 54 0;
#X connect 37 0 40 0;
#X connect 37 1 41 0;
#X connect 38 0 47 0;
#X connect 38 1 48 0;
#X connect 39 0 36 0;
#X connect 40 0 53 1;
#X connect 41 0 53 1;
#X connect 42 0 44 1;
#X connect 43 0 44 1;
#X connect 44 0 56 0;
#X connect 45 0 2 0;
#X connect 46 0 2 0;
#X connect 47 0 49 1;
#X connect 48 0 49 1;
#X connect 49 0 56 0;
#X connect 50 0 56 0;
#X connect 51 0 50 1;
#X connect 52 0 50 1;
#X connect 53 0 56 0;
#X connect 54 0 51 0;
#X connect 54 1 52 0;
#X connect 55 0 42 0;
#X connect 55 0 45 0;
#X connect 55 1 42 0;
#X connect 55 1 46 0;
#X connect 55 2 43 0;
#X connect 57 0 2 0;
#X connect 57 0 46 1;
#X connect 58 0 59 0;
#X connect 59 0 60 0;
#X connect 60 0 61 0;
#X connect 61 0 62 0;
#X connect 62 0 12 0;
#X connect 62 0 29 0;
#X connect 63 0 21 1;
