#N canvas 0 0 1440 872 12;
#X obj 970 248 cnv 19 200 250 empty empty 5xOSC 20 12 0 12 #c7c6ff #404040 0;
#X obj 182 298 phasor~;
#X obj 375 297 phasor~;
#X obj 467 330 phasor~;
#X obj 467 408 *~ 2;
#X obj 376 379 *~ 2;
#X obj 378 439 +~;
#X obj 376 329 -~ 0.5;
#X obj 467 358 -~ 0.5;
#X obj 376 477 -~ 0.5;
#X msg 441 247 0;
#X obj 478 220 bng 15 250 50 0 empty empty empty 17 7 0 10 #fcfcfc #000000 #000000;
#X obj 375 404 clip~ 0 1;
#X obj 466 433 clip~ 0 1;
#X obj 471 296 * -1;
#X msg 516 278 0.5;
#X text 43 239 SIN;
#X text 277 274 SAW/RAMP;
#X text 731 180 TRI;
#X obj 614 292 phasor~;
#X obj 705 335 phasor~;
#X obj 707 408 *~ 2;
#X obj 616 379 *~ 2;
#X obj 618 439 +~;
#X obj 616 329 -~ 0.5;
#X obj 706 373 -~ 0.5;
#X obj 617 481 -~ 0.5;
#X msg 686 251 0;
#X obj 786 244 bng 15 250 50 0 empty empty empty 17 7 0 10 #fcfcfc #000000 #000000;
#X obj 615 404 clip~ 0 1;
#X obj 706 433 clip~ 0 1;
#X obj 708 302 * -1;
#X text 507 179 SQU;
#X text 47 64 Frecuencia;
#X obj 448 110 hradio 33 1 0 5 empty empty WAVEFORM 0 -10 0 12 #c6feff #000000 #000000 0;
#X obj 120 342 sel 0;
#X obj 460 178 sel 3;
#X obj 386 48 inlet;
#X msg 78 372 1;
#X msg 115 373 0;
#X msg 255 340 1;
#X msg 292 341 0;
#X obj 201 404 *~;
#X obj 185 172 f;
#X msg 454 478 1;
#X msg 491 479 0;
#X obj 379 529 *~;
#X obj 622 586 *~;
#X msg 671 508 1;
#X msg 708 509 0;
#X obj 678 181 sel 4;
#X obj 323 81 sel 1 2;
#X obj 68 815 outlet~;
#X obj 197 146 * -1;
#X msg 761 282 0;
#X obj 1067 266 vradio 37 1 0 5 empty empty empty 0 -10 0 12 #c6feff #000000 #000000 0;
#X text 1114 268 SIN;
#X text 1115 309 SAW;
#X text 1112 344 RAMP;
#X text 1346 210 5xOSC;
#X text 1223 469 Salida es de audio;
#X text 1205 273 Sin entrada de audio \, sólo recibe frecuencia y forma de onda;
#X obj 203 103 bng 19 250 50 0 empty empty empty 0 -10 0 12 #fcfcfc #000000 #000000;
#X obj 638 210 f, f 8;
#X obj 246 129 bng 19 250 50 0 empty empty empty 0 -10 0 12 #fcfcfc #000000 #000000;
#X obj 320 768 spigot;
#X msg 381 730 1;
#X msg 425 732 0;
#X obj 424 769 spigot;
#X msg 489 734 1;
#X msg 533 736 0;
#X msg 200 64 0;
#X msg 243 76 0.35;
#X text 1116 384 SQU;
#X text 1117 422 TRI;
#X obj 197 347 -~ 0.5;
#X obj 617 505 *~ 2;
#X obj 376 501 *~ 2;
#X obj 197 371 *~ 2;
#X text 1087 470 Audio Out;
#X text 976 434 Freq/NoteIn;
#X obj 1013 284 vsl 33 162 0 1 0 0 empty empty Freq 0 -9 0 12 #c6feff #000000 #000000 0 1;
#X obj 1005 464 5xLFO, f 9;
#X obj 119 140 clip 0 20;
#X obj 86 45 inlet;
#X obj 698 682 loadbang;
#X obj 698 706 bng 19 250 50 0 empty empty empty 0 -10 0 12 #fcfcfc #000000 #000000;
#X msg 698 730 1;
#X obj 698 754 metro 50;
#X obj 629 794 snapshot~;
#X floatatom 761 797 11 0 0 0 - - - 0;
#X obj 764 722 tgl 19 0 empty empty empty 0 -10 0 12 #fcfcfc #000000 #000000 0 1;
#X obj 73 89 expr $f1/1 * 20;
#X floatatom 72 114 5 0 0 0 - - - 0;
#X obj 764 886 outlet;
#X obj 761 820 * -1;
#X obj 826 127 r m1;
#X obj 862 123 bng 19 250 50 0 empty empty empty 0 -10 0 12 #fcfcfc #000000 #000000;
#X msg 761 34 0;
#X obj 56 318 osc~;
#X obj 60 438 *~;
#X obj 761 844 abs;
#X connect 1 0 75 0;
#X connect 2 0 7 0;
#X connect 3 0 8 0;
#X connect 4 0 13 0;
#X connect 5 0 12 0;
#X connect 6 0 9 0;
#X connect 7 0 5 0;
#X connect 8 0 4 0;
#X connect 9 0 77 0;
#X connect 10 0 2 1;
#X connect 11 0 10 0;
#X connect 11 0 15 0;
#X connect 12 0 6 0;
#X connect 13 0 6 1;
#X connect 14 0 3 0;
#X connect 15 0 3 1;
#X connect 19 0 24 0;
#X connect 20 0 25 0;
#X connect 21 0 30 0;
#X connect 22 0 29 0;
#X connect 23 0 26 0;
#X connect 24 0 22 0;
#X connect 25 0 21 0;
#X connect 26 0 76 0;
#X connect 27 0 19 1;
#X connect 28 0 27 0;
#X connect 28 0 54 0;
#X connect 29 0 23 0;
#X connect 30 0 23 1;
#X connect 31 0 20 0;
#X connect 34 0 35 0;
#X connect 34 0 36 0;
#X connect 34 0 51 0;
#X connect 34 0 50 0;
#X connect 34 0 11 0;
#X connect 34 0 28 0;
#X connect 35 0 38 0;
#X connect 35 1 39 0;
#X connect 36 0 44 0;
#X connect 36 1 45 0;
#X connect 37 0 34 0;
#X connect 38 0 100 1;
#X connect 39 0 100 1;
#X connect 40 0 42 1;
#X connect 41 0 42 1;
#X connect 42 0 52 0;
#X connect 42 0 89 0;
#X connect 43 0 1 0;
#X connect 44 0 46 1;
#X connect 45 0 46 1;
#X connect 46 0 52 0;
#X connect 46 0 89 0;
#X connect 47 0 52 0;
#X connect 47 0 89 0;
#X connect 48 0 47 1;
#X connect 49 0 47 1;
#X connect 50 0 48 0;
#X connect 50 1 49 0;
#X connect 51 0 62 0;
#X connect 51 0 66 0;
#X connect 51 0 70 0;
#X connect 51 0 71 0;
#X connect 51 0 40 0;
#X connect 51 1 40 0;
#X connect 51 1 64 0;
#X connect 51 1 67 0;
#X connect 51 1 69 0;
#X connect 51 1 72 0;
#X connect 51 2 41 0;
#X connect 51 2 62 0;
#X connect 53 0 43 1;
#X connect 53 0 68 0;
#X connect 54 0 20 1;
#X connect 55 0 82 1;
#X connect 62 0 63 0;
#X connect 63 0 1 0;
#X connect 63 0 2 0;
#X connect 63 0 14 0;
#X connect 63 0 19 0;
#X connect 63 0 31 0;
#X connect 63 0 99 0;
#X connect 64 0 43 0;
#X connect 65 0 1 0;
#X connect 66 0 65 1;
#X connect 67 0 65 1;
#X connect 68 0 1 0;
#X connect 69 0 68 1;
#X connect 70 0 68 1;
#X connect 71 0 1 1;
#X connect 72 0 1 1;
#X connect 75 0 78 0;
#X connect 76 0 47 0;
#X connect 77 0 46 0;
#X connect 78 0 42 0;
#X connect 83 0 65 0;
#X connect 83 0 53 0;
#X connect 83 0 2 0;
#X connect 83 0 14 0;
#X connect 83 0 19 0;
#X connect 83 0 31 0;
#X connect 83 0 63 1;
#X connect 83 0 99 0;
#X connect 84 0 92 0;
#X connect 85 0 86 0;
#X connect 86 0 87 0;
#X connect 87 0 88 0;
#X connect 88 0 89 0;
#X connect 89 0 90 0;
#X connect 90 0 95 0;
#X connect 91 0 88 0;
#X connect 92 0 93 0;
#X connect 93 0 83 0;
#X connect 95 0 101 0;
#X connect 96 0 97 0;
#X connect 97 0 98 0;
#X connect 98 0 15 0;
#X connect 98 0 10 0;
#X connect 98 0 54 0;
#X connect 98 0 27 0;
#X connect 99 0 100 0;
#X connect 100 0 52 0;
#X connect 100 0 89 0;
#X connect 101 0 94 0;
