#N canvas 0 28 1440 872 12;
#X obj 970 248 cnv 19 200 250 empty empty 5xOSC 20 12 0 12 #c7c6ff #404040 0;
#X obj 69 263 osc~;
#X obj 148 262 phasor~;
#X obj 375 297 phasor~;
#X obj 467 330 phasor~;
#X obj 467 408 *~ 2;
#X obj 376 379 *~ 2;
#X obj 378 439 +~;
#X obj 376 329 -~ 0.5;
#X obj 467 358 -~ 0.5;
#X obj 376 477 -~ 0.5;
#X msg 441 247 0;
#X obj 478 220 bng 15 250 50 0 empty empty empty 17 7 0 10 #fcfcfc #000000 #000000;
#X obj 375 404 clip~ 0 1;
#X obj 466 433 clip~ 0 1;
#X obj 470 298 * -1;
#X msg 516 278 0.5;
#X text 43 239 SIN;
#X text 277 274 SAW/RAMP;
#X text 731 180 TRI;
#X obj 614 292 phasor~;
#X obj 705 335 phasor~;
#X obj 707 408 *~ 2;
#X obj 616 379 *~ 2;
#X obj 618 439 +~;
#X obj 616 329 -~ 0.5;
#X obj 706 373 -~ 0.5;
#X obj 617 481 -~ 0.5;
#X msg 686 251 0;
#X obj 786 244 bng 15 250 50 0 empty empty empty 17 7 0 10 #fcfcfc #000000 #000000;
#X obj 615 404 clip~ 0 1;
#X obj 706 433 clip~ 0 1;
#X obj 708 302 * -1;
#X text 507 179 SQU;
#X obj 79 110 inlet;
#X text 47 64 Frecuencia;
#X obj 448 110 hradio 33 1 0 5 empty empty WAVEFORM 0 -10 0 12 #c6feff #000000 #000000 0;
#X obj 120 342 sel 0;
#X obj 460 178 sel 3;
#X obj 386 48 inlet;
#X msg 78 372 1;
#X msg 115 373 0;
#X msg 221 304 1;
#X msg 258 305 0;
#X obj 167 368 *~;
#X obj 185 172 f;
#X msg 454 478 1;
#X msg 491 479 0;
#X obj 376 559 *~;
#X obj 622 586 *~;
#X msg 671 508 1;
#X msg 708 509 0;
#X obj 55 401 *~ 1;
#X obj 678 181 sel 4;
#X obj 323 81 sel 1 2;
#X obj 84 755 outlet~;
#X obj 193 144 * -1;
#X msg 761 282 0;
#X floatatom 989 381 5 0 0 2 Freq - - 0;
#X obj 1068 267 vradio 37 1 0 5 empty empty empty 0 -10 0 12 #c6feff #000000 #000000 0;
#X text 1114 268 SIN;
#X text 1115 309 SAW;
#X text 1112 344 RAMP;
#X obj 1005 464 5xOSC, f 9;
#X text 1346 210 5xOSC;
#X text 1223 469 Salida es de audio;
#X text 1205 273 Sin entrada de audio \, sólo recibe frecuencia y forma de onda;
#X obj 203 103 bng 19 250 50 0 empty empty empty 0 -10 0 12 #fcfcfc #000000 #000000;
#X obj 638 210 f, f 8;
#X obj 246 129 bng 19 250 50 0 empty empty empty 0 -10 0 12 #fcfcfc #000000 #000000;
#X obj 335 786 spigot;
#X msg 381 730 1;
#X msg 425 732 0;
#X obj 443 790 spigot;
#X msg 489 734 1;
#X msg 533 736 0;
#X msg 200 64 0;
#X msg 243 76 0.35;
#X text 1116 384 SQU;
#X text 1117 422 TRI;
#X obj 163 311 -~ 0.5;
#X obj 617 505 *~ 2;
#X obj 376 501 *~ 2;
#X obj 163 335 *~ 2;
#X obj 283 42 inlet;
#X text 186 35 phase;
#X connect 1 0 52 0;
#X connect 2 0 80 0;
#X connect 3 0 8 0;
#X connect 4 0 9 0;
#X connect 5 0 14 0;
#X connect 6 0 13 0;
#X connect 7 0 10 0;
#X connect 8 0 6 0;
#X connect 9 0 5 0;
#X connect 10 0 82 0;
#X connect 11 0 3 1;
#X connect 12 0 11 0;
#X connect 12 0 16 0;
#X connect 13 0 7 0;
#X connect 14 0 7 1;
#X connect 15 0 4 0;
#X connect 16 0 4 1;
#X connect 20 0 25 0;
#X connect 21 0 26 0;
#X connect 22 0 31 0;
#X connect 23 0 30 0;
#X connect 24 0 27 0;
#X connect 25 0 23 0;
#X connect 26 0 22 0;
#X connect 27 0 81 0;
#X connect 28 0 20 1;
#X connect 29 0 28 0;
#X connect 29 0 57 0;
#X connect 30 0 24 0;
#X connect 31 0 24 1;
#X connect 32 0 21 0;
#X connect 34 0 1 0;
#X connect 34 0 56 0;
#X connect 34 0 3 0;
#X connect 34 0 15 0;
#X connect 34 0 20 0;
#X connect 34 0 32 0;
#X connect 34 0 68 1;
#X connect 34 0 70 0;
#X connect 36 0 37 0;
#X connect 36 0 38 0;
#X connect 36 0 54 0;
#X connect 36 0 53 0;
#X connect 36 0 12 0;
#X connect 36 0 29 0;
#X connect 37 0 40 0;
#X connect 37 1 41 0;
#X connect 38 0 46 0;
#X connect 38 1 47 0;
#X connect 39 0 36 0;
#X connect 40 0 52 1;
#X connect 41 0 52 1;
#X connect 42 0 44 1;
#X connect 43 0 44 1;
#X connect 44 0 55 0;
#X connect 45 0 2 0;
#X connect 46 0 48 1;
#X connect 47 0 48 1;
#X connect 48 0 55 0;
#X connect 49 0 55 0;
#X connect 50 0 49 1;
#X connect 51 0 49 1;
#X connect 52 0 55 0;
#X connect 53 0 50 0;
#X connect 53 1 51 0;
#X connect 54 0 42 0;
#X connect 54 0 67 0;
#X connect 54 0 71 0;
#X connect 54 0 75 0;
#X connect 54 0 76 0;
#X connect 54 1 42 0;
#X connect 54 1 69 0;
#X connect 54 1 72 0;
#X connect 54 1 74 0;
#X connect 54 1 77 0;
#X connect 54 2 43 0;
#X connect 54 2 67 0;
#X connect 56 0 45 1;
#X connect 56 0 73 0;
#X connect 57 0 21 1;
#X connect 58 0 63 0;
#X connect 59 0 63 1;
#X connect 67 0 68 0;
#X connect 68 0 2 0;
#X connect 68 0 1 0;
#X connect 68 0 3 0;
#X connect 68 0 15 0;
#X connect 68 0 20 0;
#X connect 68 0 32 0;
#X connect 69 0 45 0;
#X connect 70 0 2 0;
#X connect 71 0 70 1;
#X connect 72 0 70 1;
#X connect 73 0 2 0;
#X connect 74 0 73 1;
#X connect 75 0 73 1;
#X connect 76 0 2 1;
#X connect 77 0 2 1;
#X connect 80 0 83 0;
#X connect 81 0 49 0;
#X connect 82 0 48 0;
#X connect 83 0 44 0;
#X connect 84 0 2 1;
