#N canvas 0 28 1440 872 12;
#X obj 269 484 ar_env;
#X floatatom 322 452 5 0 0 0 - - - 0;
#X floatatom 371 452 5 0 0 0 - - - 0;
#X obj 285 454 bng 19 250 50 0 empty empty empty 0 -10 0 12 #fcfcfc #000000 #000000;
#X obj 272 408 sig~;
#X obj 197 521 metro 50;
#X obj 269 508 snapshot~;
#X floatatom 269 532 5 0 0 0 - - - 0;
#X floatatom 272 367 5 0 0 0 - - - 0;
#X obj 200 439 loadbang;
#X obj 200 463 bng 19 250 50 0 empty empty empty 0 -10 0 12 #fcfcfc #000000 #000000;
#X msg 200 487 1;
#X obj 316 588 bob~, f 17;
#X obj 464 587 vcf~, f 18;
#X obj 404 530 clip 0 4;
#X obj 566 540 clip 0 12;
#X obj 148 211 inlet~;
#X obj 316 678 *~ 1;
#X obj 464 673 *~;
#X obj 370 646 sel 0;
#X msg 370 694 1;
#X msg 405 693 0;
#X obj 276 240 inlet;
#X text 283 217 Freq;
#X text 144 178 Audio;
#X obj 440 241 inlet;
#X text 441 211 Trigger;
#X obj 546 246 inlet;
#X text 550 225 Attk;
#X obj 622 226 inlet;
#X text 621 201 Rel;
#X obj 339 243 inlet;
#X text 342 220 reso;
#X obj 737 227 inlet;
#X text 725 197 selector;
#X obj 536 641 sel 1;
#X msg 536 665 1;
#X msg 576 665 0;
#X obj 353 746 outlet~;
#X connect 0 0 6 0;
#X connect 1 0 0 2;
#X connect 2 0 0 3;
#X connect 3 0 0 1;
#X connect 4 0 0 0;
#X connect 5 0 6 0;
#X connect 6 0 7 0;
#X connect 7 0 12 1;
#X connect 7 0 13 1;
#X connect 8 0 4 0;
#X connect 9 0 10 0;
#X connect 10 0 11 0;
#X connect 11 0 5 0;
#X connect 12 0 17 0;
#X connect 13 0 18 0;
#X connect 14 0 12 2;
#X connect 15 0 13 2;
#X connect 16 0 12 0;
#X connect 16 0 13 0;
#X connect 17 0 38 0;
#X connect 18 0 38 0;
#X connect 19 0 20 0;
#X connect 19 1 21 0;
#X connect 20 0 17 1;
#X connect 21 0 17 1;
#X connect 22 0 8 0;
#X connect 25 0 3 0;
#X connect 27 0 1 0;
#X connect 29 0 2 0;
#X connect 31 0 14 0;
#X connect 31 0 15 0;
#X connect 33 0 19 0;
#X connect 35 0 36 0;
#X connect 35 1 37 0;
#X connect 36 0 18 1;
#X connect 37 0 18 1;
