#N canvas 0 25 1280 747 12;
#X obj 36 101 osc~;
#X floatatom 37 63 5 0 0 0 - - - 0;
#X text 92 31 Freq fundamental, f 18;
#X text 477 21 armonicos;
#X obj 36 35 inlet;
#X obj 250 161 *;
#X obj 247 106 inlet;
#X obj 44 473 outlet~;
#X obj 82 100 phasor~;
#X obj 36 141 *~ 1;
#X obj 82 140 *~;
#X obj 154 97 inlet;
#X obj 154 121 sel 0;
#X msg 155 175 1;
#X msg 191 175 0;
#X msg 156 200 1;
#X msg 192 200 0;
#X obj 247 130 / 100;
#X obj 252 203 osc~;
#X obj 298 202 phasor~;
#X obj 252 243 *~ 1;
#X obj 298 242 *~;
#X obj 313 53 inlet;
#X obj 313 77 sel 0;
#X msg 314 131 1;
#X msg 350 131 0;
#X msg 315 156 1;
#X msg 351 156 0;
#X obj 263 313 *~;
#X obj 303 288 inlet;
#X obj 414 159 *;
#X obj 411 104 inlet;
#X obj 411 128 / 100;
#X obj 416 201 osc~;
#X obj 462 200 phasor~;
#X obj 416 241 *~ 1;
#X obj 462 240 *~;
#X obj 478 51 inlet;
#X obj 478 75 sel 0;
#X msg 479 129 1;
#X msg 515 129 0;
#X msg 480 154 1;
#X msg 516 154 0;
#X obj 427 311 *~;
#X obj 467 286 inlet;
#X obj 580 158 *;
#X obj 577 103 inlet;
#X obj 577 127 / 100;
#X obj 582 200 osc~;
#X obj 628 199 phasor~;
#X obj 582 240 *~ 1;
#X obj 628 239 *~;
#X obj 644 50 inlet;
#X obj 644 74 sel 0;
#X msg 645 128 1;
#X msg 681 128 0;
#X msg 646 153 1;
#X msg 682 153 0;
#X obj 593 310 *~;
#X obj 633 285 inlet;
#X obj 744 156 *;
#X obj 741 101 inlet;
#X obj 741 125 / 100;
#X obj 746 198 osc~;
#X obj 792 197 phasor~;
#X obj 746 238 *~ 1;
#X obj 792 237 *~;
#X obj 808 48 inlet;
#X obj 808 72 sel 0;
#X msg 809 126 1;
#X msg 845 126 0;
#X msg 810 151 1;
#X msg 846 151 0;
#X obj 757 308 *~;
#X obj 797 283 inlet;
#X obj 916 151 *;
#X obj 913 96 inlet;
#X obj 913 120 / 100;
#X obj 918 193 osc~;
#X obj 964 192 phasor~;
#X obj 918 233 *~ 1;
#X obj 964 232 *~;
#X obj 980 43 inlet;
#X obj 980 67 sel 0;
#X msg 981 121 1;
#X msg 1017 121 0;
#X msg 982 146 1;
#X msg 1018 146 0;
#X obj 929 303 *~;
#X obj 969 278 inlet;
#X obj 44 441 *~ 1;
#X obj 33 538 cnv 19 680 186 empty empty empty 20 12 0 12 #e0e0e0 #404040 0;
#X obj 592 614 cnv 19 110 85 empty empty empty 20 12 0 12 #c7c6ff #404040 0;
#X obj 244 613 cnv 19 110 85 empty empty empty 20 12 0 12 #c7c6ff #404040 0;
#X obj 476 613 cnv 19 110 85 empty empty empty 20 12 0 12 #c7c6ff #404040 0;
#X obj 360 613 cnv 19 110 85 empty empty empty 20 12 0 12 #c7c6ff #404040 0;
#X obj 128 613 cnv 19 110 85 empty empty empty 20 12 0 12 #c7c6ff #404040 0;
#X obj 51 700 aditiva, f 91;
#X floatatom 51 626 3 0 0 2 Freq - - 0;
#X obj 91 573 hradio 30 1 0 2 empty empty OSC\ \ \ SAW 0 -10 0 10 #c6feff #000000 #000000 0;
#X obj 170 630 vsl 19 62 0 1 0 0 empty empty 1 0 -9 0 12 #c6feff #000000 #000000 0 1;
#X floatatom 132 676 3 0 100 2 f\ 1 - - 0;
#X obj 208 657 vradio 19 1 0 2 empty empty Wave 0 -10 0 12 #c6feff #000000 #000000 0;
#X obj 287 632 vsl 19 62 0 1 0 0 empty empty 2 0 -9 0 12 #c6feff #000000 #000000 0 1;
#X floatatom 249 677 3 0 100 2 f\ 2 - - 0;
#X obj 325 658 vradio 19 1 0 2 empty empty Wave 0 -10 0 12 #c6feff #000000 #000000 0;
#X obj 402 633 vsl 19 62 0 1 0 0 empty empty 3 0 -9 0 12 #c6feff #000000 #000000 0 1;
#X floatatom 365 678 3 0 100 2 f\ 3 - - 0;
#X obj 440 659 vradio 19 1 0 2 empty empty Wave 0 -10 0 12 #c6feff #000000 #000000 0;
#X obj 519 632 vsl 19 62 0 1 0 0 empty empty 4 0 -9 0 12 #c6feff #000000 #000000 0 1;
#X floatatom 481 678 3 0 100 2 f\ 4 - - 0;
#X obj 557 657 vradio 19 1 0 2 empty empty Wave 0 -10 0 12 #c6feff #000000 #000000 0;
#X obj 635 631 vsl 19 62 0 1 0 0 empty empty 5 0 -9 0 12 #c6feff #000000 #000000 0 1;
#X floatatom 597 678 3 0 100 2 f\ 5 - - 0;
#X obj 673 657 vradio 19 1 0 2 empty empty Wave 0 -10 0 12 #c6feff #000000 #000000 0;
#X text 379 577 Armónicos;
#X text 876 504 Sintetizador aditivo de 5 armónicos;
#X text 796 614 Cada armónico consta de una caja numérica (frecuencia) \, un slider vertical (amplitud) y un selector (osc/phasor);
#X connect 0 0 9 0;
#X connect 1 0 0 0;
#X connect 1 0 5 0;
#X connect 1 0 8 0;
#X connect 1 0 30 0;
#X connect 1 0 45 0;
#X connect 1 0 60 0;
#X connect 1 0 75 0;
#X connect 4 0 1 0;
#X connect 5 0 18 0;
#X connect 5 0 19 0;
#X connect 6 0 17 0;
#X connect 8 0 10 0;
#X connect 9 0 90 0;
#X connect 10 0 90 0;
#X connect 11 0 12 0;
#X connect 12 0 13 0;
#X connect 12 0 16 0;
#X connect 12 1 14 0;
#X connect 12 1 15 0;
#X connect 13 0 9 1;
#X connect 14 0 9 1;
#X connect 15 0 10 1;
#X connect 17 0 5 1;
#X connect 18 0 20 0;
#X connect 19 0 21 0;
#X connect 20 0 28 0;
#X connect 21 0 28 0;
#X connect 22 0 23 0;
#X connect 23 0 24 0;
#X connect 23 0 27 0;
#X connect 23 1 25 0;
#X connect 23 1 26 0;
#X connect 24 0 20 1;
#X connect 25 0 20 1;
#X connect 26 0 21 1;
#X connect 28 0 90 0;
#X connect 29 0 28 1;
#X connect 30 0 33 0;
#X connect 30 0 34 0;
#X connect 31 0 32 0;
#X connect 32 0 30 1;
#X connect 33 0 35 0;
#X connect 34 0 36 0;
#X connect 35 0 43 0;
#X connect 36 0 43 0;
#X connect 37 0 38 0;
#X connect 38 0 39 0;
#X connect 38 0 42 0;
#X connect 38 1 40 0;
#X connect 38 1 41 0;
#X connect 39 0 35 1;
#X connect 40 0 35 1;
#X connect 41 0 36 1;
#X connect 43 0 90 0;
#X connect 44 0 43 1;
#X connect 45 0 48 0;
#X connect 45 0 49 0;
#X connect 46 0 47 0;
#X connect 47 0 45 1;
#X connect 48 0 50 0;
#X connect 49 0 51 0;
#X connect 50 0 58 0;
#X connect 51 0 58 0;
#X connect 52 0 53 0;
#X connect 53 0 54 0;
#X connect 53 0 57 0;
#X connect 53 1 55 0;
#X connect 53 1 56 0;
#X connect 54 0 50 1;
#X connect 55 0 50 1;
#X connect 56 0 51 1;
#X connect 58 0 90 0;
#X connect 59 0 58 1;
#X connect 60 0 63 0;
#X connect 60 0 64 0;
#X connect 61 0 62 0;
#X connect 62 0 60 1;
#X connect 63 0 65 0;
#X connect 64 0 66 0;
#X connect 65 0 73 0;
#X connect 66 0 73 0;
#X connect 67 0 68 0;
#X connect 68 0 69 0;
#X connect 68 0 72 0;
#X connect 68 1 70 0;
#X connect 68 1 71 0;
#X connect 69 0 65 1;
#X connect 70 0 65 1;
#X connect 71 0 66 1;
#X connect 73 0 90 0;
#X connect 74 0 73 1;
#X connect 75 0 78 0;
#X connect 75 0 79 0;
#X connect 76 0 77 0;
#X connect 77 0 75 1;
#X connect 78 0 80 0;
#X connect 79 0 81 0;
#X connect 80 0 88 0;
#X connect 81 0 88 0;
#X connect 82 0 83 0;
#X connect 83 0 84 0;
#X connect 83 0 87 0;
#X connect 83 1 85 0;
#X connect 83 1 86 0;
#X connect 84 0 80 1;
#X connect 85 0 80 1;
#X connect 86 0 81 1;
#X connect 88 0 90 0;
#X connect 89 0 88 1;
#X connect 90 0 7 0;
#X connect 98 0 97 0;
#X connect 99 0 97 1;
#X connect 100 0 97 3;
#X connect 101 0 97 2;
#X connect 102 0 97 4;
#X connect 103 0 97 6;
#X connect 104 0 97 5;
#X connect 105 0 97 7;
#X connect 106 0 97 9;
#X connect 107 0 97 8;
#X connect 108 0 97 10;
#X connect 109 0 97 12;
#X connect 110 0 97 11;
#X connect 111 0 97 13;
#X connect 112 0 97 15;
#X connect 113 0 97 14;
#X connect 114 0 97 16;
