#N canvas 0 28 1440 872 12;
#X msg 889 468 0 \, 1 \$1;
#X obj 889 425 f;
#X obj 944 424 f;
#X floatatom 1038 425 5 0 0 0 - - - 0;
#X floatatom 887 517 5 0 0 0 - - - 0;
#X floatatom 945 519 5 0 0 0 - - - 0;
#X obj 887 540 sel 1;
#X obj 845 588 bng 15 250 50 0 empty empty empty 17 7 0 10 #fcfcfc #000000 #000000;
#X msg 952 465 1 \, 0 \$1;
#X floatatom 896 619 5 0 0 0 - - - 0;
#X obj 946 586 clip \$1 1;
#X obj 1143 528 line;
#X floatatom 945 622 5 0 0 0 - - - 0;
#X obj 945 542 sel 0;
#X floatatom 1197 420 5 0 0 0 - - - 0;
#X obj 1197 396 % 10000;
#X obj 1139 465 f;
#X obj 1139 440 bng 15 250 50 0 empty empty empty 17 7 0 10 #fcfcfc #000000 #000000;
#X obj 1039 403 / 100;
#X floatatom 1013 624 5 0 0 0 - - - 0;
#X msg 1141 503 1 \, 0 \$1;
#X msg 1141 565 0;
#X obj 1107 595 clip \$2 \$3;
#X obj 889 492 line;
#X obj 945 495 line;
#X obj 1197 365 inlet;
#X obj 1039 353 inlet;
#X obj 894 361 inlet;
#X obj 952 361 inlet;
#X obj 719 389 inlet;
#X text 905 331 a;
#X text 965 333 d;
#X text 1049 327 s;
#X text 1205 334 r;
#X text 654 393 Gate;
#X obj 927 695 outlet;
#X obj 709 66 cnv 19 266 166 empty empty empty 20 12 0 12 #e0e0e0 #404040 0;
#X obj 937 99 vsl 19 90 0 8000 0 0 r empty R 0 -9 0 10 #00faff #000000 #000000 0 1;
#X obj 829 99 vsl 19 90 0 2000 0 0 a empty A 0 -9 0 10 #00faff #000000 #000000 0 1;
#X obj 866 99 vsl 19 90 0 6000 0 0 d empty D 0 -9 0 10 #00faff #000000 #000000 0 1;
#X obj 902 99 vsl 19 90 0.1 10 1 0 s empty S 0 -9 0 10 #00faff #000000 #000000 0 1;
#X obj 731 154 bng 33 250 50 0 empty empty Gate -10 -17 0 10 #00ff04 #000000 #000000;
#X obj 720 202 adsr_env, f 33;
#X connect 0 0 23 0;
#X connect 1 0 0 0;
#X connect 2 0 8 0;
#X connect 3 0 10 1;
#X connect 3 0 22 2;
#X connect 4 0 6 0;
#X connect 4 0 9 0;
#X connect 5 0 10 0;
#X connect 5 0 13 0;
#X connect 6 0 7 0;
#X connect 7 0 2 0;
#X connect 8 0 24 0;
#X connect 9 0 35 0;
#X connect 10 0 12 0;
#X connect 11 0 22 0;
#X connect 12 0 35 0;
#X connect 13 0 17 0;
#X connect 14 0 16 1;
#X connect 15 0 14 0;
#X connect 16 0 20 0;
#X connect 17 0 16 0;
#X connect 18 0 3 0;
#X connect 19 0 35 0;
#X connect 20 0 11 0;
#X connect 21 0 22 1;
#X connect 22 0 19 0;
#X connect 23 0 4 0;
#X connect 24 0 5 0;
#X connect 25 0 15 0;
#X connect 26 0 18 0;
#X connect 27 0 1 1;
#X connect 28 0 2 1;
#X connect 29 0 1 0;
#X connect 37 0 42 4;
#X connect 38 0 42 1;
#X connect 39 0 42 2;
#X connect 40 0 42 3;
#X connect 41 0 42 0;
