#N canvas 0 28 1440 872 12;
#X obj 262 346 f, f 5;
#X floatatom 262 372 5 0 0 0 - - - 0;
#X msg 262 401 0 \, 1 \$1;
#X msg 364 407 1 \, 0 \$1, f 13;
#X obj 262 442 line, f 8;
#X obj 262 484 select 1, f 14;
#X obj 364 371 f;
#X obj 364 439 line, f 7;
#X floatatom 320 521 5 0 0 0 - - - 0;
#X obj 512 217 inlet;
#X obj 642 222 inlet;
#X msg 320 544 \$1 20;
#X obj 320 568 line~;
#X obj 127 674 outlet~;
#X text 513 172 Ataque;
#X text 632 170 Liberación;
#X obj 130 125 inlet~;
#X obj 128 302 *~;
#X obj 359 207 inlet;
#X text 331 179 Entrada de bang;
#X text 211 673 Salida de audio;
#X text 104 92 Inlet de audio;
#X text 789 298 Podemos utilizar los siguientes objetos para conectar a las entradas correspondientes;
#X obj 805 437 cnv 19 156 140 empty empty empty 20 12 0 12 #e0e0e0 #404040 0;
#X obj 881 453 vsl 24 88 0 5000 0 0 empty empty A 0 -9 0 10 #00faff #000000 #000000 0 1;
#X obj 838 509 bng 26 250 50 0 empty empty Bang! -2 -11 0 12 #c6ffc7 #000000 #000000;
#X obj 921 454 vsl 25 88 0 1270 0 0 empty empty R 0 -9 0 10 #00faff #000000 #000000 0 1;
#X obj 809 556 ar_env, f 20;
#X connect 0 0 1 0;
#X connect 1 0 2 0;
#X connect 2 0 4 0;
#X connect 3 0 7 0;
#X connect 4 0 5 0;
#X connect 4 0 8 0;
#X connect 5 0 6 0;
#X connect 6 0 3 0;
#X connect 7 0 8 0;
#X connect 8 0 11 0;
#X connect 9 0 0 1;
#X connect 10 0 6 1;
#X connect 11 0 12 0;
#X connect 12 0 17 1;
#X connect 16 0 17 0;
#X connect 17 0 13 0;
#X connect 18 0 0 0;
#X connect 24 0 27 2;
#X connect 25 0 27 1;
#X connect 26 0 27 3;
