#N canvas 4 4 1920 1037 12;
#X obj 71 50 metronomos;
#X floatatom 20 103 8 0 0 1 BPM - bpm 0;
#X obj 21 26 tgl 40 0 gtc empty ON/OFF 0 -10 0 12 #c6feff #000000 #000000 0 1;
#X obj 639 3 cnv 19 600 250 empty empty Z_KICK 20 12 0 12 #c7c6ff #404040 0;
#X obj 664 156 z_kick;
#X obj 891 134 vsl 29 100 0 300 0 0 kd empty decay 0 -9 0 12 #c6feff #000000 #000000 0 1;
#X obj 943 135 vsl 29 100 0 500 0 0 kp empty pitch 0 -9 0 12 #c6feff #000000 #000000 0 1;
#X obj 994 134 vsl 29 100 0 100 0 0 ks empty scale 0 -9 0 12 #c6feff #000000 #000000 0 1;
#X obj 1045 134 vsl 29 100 0 100 0 0 ksine empty sine 0 -9 0 12 #c6feff #000000 #000000 0 1;
#X obj 664 180 *~ 1;
#X obj 664 217 dac~;
#X obj 848 56 random 300;
#X obj 932 58 random 500;
#X obj 1013 58 random 100;
#X obj 1097 58 random 100;
#X obj 1183 38 bng 19 250 50 0 empty krand_timbre random 0 -10 0 12 #c6feff #000000 #000000;
#X obj 723 71 vsl 19 162 0 1 0 0 kvol empty empty 0 -9 0 12 #00faff #000000 #000000 0 1;
#X obj 762 130 vsl 23 102 0 300 0 0 khip empty HIP 0 -9 0 12 #c6feff #000000 #000000 0 1;
#X obj 816 131 vsl 23 102 0 12000 0 0 klop empty LOP 0 -9 0 12 #c6feff #000000 #000000 0 1;
#X floatatom 772 52 5 0 0 2 Dynamism - krand 0;
#X obj 278 2 cnv 19 350 250 empty empty Z_BASS 20 12 0 12 #c7c6ff #404040 0;
#X obj 292 157 z_bass;
#X obj 293 183 *~ 1;
#X obj 293 220 dac~;
#X floatatom 294 117 5 0 0 2 Pitch - bnote 0;
#X obj 435 32 hradio 23 1 0 6 bpitchmod empty Pitch\ Mod 0 -10 0 12 #c6feff #000000 #000000 0;
#X obj 410 72 tgl 23 0 bt1 empty empty 0 -10 0 12 #c6feff #000000 #000000 0 1;
#X obj 442 72 tgl 25 0 bt2 empty empty 0 -10 0 12 #00faff #000000 #000000 0 1;
#X obj 476 72 tgl 23 0 bt3 empty empty 0 -10 0 12 #c6feff #000000 #000000 0 1;
#X obj 508 72 tgl 23 0 bt4 empty empty 0 -10 0 12 #c6feff #000000 #000000 0 1;
#X obj 542 73 tgl 25 0 bt5 empty empty 0 -10 0 12 #00faff #000000 #000000 0 1;
#X obj 574 73 tgl 23 0 bt6 empty empty 0 -10 0 12 #c6feff #000000 #000000 0 1;
#X obj 411 129 vsl 23 102 0 300 0 0 bhip empty HIP 0 -9 0 12 #c6feff #000000 #000000 0 1;
#X obj 465 130 vsl 23 102 0 12000 0 0 blop empty LOP 0 -9 0 12 #c6feff #000000 #000000 0 1;
#X obj 361 70 vsl 19 162 0 1 0 0 bvol empty empty 0 -9 0 12 #00faff #000000 #000000 0 1;
#X obj 538 131 vsl 23 102 0 200 0 0 bdec empty Dec 0 -9 0 12 #c6feff #000000 #000000 0 1;
#X floatatom 294 52 5 0 0 2 Randomness - - 0;
#X connect 4 0 9 0;
#X connect 9 0 10 0;
#X connect 9 0 10 1;
#X connect 11 0 5 0;
#X connect 12 0 6 0;
#X connect 13 0 7 0;
#X connect 14 0 8 0;
#X connect 15 0 11 0;
#X connect 15 0 14 0;
#X connect 15 0 13 0;
#X connect 15 0 12 0;
#X connect 21 0 22 0;
#X connect 22 0 23 0;
#X connect 22 0 23 1;
