#N canvas 0 28 1920 1080 12;
#X obj 54 198 phasor~;
#X obj 202 201 phasor~;
#X obj 202 279 *~ 2;
#X obj 49 276 *~ 2;
#X obj 51 336 +~;
#X obj 49 226 -~ 0.5;
#X obj 202 229 -~ 0.5;
#X msg 120 162 0;
#X obj 186 135 bng 15 250 50 0 empty empty empty 17 7 0 10 #fcfcfc #000000 #000000;
#X obj 48 301 clip~ 0 1;
#X obj 201 304 clip~ 0 1;
#X obj 449 62 inlet, f 13;
#X obj 205 169 * -1;
#X obj 79 76 inlet~;
#X obj 565 565 hradio 34 1 0 4 empty empty empty 0 -10 0 12 #c6feff #000000 #000000 0;
#X obj 141 722 *~;
#X msg 53 677 1;
#X msg 85 677 0;
#X obj 573 527 inlet;
#X obj 35 719 *~ 1;
#X obj 148 791 *~;
#X obj 599 120 f;
#X obj 617 86 bng 19 250 50 0 empty empty empty 0 -10 0 12 #fcfcfc #000000 #000000;
#X obj 350 291 +~;
#X obj 770 231 *~;
#X msg 194 778 1;
#X msg 226 778 0;
#X obj 194 750 sel 1;
#X msg 340 737 1;
#X msg 372 737 0;
#X obj 340 710 sel 2;
#X obj 350 319 phasor~;
#X obj 503 322 phasor~;
#X obj 503 400 *~ 2;
#X obj 350 397 *~ 2;
#X obj 350 448 +~;
#X obj 350 347 -~ 0.5;
#X obj 503 350 -~ 0.5;
#X msg 399 290 0;
#X obj 350 422 clip~ 0 1;
#X obj 502 425 clip~ 0 1;
#X obj 298 769 *~;
#X obj 53 650 sel 0;
#X obj 792 205 inlet;
#X obj 151 902 outlet~;
#X obj 1154 216 cos~;
#X obj 1154 191 +~;
#X obj 1328 101 *~;
#X obj 1376 100 hsl 162 19 0 1 0 0 empty empty PM_index -2 -10 0 12 #fcfcfc #000000 #000000 0 1;
#X obj 1016 450 *~;
#X msg 1129 428 1;
#X msg 1091 427 0;
#X obj 1099 398 sel 3;
#X obj 1375 48 inlet;
#X obj 917 883 cnv 19 310 140 empty empty SQU 20 12 0 12 #c7c6ff #404040 0;
#X obj 997 907 hradio 34 1 0 4 empty empty squ\ |\ AM\ |\ FM\ |\ PM 0 -10 0 12 #c6feff #000000 #000000 0;
#X floatatom 953 959 5 0 0 2 freq - - 0;
#X text 498 855 Selector de modo (local \, modulado);
#X obj 1032 963 hsl 110 19 0 900 0 0 empty empty FM_index -2 -7 0 11 #c6feff #000000 #000000 0 1;
#X text 500 912 Si es 0 activamos el oscilador local;
#X text 500 947 Si es 1 se aplica modulación de amplitud (AM);
#X text 499 983 Si es 2 se aplica modulación de frecuencia (FM);
#X obj 1082 1004 hsl 120 19 0 1 0 0 empty empty PM_index -2 -7 0 11 #c6feff #000000 #000000 0 1;
#X text 500 1016 Si es 3 se aplica modulación de fase (PM);
#X obj 992 156 phasor~;
#X obj 1155 161 phasor~;
#X obj 1148 307 *~ 2;
#X obj 1005 284 *~ 2;
#X obj 1003 352 +~;
#X obj 1006 255 -~ 0.5;
#X obj 1147 284 -~ 0.5;
#X msg 1073 122 0;
#X obj 1140 91 bng 15 250 50 0 empty empty empty 17 7 0 10 #fcfcfc #000000 #000000;
#X obj 1005 309 clip~ 0 1;
#X obj 1147 332 clip~ 0 1;
#X obj 296 806 *~;
#X obj 1476 302 snapshot~;
#X obj 1474 249 tgl 19 0 empty empty empty 0 -10 0 12 #fcfcfc #000000 #000000 0 1;
#X obj 1473 178 loadbang;
#X obj 1473 202 bng 19 250 50 0 empty empty empty 0 -10 0 12 #fcfcfc #000000 #000000;
#X msg 1473 226 1;
#X floatatom 1475 329 5 0 0 0 - - - 0;
#X obj 1475 354 != 0;
#X floatatom 1475 378 5 0 0 0 - - - 0;
#X obj 1474 273 metro 120;
#X text 1489 402 Activar/Desactivar síntesis dependiendo de snapshot;
#X text 92 42 Entrada de audio;
#X text 603 43 Frecuencia;
#X obj 148 815 *~;
#X obj 435 242 bng 15 250 50 0 empty empty empty 17 7 0 10 #fcfcfc #000000 #000000;
#X obj 512 252 * -1;
#X obj 503 292 +~;
#X obj 1153 134 * -1;
#X obj 1009 475 *~;
#X text 171 666 AM;
#X obj 158 694 *~ 1;
#X text 437 357 FM;
#X text 1297 244 PM;
#X obj 1002 181 +~;
#X obj 1002 205 cos~;
#X obj 148 857 clip~ -1 1;
#X obj 296 830 clip~ -1 1;
#X obj 1006 504 clip~ -1 1;
#X obj 350 478 -~ 1;
#X obj 350 502 *~ 1.2;
#X obj 1003 382 -~ 1;
#X obj 1003 406 *~ 1.2;
#X msg 257 167 0.5;
#X msg 537 291 0.5;
#X msg 1210 127 0.5;
#X obj 932 996 cuadrada, f 19;
#X obj 52 418 -~ 0.5;
#X obj 52 442 *~ 2;
#X obj 35 743 clip~ -1 1;
#X connect 0 0 5 0;
#X connect 1 0 6 0;
#X connect 2 0 10 0;
#X connect 3 0 9 0;
#X connect 4 0 111 0;
#X connect 5 0 3 0;
#X connect 6 0 2 0;
#X connect 7 0 0 1;
#X connect 8 0 7 0;
#X connect 8 0 107 0;
#X connect 9 0 4 0;
#X connect 10 0 4 1;
#X connect 11 0 0 0;
#X connect 11 0 12 0;
#X connect 11 0 21 1;
#X connect 11 0 64 0;
#X connect 11 0 92 0;
#X connect 11 0 23 0;
#X connect 11 0 90 0;
#X connect 12 0 1 0;
#X connect 13 0 24 0;
#X connect 13 0 47 0;
#X connect 13 0 76 0;
#X connect 13 0 95 0;
#X connect 14 0 27 0;
#X connect 14 0 30 0;
#X connect 14 0 42 0;
#X connect 14 0 52 0;
#X connect 14 0 8 0;
#X connect 14 0 89 0;
#X connect 14 0 72 0;
#X connect 15 0 20 0;
#X connect 16 0 19 1;
#X connect 17 0 19 1;
#X connect 18 0 14 0;
#X connect 19 0 113 0;
#X connect 20 0 88 0;
#X connect 21 0 0 0;
#X connect 21 0 12 0;
#X connect 21 0 23 0;
#X connect 21 0 90 0;
#X connect 21 0 64 0;
#X connect 21 0 92 0;
#X connect 22 0 21 0;
#X connect 23 0 31 0;
#X connect 24 0 23 1;
#X connect 24 0 91 1;
#X connect 25 0 20 1;
#X connect 26 0 20 1;
#X connect 27 0 25 0;
#X connect 27 1 26 0;
#X connect 28 0 41 1;
#X connect 29 0 41 1;
#X connect 30 0 28 0;
#X connect 30 1 29 0;
#X connect 31 0 36 0;
#X connect 32 0 37 0;
#X connect 33 0 40 0;
#X connect 34 0 39 0;
#X connect 35 0 103 0;
#X connect 36 0 34 0;
#X connect 37 0 33 0;
#X connect 38 0 31 1;
#X connect 39 0 35 0;
#X connect 40 0 35 1;
#X connect 41 0 75 0;
#X connect 42 0 16 0;
#X connect 42 0 22 0;
#X connect 42 1 17 0;
#X connect 42 1 22 0;
#X connect 43 0 24 1;
#X connect 45 0 70 0;
#X connect 46 0 45 0;
#X connect 47 0 46 1;
#X connect 47 0 98 1;
#X connect 48 0 47 1;
#X connect 49 0 93 0;
#X connect 50 0 49 1;
#X connect 51 0 49 1;
#X connect 52 0 50 0;
#X connect 52 1 51 0;
#X connect 53 0 48 0;
#X connect 55 0 110 2;
#X connect 56 0 110 1;
#X connect 58 0 110 3;
#X connect 62 0 110 4;
#X connect 64 0 98 0;
#X connect 65 0 46 0;
#X connect 66 0 74 0;
#X connect 67 0 73 0;
#X connect 68 0 105 0;
#X connect 69 0 67 0;
#X connect 70 0 66 0;
#X connect 71 0 64 1;
#X connect 72 0 71 0;
#X connect 72 0 109 0;
#X connect 73 0 68 0;
#X connect 74 0 68 1;
#X connect 75 0 101 0;
#X connect 76 0 81 0;
#X connect 77 0 84 0;
#X connect 78 0 79 0;
#X connect 79 0 80 0;
#X connect 80 0 77 0;
#X connect 81 0 82 0;
#X connect 82 0 83 0;
#X connect 83 0 88 1;
#X connect 83 0 75 1;
#X connect 83 0 93 1;
#X connect 84 0 76 0;
#X connect 88 0 100 0;
#X connect 89 0 38 0;
#X connect 89 0 108 0;
#X connect 90 0 91 0;
#X connect 91 0 32 0;
#X connect 92 0 65 0;
#X connect 93 0 102 0;
#X connect 95 0 15 1;
#X connect 98 0 99 0;
#X connect 99 0 69 0;
#X connect 100 0 44 0;
#X connect 101 0 44 0;
#X connect 102 0 44 0;
#X connect 103 0 104 0;
#X connect 104 0 41 0;
#X connect 105 0 106 0;
#X connect 106 0 49 0;
#X connect 107 0 1 1;
#X connect 108 0 32 1;
#X connect 109 0 65 1;
#X connect 111 0 112 0;
#X connect 112 0 19 0;
#X connect 112 0 15 0;
#X connect 113 0 44 0;
