#N canvas 0 28 1920 1052 12;
#X obj 153 101 inlet~;
#X text 132 67 Entrada de audio;
#X obj 269 237 lop~;
#X obj 269 261 hip~;
#X obj 353 159 inlet;
#X obj 421 159 inlet;
#X obj 189 376 outlet~;
#X obj 772 246 cnv 19 200 200 empty empty empty 20 12 0 12 #e0e0e0 #404040 0;
#X obj 787 424 filtros, f 25;
#X obj 823 272 vsl 30 130 0 7000 0 0 empty empty Low-pass 0 -9 0 12 #c6feff #000000 #000000 0 1;
#X obj 901 275 vsl 30 130 0 3000 0 0 empty empty Hi-pass 0 -9 0 12 #c6feff #000000 #000000 0 1;
#X connect 0 0 2 0;
#X connect 2 0 3 0;
#X connect 3 0 6 0;
#X connect 4 0 2 1;
#X connect 5 0 3 1;
#X connect 9 0 8 1;
#X connect 10 0 8 2;
