#N canvas 0 28 1440 900 12;
#X obj 8 13 metronomos;
#X obj 60 64 s bpm;
#X obj 10 44 tgl 33 0 gtc empty empty 0 -10 0 12 #c6feff #000000 #000000 0 1;
#N canvas 0 28 1440 872 s1 0;
#X obj 464 248 saw, f 81;
#X obj 201 187 5xLFO;
#X obj 147 85 vsl 19 162 0.01 27 1 0 empty s1lfo empty 0 -9 0 12 #c6feff #000000 #000000 0 1;
#X floatatom 244 226 5 0 0 0 - - - 0;
#X obj 244 249 abs;
#X obj 465 278 samphold~;
#X obj 744 412 phasor~ 900;
#X floatatom 939 431 5 0 0 0 - - - 0;
#X obj 939 350 bng 19 250 50 0 empty empty empty 0 -10 0 12 #fcfcfc #000000 #000000;
#X obj 242 366 * 3;
#X obj 1147 232 vsl 19 162 0 127 0 0 empty empty empty 0 -9 0 12 #fcfcfc #000000 #000000 0 1;
#X obj 1147 402 * 1000;
#X floatatom 1147 426 5 0 0 0 - - - 0;
#X obj 1147 449 int;
#X floatatom 1147 473 5 0 0 0 - - - 0;
#X obj 1147 520 int;
#X floatatom 1147 544 5 0 0 0 - - - 0;
#X obj 1147 496 / 10;
#X floatatom 784 659 5 0 0 0 - - - 0;
#X obj 784 682 +~;
#X floatatom 908 597 5 0 0 0 - - - 0;
#X obj 908 620 phasor~;
#X obj 908 644 *~;
#X obj 1002 634 hsl 162 19 0 1270 0 0 empty empty empty -2 -10 0 12 #fcfcfc #000000 #000000 0 1;
#X obj 724 215 adsr_env;
#X obj 937 99 vsl 19 90 0 8000 0 0 empty s1r R 0 -9 0 10 #00faff #000000 #000000 0 1;
#X obj 829 99 vsl 19 90 0 2000 0 0 empty s1a A 0 -9 0 10 #00faff #000000 #000000 0 1;
#X obj 866 99 vsl 19 90 0 600 0 0 empty s1d D 0 -9 0 10 #00faff #000000 #000000 0 1;
#X obj 902 99 vsl 19 90 0 10 0 0 empty s1s S 0 -9 0 10 #00faff #000000 #000000 0 1;
#X obj 707 154 bng 33 250 50 0 empty m2 Gate -10 -17 0 10 #00ff04 #000000 #000000;
#X obj 500 306 vca;
#X obj 499 331 reverb;
#X obj 362 577 hsl 102 29 0 1 0 0 empty s1revroom roomsize -2 -10 0 12 #c6feff #000000 #000000 0 1;
#X obj 491 579 hsl 102 29 0 1 0 0 empty s1revwet wet -2 -10 0 12 #c6feff #000000 #000000 0 1;
#X obj 622 578 hsl 102 29 0 1 0 0 empty s1revdry dry -2 -10 0 12 #c6feff #000000 #000000 0 1;
#X obj 494 418 hip~ 1100;
#X obj 493 387 lop~ 2000;
#X obj 494 446 *~ 0.5;
#X obj 915 548 hsl 162 19 0 50 0 0 empty empty empty -2 -10 0 12 #fcfcfc #000000 #000000 0 1;
#X obj 613 445 r s1v;
#X obj 553 361 r s1lop;
#X obj 702 329 r s1reso;
#X obj 469 362 bp~;
#X obj 386 333 r s1bp;
#X obj 393 393 r s1hip;
#X obj 939 383 random 15000;
#X obj 939 407 clip 1000 5500;
#X obj 832 352 vsl 19 162 0 1270 0 0 empty empty samphold 0 -9 0 12 #fcfcfc #000000 #000000 0 1;
#X obj 733 464 /~ 1;
#X msg 783 378 0.2;
#X msg 808 594 2333;
#X msg 237 140 2;
#X obj 244 273 * 460;
#X obj 492 85 r s1selector;
#X msg 312 256 1;
#X msg 350 251 0;
#X msg 606 104 1;
#X msg 648 103 0;
#X obj 654 42 sel 1;
#X obj 617 75 bng 19 250 50 0 empty empty empty 0 -10 0 12 #fcfcfc #000000 #000000;
#X obj 648 71 bng 19 250 50 0 empty empty empty 0 -10 0 12 #fcfcfc #000000 #000000;
#X obj 270 336 spigot;
#X obj 364 93 sel 0;
#X obj 361 136 bng 19 250 50 0 empty empty empty 0 -10 0 12 #fcfcfc #000000 #000000;
#X obj 390 134 bng 19 250 50 0 empty empty empty 0 -10 0 12 #fcfcfc #000000 #000000;
#X obj 501 145 r s1freq;
#X obj 501 169 spigot, f 14;
#X obj 231 68 r s1lfowave;
#X obj 155 289 r s1lforange;
#X obj 522 514 outlet~;
#X obj 416 27 inlet~;
#X connect 0 0 5 0;
#X connect 1 1 3 0;
#X connect 2 0 1 0;
#X connect 3 0 4 0;
#X connect 4 0 9 0;
#X connect 4 0 52 0;
#X connect 5 0 30 0;
#X connect 6 0 48 0;
#X connect 7 0 18 0;
#X connect 8 0 45 0;
#X connect 8 0 49 0;
#X connect 10 0 11 0;
#X connect 11 0 12 0;
#X connect 12 0 13 0;
#X connect 13 0 14 0;
#X connect 14 0 17 0;
#X connect 15 0 16 0;
#X connect 17 0 15 0;
#X connect 18 0 19 0;
#X connect 19 0 6 0;
#X connect 20 0 21 0;
#X connect 21 0 22 0;
#X connect 22 0 19 1;
#X connect 23 0 22 1;
#X connect 24 0 30 1;
#X connect 25 0 24 4;
#X connect 26 0 24 1;
#X connect 27 0 24 2;
#X connect 28 0 24 3;
#X connect 29 0 24 0;
#X connect 29 0 8 0;
#X connect 30 0 31 0;
#X connect 31 0 42 0;
#X connect 32 0 31 1;
#X connect 33 0 31 2;
#X connect 34 0 31 3;
#X connect 35 0 37 0;
#X connect 36 0 35 0;
#X connect 37 0 69 0;
#X connect 38 0 20 0;
#X connect 39 0 37 1;
#X connect 40 0 36 1;
#X connect 41 0 42 2;
#X connect 42 0 36 0;
#X connect 43 0 42 1;
#X connect 44 0 35 1;
#X connect 45 0 46 0;
#X connect 46 0 7 0;
#X connect 48 0 5 1;
#X connect 49 0 6 1;
#X connect 50 0 19 0;
#X connect 51 0 1 1;
#X connect 52 0 61 0;
#X connect 53 0 58 0;
#X connect 53 0 62 0;
#X connect 54 0 61 1;
#X connect 55 0 61 1;
#X connect 56 0 66 1;
#X connect 57 0 66 1;
#X connect 58 0 59 0;
#X connect 58 1 60 0;
#X connect 59 0 56 0;
#X connect 60 0 57 0;
#X connect 61 0 0 1;
#X connect 62 0 63 0;
#X connect 62 1 64 0;
#X connect 63 0 54 0;
#X connect 64 0 55 0;
#X connect 65 0 66 0;
#X connect 66 0 0 1;
#X connect 67 0 1 1;
#X connect 68 0 52 1;
#X connect 70 0 0 0;
#X restore 67 560 pd s1;
#X f 6;
#X obj 432 233 vsl 19 90 1 2000 0 0 s1r empty R 0 -9 0 10 #00faff #000000 #000000 0 1;
#X obj 324 233 vsl 19 90 0 2000 0 0 s1a empty A 0 -9 0 10 #00faff #000000 #000000 0 1;
#X obj 361 233 vsl 19 90 0 2000 0 0 s1d empty D 0 -9 0 10 #00faff #000000 #000000 0 1;
#X obj 397 233 vsl 19 90 0 10 0 0 s1s empty S 0 -9 0 10 #00faff #000000 #000000 0 1;
#X obj 253 241 vsl 30 80 0 3270 0 0 s1lop empty lop 0 -9 0 12 #c6feff #000000 #000000 0 1;
#X obj 211 259 vsl 15 60 0 3.6 0 0 s1reso empty Reso 0 -9 0 12 #c6feff #000000 #000000 0 1;
#X obj 172 240 vsl 30 80 200 4000 0 0 s1bp empty Bp 0 -9 0 12 #c6feff #000000 #000000 0 1;
#X obj 129 239 vsl 30 80 1700 4270 0 0 s1hip empty hip 0 -9 0 12 #c6feff #000000 #000000 0 1;
#X obj 206 140 vsl 33 70 0.01 20 0 0 s1lfo empty freq 0 -9 0 12 #c6feff #000000 #000000 0 1;
#X obj 445 137 vsl 33 70 0 1000 0 1 s1freq empty freq 0 -10 0 14 #c7c6ff #000000 #000001 5500 0;
#X obj 121 142 vradio 33 1 0 2 s1selector empty on/off 0 -10 0 12 #c6feff #000000 #000000 0;
#X text 166 167 LFO;
#X obj 82 124 vradio 22 1 0 5 s1lfowave empty wave 0 -10 0 12 #c6feff #000000 #000000 0;
#X obj 250 139 vsl 33 70 0 1000 0 0 s1lforange empty range 0 -9 0 12 #c6feff #000000 #000000 0 1;
#X obj 694 194 vsl 19 162 0.01 20 1 0 empty empty empty 0 -9 0 12 #fcfcfc #000000 #000000 0 1;
#X obj 760 355 abs;
#X floatatom 758 433 5 0 0 0 - - - 0;
#X floatatom 789 330 5 0 0 0 - - - 0;
#X obj 725 325 5xLFO;
#X obj 789 353 + 1;
#X floatatom 789 377 5 0 0 0 - - - 0;
#X obj 835 385 / 1;
#X floatatom 822 415 5 0 0 0 - - - 0;
#X msg 773 263 2;
#X obj 552 357 abs;
#X floatatom 550 435 12 0 0 0 - - - 0;
#X floatatom 581 332 5 0 0 0 - - - 0;
#X obj 581 355 + 1;
#X floatatom 581 379 5 0 0 0 - - - 0;
#X obj 628 352 / 1;
#X floatatom 630 372 5 0 0 0 - - - 0;
#X obj 585 274 osc~;
#X obj 572 301 snapshot~;
#X obj 579 236 metro 50;
#X obj 590 209 tgl 19 0 empty empty empty 0 -10 0 12 #fcfcfc #000000 #000000 0 1;
#X obj 641 404 / 2.9;
#X obj 550 462 clip 666 3000;
#X obj 613 506 vsl 19 162 0.01 20 1 0 empty empty empty 0 -9 0 12 #fcfcfc #000000 #000000 0 1;
#X obj 639 603 abs;
#X floatatom 722 503 12 0 0 0 - - - 0;
#X floatatom 668 571 5 0 0 0 - - - 0;
#X obj 668 601 + 1;
#X floatatom 668 625 5 0 0 0 - - - 0;
#X obj 715 598 / 1;
#X floatatom 717 618 5 0 0 0 - - - 0;
#X obj 601 678 osc~;
#X obj 660 538 snapshot~;
#X obj 657 509 metro 50;
#X obj 668 482 tgl 19 0 empty empty empty 0 -10 0 12 #fcfcfc #000000 #000000 0 1;
#X obj 717 641 / 2.9;
#X obj 723 481 * 0.1;
#X obj 758 409 * 1500;
#X obj 896 224 vsl 19 162 0.01 20 1 0 empty empty empty 0 -9 0 12 #fcfcfc #000000 #000000 0 1;
#X obj 918 421 abs;
#X floatatom 894 515 5 0 0 0 - - - 0;
#X floatatom 947 396 5 0 0 0 - - - 0;
#X obj 894 395 5xLFO;
#X floatatom 947 443 5 0 0 0 - - - 0;
#X floatatom 896 454 5 0 0 0 - - - 0;
#X obj 583 402 * 5000;
#X obj 697 12 vsl 19 162 0.01 20 1 0 empty empty empty 0 -9 0 12 #fcfcfc #000000 #000000 0 1;
#X obj 773 161 abs;
#X floatatom 802 136 5 0 0 0 - - - 0;
#X obj 738 131 5xLFO;
#X obj 802 160 + 0.01;
#X msg 786 69 1;
#X obj 895 487 * 350;
#X msg 60 40 130;
#X floatatom 112 43 5 0 0 0 - - - 0;
#X obj 947 469 / 0.3;
#X obj 947 419 + 0;
#X msg 924 369 1;
#X obj 947 16 vsl 25 80 0 127 0 0 empty empty A 0 -9 0 12 #c6feff #000000 #000000 0 1;
#X obj 986 21 vsl 25 80 0 500 0 0 empty empty R 0 -9 0 12 #c6feff #000000 #000000 0 1;
#X obj 1046 43 hsl 100 19 0 10000 0 0 empty empty Low-pass -2 -10 0 12 #c6feff #000000 #000000 0 1;
#X obj 1054 84 hsl 100 19 100 10000 0 0 empty empty Hi-pass -2 -10 0 12 #c6feff #000000 #000000 0 1;
#X obj 872 112 hat, f 26;
#X obj 873 161 vca;
#X obj 938 155 hsl 70 19 0 1 0 0 empty empty empty -2 -10 0 12 #fcfcfc #000000 #000000 0 1;
#X obj 873 185 dac~;
#X obj 864 37 bng 19 250 50 0 empty empty empty 0 -10 0 12 #fcfcfc #000000 #000000;
#X obj 864 85 sel 0 9 2;
#X obj 864 61 random 10;
#X obj 864 13 r m1;
#X text 64 581 | | [ping_pong_delay], f 44;
#X connect 18 0 22 0;
#X connect 21 0 23 0;
#X connect 22 1 19 0;
#X connect 22 1 21 0;
#X connect 23 0 24 0;
#X connect 24 0 25 0;
#X connect 25 0 26 0;
#X connect 26 0 55 0;
#X connect 27 0 22 1;
#X connect 29 0 40 0;
#X connect 30 0 31 0;
#X connect 31 0 32 0;
#X connect 32 0 33 0;
#X connect 33 0 34 0;
#X connect 34 0 39 0;
#X connect 35 0 36 0;
#X connect 36 0 30 0;
#X connect 37 0 36 0;
#X connect 38 0 37 0;
#X connect 39 0 63 0;
#X connect 40 0 10 0;
#X connect 41 0 49 0;
#X connect 44 0 45 0;
#X connect 45 0 46 0;
#X connect 46 0 47 0;
#X connect 47 0 48 0;
#X connect 48 0 53 0;
#X connect 50 0 44 0;
#X connect 51 0 50 0;
#X connect 52 0 51 0;
#X connect 53 0 54 0;
#X connect 54 0 43 0;
#X connect 55 0 20 0;
#X connect 56 0 60 0;
#X connect 59 0 74 0;
#X connect 60 1 57 0;
#X connect 60 1 59 0;
#X connect 61 0 73 0;
#X connect 62 0 70 0;
#X connect 63 0 29 0;
#X connect 64 0 67 0;
#X connect 66 0 68 0;
#X connect 67 1 65 0;
#X connect 67 1 66 0;
#X connect 69 0 67 1;
#X connect 70 0 58 0;
#X connect 71 0 1 0;
#X connect 72 0 1 0;
#X connect 73 0 62 0;
#X connect 74 0 61 0;
#X connect 75 0 60 1;
#X connect 76 0 80 1;
#X connect 77 0 80 2;
#X connect 78 0 80 3;
#X connect 79 0 80 4;
#X connect 80 0 81 0;
#X connect 81 0 83 0;
#X connect 81 0 83 1;
#X connect 82 0 81 1;
#X connect 84 0 86 0;
#X connect 85 3 80 0;
#X connect 86 0 85 0;
#X connect 87 0 84 0;
