#N canvas 0 28 1280 772 12;
#X obj 126 322 noise~;
#X obj 127 418 *~;
#X text 292 238 Attack;
#X text 560 238 Release;
#X obj 102 113 bng 15 250 50 0 empty hat_trigger empty 17 7 0 10 #fcfcfc #000000 #000000;
#X floatatom 348 204 5 0 0 0 - - - 0;
#X msg 348 233 0 \, 1 \$1;
#X msg 450 239 1 \, 0 \$1, f 13;
#X obj 348 274 line, f 8;
#X obj 348 316 select 1, f 14;
#X obj 450 271 line, f 7;
#X floatatom 406 353 5 0 0 0 - - - 0;
#X obj 97 219 loadbang 50;
#X obj 450 203 f 26;
#X obj 127 457 outlet~;
#X obj 97 243 bng 19 250 50 0 empty empty empty 0 -10 0 12 #fcfcfc #000000 #000000;
#X msg 97 267 30;
#X obj 102 79 inlet;
#X obj 407 89 inlet;
#X obj 348 178 f;
#X obj 490 102 inlet;
#X obj 625 431 cnv 19 300 150 empty empty HAT 20 12 0 12 #c7c6ff #404040 0;
#X obj 635 509 bng 30 250 50 0 empty empty empty 0 -10 0 12 #c6feff #000000 #000000;
#X obj 697 469 vsl 25 80 0 127 0 0 empty empty A 0 -9 0 12 #c6feff #000000 #000000 0 1;
#X obj 735 468 vsl 25 80 0 500 0 0 empty empty R 0 -9 0 12 #c6feff #000000 #000000 0 1;
#X text 86 44 Disparador;
#X obj 835 107 inlet;
#X obj 886 106 inlet;
#X obj 125 346 lop~ 500;
#X obj 125 370 hip~ 100;
#X obj 772 485 hsl 100 19 0 10000 0 0 empty empty Low-pass -2 -10 0 12 #c6feff #000000 #000000 0 1;
#X obj 817 524 hsl 100 19 100 10000 0 0 empty empty Hi-pass -2 -10 0 12 #c6feff #000000 #000000 0 1;
#X obj 635 552 hat, f 26;
#X connect 0 0 28 0;
#X connect 1 0 14 0;
#X connect 4 0 19 0;
#X connect 5 0 6 0;
#X connect 6 0 8 0;
#X connect 7 0 10 0;
#X connect 8 0 9 0;
#X connect 8 0 11 0;
#X connect 9 0 13 0;
#X connect 10 0 11 0;
#X connect 11 0 1 1;
#X connect 12 0 15 0;
#X connect 13 0 7 0;
#X connect 15 0 16 0;
#X connect 16 0 0 0;
#X connect 17 0 4 0;
#X connect 18 0 19 1;
#X connect 19 0 5 0;
#X connect 20 0 13 1;
#X connect 22 0 32 0;
#X connect 23 0 32 1;
#X connect 24 0 32 2;
#X connect 26 0 28 1;
#X connect 27 0 29 1;
#X connect 28 0 29 0;
#X connect 29 0 1 0;
#X connect 30 0 32 3;
#X connect 31 0 32 4;
