#N canvas 0 0 1440 872 12;
#X obj 175 388 phasor~;
#X obj 174 415 expr~ $v1 > 0.5;
#X obj 143 171 bng 19 250 50 0 empty empty empty 0 -10 0 12 #fcfcfc #000000 #000000;
#X obj 226 251 f 250;
#X floatatom 268 220 5 0 0 1 decay - - 0;
#X obj 367 523 *~;
#N canvas 1307 531 450 300 pitch_env 0;
#X obj 37 37 inlet;
#X obj 38 96 vline~;
#X obj 37 131 *~;
#X obj 253 222 outlet~;
#X msg 36 63 1 \, 0.5 5 \, 0 \$1 5;
#X obj 37 155 *~ 80;
#X obj 37 203 mtof~;
#X obj 37 179 +~ 29;
#X text 159 140 Midi pitch - from 109 down to 29;
#X connect 0 0 4 0;
#X connect 1 0 2 0;
#X connect 1 0 2 1;
#X connect 2 0 5 0;
#X connect 4 0 1 0;
#X connect 5 0 7 0;
#X connect 6 0 3 0;
#X connect 7 0 6 0;
#X restore 280 319 pd pitch_env;
#X obj 215 343 *~ 1;
#X floatatom 404 281 5 10 300 1 pitch_scale - - 0;
#X obj 404 304 / 100;
#N canvas 156 156 450 300 vol_env 0;
#X obj 37 37 inlet;
#X obj 253 174 vline~;
#X obj 253 198 *~;
#X msg 218 135 0.5 \, 1 5 \, 0.5 60 5 \, 0 \$1 65;
#X obj 253 222 outlet~;
#X connect 0 0 3 0;
#X connect 1 0 2 0;
#X connect 1 0 2 1;
#X connect 2 0 4 0;
#X connect 3 0 1 0;
#X restore 432 502 pd vol_env;
#X obj 185 449 vcf~ 0.5;
#X floatatom 571 260 5 10 300 1 filter_scale - - 0;
#X obj 519 321 *~ 1.5;
#X obj 571 283 / 100;
#X obj 148 508 noise~;
#X floatatom 660 361 5 10 300 1 sine_scale - - 0;
#X obj 660 384 / 100;
#X obj 502 399 *~ 1;
#X obj 628 419 osc~, f 6;
#X obj 368 629 outlet~;
#X msg 463 399 0;
#X msg 623 365 0;
#X msg 166 342 0;
#X obj 269 116 inlet;
#X obj 411 116 inlet;
#X obj 585 99 inlet;
#X obj 704 197 inlet;
#X obj 81 57 inlet;
#X obj 852 519 cnv 19 346 176 empty empty KICK 20 12 0 12 #e0e0e0 #404040 0;
#X obj 931 555 vsl 29 100 0 300 0 0 empty empty decay 0 -9 0 12 #c6feff #000000 #000000 0 1;
#X obj 1005 556 vsl 29 100 0 500 0 0 empty empty pitch 0 -9 0 12 #c6feff #000000 #000000 0 1;
#X obj 1080 555 vsl 29 100 0 100 0 0 empty empty scale 0 -9 0 12 #c6feff #000000 #000000 0 1;
#X obj 1149 555 vsl 29 100 0 100 0 0 empty empty sine 0 -9 0 12 #c6feff #000000 #000000 0 1;
#X obj 870 626 bng 26 250 50 0 empty empty Bang! -1 -10 0 12 #c6ffc7 #000000 #000000;
#X obj 872 670 kick, f 44;
#X text 26 24 Disparador (bang);
#X floatatom 607 181 5 0 0 0 - - - 0;
#X obj 367 547 saturador;
#X obj 461 529 r ksat;
#X obj 367 571 lop~;
#X obj 367 595 hip~;
#X obj 467 552 r klop;
#X obj 451 576 r khip;
#X connect 0 0 1 0;
#X connect 1 0 11 0;
#X connect 2 0 3 0;
#X connect 2 0 21 0;
#X connect 2 0 23 0;
#X connect 2 0 22 0;
#X connect 3 0 10 0;
#X connect 3 0 6 0;
#X connect 4 0 3 1;
#X connect 5 0 38 0;
#X connect 6 0 7 0;
#X connect 6 0 13 0;
#X connect 7 0 0 0;
#X connect 7 0 18 0;
#X connect 8 0 9 0;
#X connect 9 0 7 1;
#X connect 10 0 5 0;
#X connect 11 1 5 1;
#X connect 12 0 14 0;
#X connect 13 0 11 1;
#X connect 14 0 13 1;
#X connect 15 0 11 0;
#X connect 16 0 17 0;
#X connect 17 0 18 1;
#X connect 18 0 19 0;
#X connect 19 0 5 1;
#X connect 21 0 19 1;
#X connect 22 0 19 1;
#X connect 23 0 0 1;
#X connect 24 0 4 0;
#X connect 25 0 8 0;
#X connect 26 0 12 0;
#X connect 27 0 16 0;
#X connect 28 0 2 0;
#X connect 30 0 35 1;
#X connect 31 0 35 2;
#X connect 32 0 35 3;
#X connect 33 0 35 4;
#X connect 34 0 35 0;
#X connect 37 0 12 0;
#X connect 38 0 40 0;
#X connect 39 0 38 1;
#X connect 40 0 41 0;
#X connect 41 0 20 0;
#X connect 42 0 40 1;
#X connect 43 0 41 1;
