#N canvas 1440 28 1080 1920 12;
#X obj 909 -3 r bpm;
#X obj 448 155 / 1;
#X obj 774 229 / 8;
#X obj 625 206 / 4;
#X obj 508 191 / 2;
#X msg 895 78 60000;
#X obj 416 198 /;
#X obj 488 216 /;
#X obj 605 233 /;
#X obj 753 252 /;
#X obj 387 95 metro 60;
#X obj 437 243 metro 60;
#X obj 552 257 metro 60;
#X obj 699 275 metro 60;
#X obj 905 47 bng 15 250 50 0 empty empty empty 17 7 0 10 #fcfcfc #000000 #000000;
#X obj 387 124 f 0;
#X obj 387 150 + 1;
#X msg 352 196 0;
#X obj 335 242 s m1;
#X obj 387 180 - 1;
#X obj 436 269 f 0;
#X obj 436 293 + 1;
#X msg 478 266 0;
#X obj 436 317 - 1;
#X obj 436 369 sel 7;
#X obj 401 369 s m2;
#X obj 560 301 f 0;
#X obj 560 325 + 1;
#X msg 602 298 0;
#X obj 560 349 - 1;
#X obj 566 382 sel 7;
#X obj 699 302 f 0;
#X obj 699 326 + 1;
#X msg 741 299 0;
#X obj 699 350 - 1;
#X obj 713 380 sel 7;
#X obj 522 382 s m3, f 5;
#X obj 676 378 s m4;
#X obj 815 303 f 0;
#X obj 815 327 + 1;
#X msg 857 300 0;
#X obj 815 351 - 1;
#X obj 840 388 sel 7;
#X obj 874 249 /;
#X obj 813 275 metro 60;
#X obj 891 220 / 16;
#X obj 800 388 s m5;
#X obj 1168 269 /;
#X obj 1277 275 /;
#X obj 1409 270 /;
#X obj 1115 293 metro 60;
#X obj 1224 295 metro 60;
#X obj 1356 292 metro 60;
#X obj 1116 315 f 0;
#X obj 1116 339 + 1;
#X msg 1158 312 0;
#X obj 1116 363 - 1;
#X obj 1136 388 sel 7;
#X obj 1223 316 f 0;
#X obj 1223 340 + 1;
#X msg 1265 313 0;
#X obj 1223 364 - 1;
#X obj 1254 391 sel 7;
#X obj 1358 318 f 0;
#X obj 1358 342 + 1;
#X msg 1400 315 0;
#X obj 1358 366 - 1;
#X obj 1383 396 sel 7;
#X obj 1475 316 f 0;
#X obj 1475 340 + 1;
#X msg 1517 313 0;
#X obj 1475 364 - 1;
#X obj 1504 395 sel 7;
#X obj 1529 266 /;
#X obj 1474 288 metro 60;
#X obj 1186 245 * 2;
#X obj 1294 254 * 4;
#X obj 1427 248 * 8;
#X obj 1547 242 * 16;
#X obj 1096 387 s m6;
#X obj 1212 390 s m7, f 5;
#X obj 1344 396 s m8;
#X obj 1463 393 s m9;
#X obj 451 45 r gtc;
#X obj 374 243 sel 7;
#X obj 917 498 / 32;
#X obj 898 527 /;
#X obj 875 563 metro 50;
#X obj 876 591 f 0;
#X obj 876 615 + 1;
#X msg 918 588 0;
#X obj 876 639 - 1;
#X obj 896 671 sel 7;
#X obj 1207 543 /;
#X obj 1154 569 metro 50;
#X obj 1154 596 f 0;
#X obj 1154 620 + 1;
#X msg 1196 593 0;
#X obj 1154 644 - 1;
#X obj 1188 680 sel 7;
#X obj 1226 518 / 64;
#X msg 257 102 0;
#X obj 260 75 sel 0 1;
#X obj 847 672 s m10;
#X obj 1121 679 s m11;
#X obj 9 50 cnv 19 126 176 empty empty empty 20 12 0 12 #e0e0e0 #404040 0;
#X floatatom 34 178 8 0 0 1 BPM - bpm 0;
#X obj 44 100 tgl 40 0 gtc empty ON/OFF 0 -10 0 12 #c6feff #000000 #000000 0 1;
#X floatatom 1037 11 5 0 0 0 - - - 0;
#X text 15 22 Interfaz gráfica;
#X connect 0 0 4 0;
#X connect 0 0 3 0;
#X connect 0 0 2 0;
#X connect 0 0 1 0;
#X connect 0 0 14 0;
#X connect 0 0 45 0;
#X connect 0 0 75 0;
#X connect 0 0 78 0;
#X connect 0 0 77 0;
#X connect 0 0 76 0;
#X connect 0 0 85 0;
#X connect 0 0 100 0;
#X connect 0 0 108 0;
#X connect 1 0 6 1;
#X connect 2 0 9 1;
#X connect 3 0 8 1;
#X connect 4 0 7 1;
#X connect 5 0 6 0;
#X connect 5 0 7 0;
#X connect 5 0 8 0;
#X connect 5 0 9 0;
#X connect 5 0 43 0;
#X connect 5 0 47 0;
#X connect 5 0 73 0;
#X connect 5 0 49 0;
#X connect 5 0 48 0;
#X connect 5 0 86 0;
#X connect 5 0 93 0;
#X connect 6 0 10 1;
#X connect 7 0 11 1;
#X connect 8 0 12 1;
#X connect 9 0 13 1;
#X connect 10 0 15 0;
#X connect 11 0 20 0;
#X connect 12 0 26 0;
#X connect 13 0 31 0;
#X connect 14 0 5 0;
#X connect 15 0 16 0;
#X connect 16 0 15 1;
#X connect 16 0 19 0;
#X connect 17 0 15 1;
#X connect 19 0 18 0;
#X connect 19 0 84 0;
#X connect 19 0 14 0;
#X connect 20 0 21 0;
#X connect 21 0 20 1;
#X connect 21 0 23 0;
#X connect 22 0 20 1;
#X connect 23 0 24 0;
#X connect 23 0 25 0;
#X connect 24 0 22 0;
#X connect 26 0 27 0;
#X connect 27 0 26 1;
#X connect 27 0 29 0;
#X connect 28 0 26 1;
#X connect 29 0 30 0;
#X connect 29 0 36 0;
#X connect 30 0 28 0;
#X connect 31 0 32 0;
#X connect 32 0 31 1;
#X connect 32 0 34 0;
#X connect 33 0 31 1;
#X connect 34 0 35 0;
#X connect 34 0 37 0;
#X connect 35 0 33 0;
#X connect 38 0 39 0;
#X connect 39 0 38 1;
#X connect 39 0 41 0;
#X connect 40 0 38 1;
#X connect 41 0 42 0;
#X connect 41 0 46 0;
#X connect 42 0 40 0;
#X connect 43 0 44 1;
#X connect 44 0 38 0;
#X connect 45 0 43 1;
#X connect 47 0 50 1;
#X connect 48 0 51 1;
#X connect 49 0 52 1;
#X connect 50 0 53 0;
#X connect 51 0 58 0;
#X connect 52 0 63 0;
#X connect 53 0 54 0;
#X connect 54 0 53 1;
#X connect 54 0 56 0;
#X connect 55 0 53 1;
#X connect 56 0 57 0;
#X connect 56 0 79 0;
#X connect 57 0 55 0;
#X connect 58 0 59 0;
#X connect 59 0 58 1;
#X connect 59 0 61 0;
#X connect 60 0 58 1;
#X connect 61 0 62 0;
#X connect 61 0 80 0;
#X connect 62 0 60 0;
#X connect 63 0 64 0;
#X connect 64 0 63 1;
#X connect 64 0 66 0;
#X connect 65 0 63 1;
#X connect 66 0 67 0;
#X connect 66 0 81 0;
#X connect 67 0 65 0;
#X connect 68 0 69 0;
#X connect 69 0 68 1;
#X connect 69 0 71 0;
#X connect 70 0 68 1;
#X connect 71 0 72 0;
#X connect 71 0 82 0;
#X connect 72 0 70 0;
#X connect 73 0 74 1;
#X connect 74 0 68 0;
#X connect 75 0 47 1;
#X connect 76 0 48 1;
#X connect 77 0 49 1;
#X connect 78 0 73 1;
#X connect 83 0 10 0;
#X connect 83 0 11 0;
#X connect 83 0 12 0;
#X connect 83 0 13 0;
#X connect 83 0 44 0;
#X connect 83 0 50 0;
#X connect 83 0 74 0;
#X connect 83 0 52 0;
#X connect 83 0 51 0;
#X connect 83 0 87 0;
#X connect 83 0 94 0;
#X connect 83 0 102 0;
#X connect 84 0 17 0;
#X connect 85 0 86 1;
#X connect 86 0 87 1;
#X connect 87 0 88 0;
#X connect 88 0 89 0;
#X connect 89 0 88 1;
#X connect 89 0 91 0;
#X connect 90 0 88 1;
#X connect 91 0 92 0;
#X connect 91 0 103 0;
#X connect 92 0 90 0;
#X connect 93 0 94 1;
#X connect 94 0 95 0;
#X connect 95 0 96 0;
#X connect 96 0 95 1;
#X connect 96 0 98 0;
#X connect 97 0 95 1;
#X connect 98 0 99 0;
#X connect 98 0 104 0;
#X connect 99 0 97 0;
#X connect 100 0 93 1;
#X connect 101 0 15 1;
#X connect 101 0 58 1;
#X connect 101 0 20 1;
#X connect 101 0 26 1;
#X connect 101 0 31 1;
#X connect 101 0 38 1;
#X connect 101 0 53 1;
#X connect 101 0 63 1;
#X connect 101 0 68 1;
#X connect 101 0 88 1;
#X connect 102 0 101 0;
#X connect 102 1 15 1;
