#N canvas 0 -28 1440 900 12;
#X obj 111 263 key;
#X floatatom 111 287 5 0 0 0 - - - 0;
#X obj 111 313 sel 113 50 119 51 101 114 53 116 54 121 117;
#X obj 271 451 mtof;
#X obj 614 329 inlet;
#X obj 271 523 outlet;
#X text 110 169 12 notas a partir de C2 (36) hasta B2 (46);
#X obj 261 699 cnv 19 270 100 empty empty empty 20 12 0 12 #e0e0e0 #404040 0;
#X obj 275 727 hradio 34 1 0 7 empty empty \ -3\ \ \ -2\ \ \ -1\ \ \ 0\ \ \ \ 1\ \ \ \ 2\ \ \ \ 3 0 -10 0 12 #c6feff #000000 #000000 0;
#X text 825 352 Interpolación a otras octavas;
#X obj 270 423 + 0;
#X obj 275 773 midi_key;
#X text 161 81 notas blancas -> QWERTYU;
#X text 163 105 notas negras -> 2-3-5-6-7;
#X msg 110 348 36;
#X msg 144 348 37;
#X msg 176 348 38;
#X msg 213 350 39;
#X msg 250 349 40;
#X msg 288 348 41;
#X msg 327 347 42;
#X msg 369 346 43;
#X msg 405 345 44;
#X msg 443 344 45;
#X msg 479 343 46;
#X text 113 28 Utiliza el teclado del PC como teclado MIDI;
#X obj 614 360 sel 0 1 2 3 4 5 6;
#X msg 784 385 24;
#X msg 718 387 0;
#X msg 751 386 12;
#X msg 820 385 36;
#X text 99 526 salida de frecuencia;
#X msg 615 389 -36;
#X msg 648 388 -24;
#X msg 684 388 -12;
#X connect 0 0 1 0;
#X connect 1 0 2 0;
#X connect 2 0 14 0;
#X connect 2 1 15 0;
#X connect 2 2 16 0;
#X connect 2 3 17 0;
#X connect 2 4 18 0;
#X connect 2 5 19 0;
#X connect 2 6 20 0;
#X connect 2 7 21 0;
#X connect 2 8 22 0;
#X connect 2 9 23 0;
#X connect 2 10 24 0;
#X connect 3 0 5 0;
#X connect 4 0 26 0;
#X connect 8 0 11 0;
#X connect 10 0 3 0;
#X connect 14 0 10 0;
#X connect 15 0 10 0;
#X connect 16 0 10 0;
#X connect 17 0 10 0;
#X connect 18 0 10 0;
#X connect 19 0 10 0;
#X connect 20 0 10 0;
#X connect 21 0 10 0;
#X connect 22 0 10 0;
#X connect 23 0 10 0;
#X connect 24 0 10 0;
#X connect 26 0 32 0;
#X connect 26 1 33 0;
#X connect 26 2 34 0;
#X connect 26 3 28 0;
#X connect 26 4 29 0;
#X connect 26 5 27 0;
#X connect 26 6 30 0;
#X connect 27 0 10 1;
#X connect 28 0 10 1;
#X connect 29 0 10 1;
#X connect 30 0 10 1;
#X connect 32 0 10 1;
#X connect 33 0 10 1;
#X connect 34 0 10 1;
