#N canvas 0 0 1440 872 12;
#X msg 486 324 start;
#X msg 629 315 stop;
#X obj 398 426 writesf~ 2;
#X obj 1187 221 bng 19 250 50 0 empty empty start 0 -10 0 12 #c6ffc7 #000000 #000000;
#X obj 430 236 inlet;
#X obj 590 222 inlet;
#X obj 696 228 inlet;
#X obj 1207 274 bng 19 250 50 0 empty empty stop 0 -10 0 12 #ffc7c6 #000000 #000000;
#X obj 97 242 inlet~;
#X obj 170 243 inlet~;
#X msg 1165 163 symbol nombre_grabacion;
#X obj 1119 309 modulo_grabar;
#X text 1052 246 Audio inlets (L & R);
#X connect 0 0 2 0;
#X connect 1 0 2 0;
#X connect 3 0 11 3;
#X connect 4 0 2 0;
#X connect 5 0 0 0;
#X connect 6 0 1 0;
#X connect 7 0 11 4;
#X connect 8 0 2 0;
#X connect 9 0 2 1;
#X connect 10 0 11 2;
