#N canvas 0 28 1440 872 12;
#X obj 58 74 cnv 19 100 140 empty empty empty 20 12 0 12 #e0e0e0 #404040 0;
#X floatatom 73 157 8 0 0 1 BPM - bpm 0;
#X obj 86 99 tgl 40 0 gtc empty ON/OFF 0 -10 0 12 #c6feff #000000 #000000 0 1;
#X obj 68 187 metronomos;
#X obj 56 254 cnv 19 526 50 empty empty empty 20 12 0 12 #c7c6ff #404040 0;
#X obj 65 272 midi_key;
#X text 153 270 Toma las teclas de la computadora para mandar notas;
#X obj 56 324 cnv 19 560 300 empty empty --\ Generadores\ -- 20 12 0 16 #ffe3c6 #404040 0;
#X obj 66 360 osc, f 15;
#X obj 66 446 cuadrada, f 15;
#X obj 66 476 triangular, f 15;
#X obj 67 510 kick, f 18;
#X text 207 511 Kick;
#X obj 66 389 saw, f 16;
#X obj 66 418 ramp, f 15;
#X text 193 356 Se pueden interconectar para modulación (síntesis AM/FM);
#X obj 296 507 hat, f 19;
#X text 446 508 Hat;
#X obj 68 551 sampler, f 34;
#X text 336 553 Panel de 6 samples;
#X obj 68 596 aditiva, f 36;
#X text 347 598 Sintetizador aditivo;
#X obj 59 641 cnv 19 440 176 empty empty --\ Envolventes\ -- 20 12 0 16 #c6ffc7 #404040 0;
#X obj 64 718 saturador, f 12;
#X text 171 720 Saturador;
#X obj 65 750 ar_env, f 13;
#X text 175 751 Envolvente sencilla AR;
#X obj 66 785 adsr_env, f 31;
#X text 328 787 Envolvente ADSR;
#X obj 672 284 cnv 19 660 276 empty empty --\ Efectos\ -- 20 12 0 16 #ffc7c6 #404040 0;
#X obj 680 333 reverb, f 34;
#X text 957 334 Freeverb;
#X obj 681 365 ping_pong_delay, f 23;
#X obj 681 398 ping_pong_delay_2, f 23;
#X obj 681 429 ping_pong_delay_3, f 25;
#X obj 58 7 cnv 19 421 56 empty empty empty 20 12 0 12 #e0e0e0 #404040 0;
#X obj 75 28 mixer, f 54;
#X obj 681 527 ping_pong_delay_6, f 25;
#X obj 681 462 ping_pong_delay_4, f 25;
#X obj 682 495 ping_pong_delay_5, f 25;
#X text 906 424 Distintos delays ping pong \, ojo NO se puede utilizar el mismo delay dos veces en un mismo proyecto.;
#X text 390 424 5xOSC;
#X obj 310 423 5xOSC, f 9;
#X obj 65 686 2xFilter, f 23;
#X text 248 685 Filtro lo-pass/hi-pass;
#X obj 689 579 vca;
#X obj 311 466 5xLFO;
#X obj 681 618 oct;
#X obj 747 579 cnv 19 620 290 empty empty SECUENCIADOR 20 12 0 12 #c7c6ff #404040 0;
#X obj 763 818 secuenciador, f 83;
#X obj 761 728 hradio 25 1 0 8 empty empty *1\ /2\ /4\ /8\ /16\ *2\ *4\ *8\ *16 0 -10 0 11 #c6feff #000000 #000000 0;
#X obj 992 620 vsl 25 108 0.1 1 0 0 empty empty empty 0 -9 0 10 #c6feff #000000 #000000 0 1;
#X obj 1041 616 vsl 25 108 0.1 1 0 0 empty empty empty 0 -9 0 10 #c6feff #000000 #000000 0 1;
#X obj 1084 616 vsl 25 108 0.1 1 0 0 empty empty empty 0 -9 0 10 #c6feff #000000 #000000 0 1;
#X obj 1132 620 vsl 25 108 0.1 1 0 0 empty empty empty 0 -9 0 10 #c6feff #000000 #000000 0 1;
#X obj 1178 618 vsl 25 108 0.1 1 0 0 empty empty empty 0 -9 0 10 #c6feff #000000 #000000 0 1;
#X obj 1218 616 vsl 25 108 0.1 1 0 0 empty empty empty 0 -9 0 10 #c6feff #000000 #000000 0 1;
#X obj 1258 613 vsl 25 108 0.1 1 0 0 empty empty empty 0 -9 0 10 #c6feff #000000 #000000 0 1;
#X obj 1299 617 vsl 25 108 0.1 1 0 0 empty empty empty 0 -9 0 10 #c6feff #000000 #000000 0 1;
#X text 830 685 TEMPO;
#X text 779 846 MIDI OUT;
#X text 1259 841 Trigger/gate;
#X text 930 591 Nota;
#X obj 795 779 hradio 30 1 0 2 empty empty TEMPO\ \ MS 0 -10 0 10 #c6feff #000000 #000000 0;
#X floatatom 878 784 5 0 0 1 ms - - 0;
#X obj 674 207 osc_parser;
#X connect 50 0 49 0;
#X connect 51 0 49 3;
#X connect 52 0 49 4;
#X connect 53 0 49 5;
#X connect 54 0 49 6;
#X connect 55 0 49 7;
#X connect 56 0 49 8;
#X connect 57 0 49 9;
#X connect 58 0 49 10;
#X connect 63 0 49 1;
#X connect 64 0 49 2;
