#N canvas 0 25 1280 747 12;
#X floatatom 37 127 5 0 0 2 - - - 0;
#X obj 238 153 inlet~;
#X obj 393 380 hradio 34 1 0 3 empty empty empty 0 -10 0 12 #c6feff #000000 #000000 0;
#X obj 344 494 *~;
#X obj 344 453 *~;
#X msg 94 504 1;
#X msg 131 504 0;
#X obj 37 55 inlet;
#X obj 74 186 f;
#X obj 74 161 bng 19 250 50 0 empty empty empty 0 -10 0 12 #fcfcfc #000000 #000000;
#X obj 395 352 inlet;
#X obj 42 540 *~ 1;
#X text 206 125 Entrada de audio;
#X obj 791 47 cnv 19 310 140 empty empty SAW 20 12 0 12 #c7c6ff #404040 0;
#X obj 910 73 hradio 34 1 0 3 empty empty saw\ |\ AM\ |\ FM 0 -10 0 12 #c6feff #000000 #000000 0;
#X floatatom 805 136 5 0 0 2 freq - - 0;
#X text 531 387 Selector de modo (local \, modulado);
#X obj 77 287 +~;
#X obj 239 297 *~;
#X obj 510 259 hsl 162 19 0 900 0 0 empty empty FM_Index -2 -10 0 12 #ffffff #000000 #000000 0 1;
#X msg 423 461 1;
#X msg 385 460 0;
#X obj 393 431 sel 1;
#X obj 239 329 *~;
#X obj 310 229 sel 2;
#X msg 310 255 1;
#X msg 342 255 0;
#X obj 493 202 inlet;
#X obj 966 137 hsl 120 19 0 900 0 0 empty empty FM_index -2 -10 0 12 #c6feff #000000 #000000 0 1;
#X obj 101 472 sel 0;
#X text 533 447 Si es 0 activamos el oscilador local;
#X text 533 480 Si es 1 se aplica modulación de amplitud (AM);
#X text 532 512 Si es 2 se aplica modulación de frecuencia (FM);
#X text 92 22 Entrada de frecuencia;
#X obj 147 684 outlet~;
#X obj 37 336 phasor~;
#X obj 37 96 * -1;
#X obj 805 161 saw, f 23;
#X connect 0 0 8 1;
#X connect 0 0 17 0;
#X connect 0 0 35 0;
#X connect 1 0 4 1;
#X connect 1 0 18 0;
#X connect 2 0 24 0;
#X connect 2 0 22 0;
#X connect 2 0 29 0;
#X connect 3 0 34 0;
#X connect 4 0 3 0;
#X connect 5 0 11 1;
#X connect 6 0 11 1;
#X connect 7 0 36 0;
#X connect 8 0 17 0;
#X connect 8 0 35 0;
#X connect 9 0 8 0;
#X connect 10 0 2 0;
#X connect 11 0 34 0;
#X connect 14 0 37 2;
#X connect 15 0 37 0;
#X connect 17 0 35 0;
#X connect 18 0 23 0;
#X connect 19 0 18 1;
#X connect 20 0 3 1;
#X connect 21 0 3 1;
#X connect 22 0 20 0;
#X connect 22 1 21 0;
#X connect 23 0 17 1;
#X connect 24 0 25 0;
#X connect 24 0 9 0;
#X connect 24 1 26 0;
#X connect 25 0 23 1;
#X connect 26 0 23 1;
#X connect 27 0 19 0;
#X connect 28 0 37 3;
#X connect 29 0 5 0;
#X connect 29 0 9 0;
#X connect 29 1 6 0;
#X connect 35 0 4 0;
#X connect 35 0 11 0;
#X connect 36 0 0 0;
