#N canvas 1440 0 1440 872 12;
#X msg 120 199 0;
#X obj 123 180 bng 15 250 50 0 empty empty empty 17 7 0 10 #fcfcfc #000000 #000000;
#X floatatom 206 159 5 0 0 0 - - - 0;
#X obj 165 323 *~;
#X obj 273 332 *~;
#X obj 417 238 pack 0 10;
#X obj 418 309 line~;
#X text 491 203 wet;
#X obj 645 336 line~;
#X obj 562 355 *~;
#X obj 620 359 *~;
#X text 657 206 feedback;
#X obj 196 571 *~;
#X obj 214 547 line~;
#X text 288 205 time;
#X obj 219 446 bng 15 250 50 0 empty empty empty 17 7 0 10 #fcfcfc #000000 #000000;
#X obj 155 271 delread~ dL;
#X obj 263 270 delread~ dR;
#X obj 121 388 delwrite~ dL 1000;
#X obj 276 389 delwrite~ dR 1000;
#X msg 214 488 0.5;
#X obj 85 252 bng 15 250 50 0 empty empty empty 17 7 0 10 #fcfcfc #000000 #000000;
#X obj 146 612 outlet~;
#X obj 515 457 outlet~;
#X obj 594 448 outlet~;
#X obj 607 188 bng 15 250 50 0 empty empty empty 17 7 0 10 #fcfcfc #000000 #000000;
#X floatatom 713 158 5 0 0 0 - - - 0;
#X obj 644 185 f \$1;
#X obj 30 346 inlet~;
#X obj 302 605 outlet~;
#X obj 160 60 inlet;
#X obj 435 38 inlet;
#X obj 753 52 inlet;
#X obj 865 232 cnv 19 226 206 empty empty Delay 20 12 0 12 #e0e0e0 #404040 0;
#X obj 911 276 vsl 29 122 0 700 0 0 empty empty time 0 -9 0 12 #bbbbbb #000000 #000000 0 1;
#X obj 966 274 vsl 29 122 0 0.97 0 0 empty empty wet 0 -9 0 12 #bbbbbb #000000 #000000 0 1;
#X obj 1022 272 vsl 29 122 0 0.86 0 0 empty empty feedback 0 -9 0 12 #bbbbbb #000000 #000000 0 1;
#X obj 866 418 ping_pong_delay;
#X connect 0 0 15 0;
#X connect 0 0 21 0;
#X connect 1 0 0 0;
#X connect 2 0 16 0;
#X connect 2 0 17 0;
#X connect 3 0 19 0;
#X connect 4 0 18 0;
#X connect 5 0 6 0;
#X connect 6 0 4 1;
#X connect 6 0 3 1;
#X connect 8 0 9 1;
#X connect 8 0 10 1;
#X connect 9 0 23 0;
#X connect 10 0 24 0;
#X connect 12 0 22 0;
#X connect 12 0 29 0;
#X connect 13 0 12 1;
#X connect 15 0 20 0;
#X connect 16 0 3 0;
#X connect 16 0 9 0;
#X connect 17 0 4 0;
#X connect 17 0 10 0;
#X connect 20 0 13 0;
#X connect 21 0 15 0;
#X connect 21 0 25 0;
#X connect 25 0 27 0;
#X connect 26 0 27 1;
#X connect 26 0 8 0;
#X connect 27 0 8 0;
#X connect 28 0 18 0;
#X connect 30 0 1 0;
#X connect 30 0 2 0;
#X connect 31 0 15 0;
#X connect 31 0 5 0;
#X connect 32 0 26 0;
#X connect 34 0 37 1;
#X connect 35 0 37 2;
#X connect 36 0 37 3;
