#N canvas 0 0 1440 872 12;
#X obj 933 18 cnv 19 310 140 empty empty OSC 20 12 0 12 #c7c6ff #404040 0;
#X obj 1081 37 hradio 34 1 0 4 empty empty osc\ |\ AM\ |\ FM\ |\ PM 0 -10 0 12 #c6feff #000000 #000000 0;
#X floatatom 980 94 5 0 0 2 freq - - 0;
#X obj 1116 93 hsl 110 19 0 900 0 0 empty empty FM_index -2 -7 0 11 #c6feff #000000 #000000 0 1;
#X obj 948 131 osc, f 19;
#X obj 1114 132 hsl 120 19 0 1 0 0 empty empty PM_index -2 -7 0 11 #c6feff #000000 #000000 0 1;
#X obj 940 276 vca;
#X obj 401 79 cnv 19 266 166 empty empty empty 20 12 0 12 #e0e0e0 #404040 0;
#X obj 629 112 vsl 19 90 0 8000 0 0 r empty R 0 -9 0 10 #00faff #000000 #000000 0 1;
#X obj 521 112 vsl 19 90 0 2000 0 0 a empty A 0 -9 0 10 #00faff #000000 #000000 0 1;
#X obj 558 112 vsl 19 90 0 6000 0 0 d empty D 0 -9 0 10 #00faff #000000 #000000 0 1;
#X obj 594 112 vsl 19 90 0.1 10 1 0 s empty S 0 -9 0 10 #00faff #000000 #000000 0 1;
#X obj 423 167 bng 33 250 50 0 empty empty Gate -10 -17 0 10 #00ff04 #000000 #000000;
#X obj 412 215 adsr_env, f 33;
#X obj 936 372 dac~;
#X obj 217 293 cnv 19 620 290 empty empty SECUENCIADOR 20 12 0 12 #c7c6ff #404040 0;
#X obj 233 532 secuenciador, f 83;
#X obj 231 442 hradio 25 1 0 8 empty empty *1\ /2\ /4\ /8\ /16\ *2\ *4\ *8\ *16 0 -10 0 11 #c6feff #000000 #000000 0;
#X obj 462 334 vsl 25 108 0.1 1 0 0 empty empty empty 0 -9 0 10 #c6feff #000000 #000000 0 1;
#X obj 508 330 vsl 25 108 0.1 1 0 0 empty empty empty 0 -9 0 10 #c6feff #000000 #000000 0 1;
#X obj 555 333 vsl 25 108 0.1 1 0 0 empty empty empty 0 -9 0 10 #c6feff #000000 #000000 0 1;
#X obj 599 334 vsl 25 108 0.1 1 0 0 empty empty empty 0 -9 0 10 #c6feff #000000 #000000 0 1;
#X obj 643 334 vsl 25 108 0.1 1 0 0 empty empty empty 0 -9 0 10 #c6feff #000000 #000000 0 1;
#X obj 689 333 vsl 25 108 0.1 1 0 0 empty empty empty 0 -9 0 10 #c6feff #000000 #000000 0 1;
#X obj 730 335 vsl 25 108 0.1 1 0 0 empty empty empty 0 -9 0 10 #c6feff #000000 #000000 0 1;
#X obj 766 338 vsl 25 108 0.1 1 0 0 empty empty empty 0 -9 0 10 #c6feff #000000 #000000 0 1;
#X text 300 399 TEMPO;
#X text 249 560 MIDI OUT;
#X text 729 555 Trigger/gate;
#X obj 940 300 vca;
#X floatatom 582 46 5 0 0 0 - - - 0;
#X floatatom 582 69 5 0 0 0 - - - 0;
#X obj 229 683 oct;
#X obj 292 670 hradio 33 1 0 12 empty empty 0\ \ \ \ 1\ \ \ \ 2\ \ \ \ 3\ \ \ 4\ \ \ 5\ \ \ 6\ \ \ 7\ \ \ 8\ \ \ 9\ \ 10\ \ 11 0 -10 0 14 #c6feff #000000 #000000 0;
#X obj 292 708 + 1;
#X obj 229 707 mtof;
#X obj 460 454 expr int($f1/1 * 12) + 3;
#X obj 431 501 f;
#X floatatom 458 303 5 0 0 0 - - - 0;
#X obj 467 499 f;
#X obj 501 501 f;
#X floatatom 505 303 5 0 0 0 - - - 0;
#X floatatom 549 304 5 0 0 0 - - - 0;
#X obj 539 505 f;
#X floatatom 597 304 5 0 0 0 - - - 0;
#X obj 574 506 f;
#X floatatom 638 307 5 0 0 0 - - - 0;
#X obj 624 505 f;
#X floatatom 679 310 5 0 0 0 - - - 0;
#X obj 669 502 f;
#X floatatom 720 310 5 0 0 0 - - - 0;
#X obj 705 505 f;
#X floatatom 762 311 5 0 0 0 - - - 0;
#X text 400 305 Nota;
#X obj 432 480 bng 19 250 50 0 empty empty empty 0 -10 0 12 #fcfcfc #000000 #000000;
#X obj 467 477 bng 19 250 50 0 empty empty empty 0 -10 0 12 #fcfcfc #000000 #000000;
#X obj 501 478 bng 19 250 50 0 empty empty empty 0 -10 0 12 #fcfcfc #000000 #000000;
#X obj 539 482 bng 19 250 50 0 empty empty empty 0 -10 0 12 #fcfcfc #000000 #000000;
#X obj 574 484 bng 19 250 50 0 empty empty empty 0 -10 0 12 #fcfcfc #000000 #000000;
#X obj 623 482 bng 19 250 50 0 empty empty empty 0 -10 0 12 #fcfcfc #000000 #000000;
#X obj 669 478 bng 19 250 50 0 empty empty empty 0 -10 0 12 #fcfcfc #000000 #000000;
#X obj 703 482 bng 19 250 50 0 empty empty empty 0 -10 0 12 #fcfcfc #000000 #000000;
#X obj 265 493 hradio 30 1 0 2 empty empty TEMPO\ \ MS 0 -10 0 10 #c6feff #000000 #000000 0;
#X floatatom 348 498 5 0 0 1 ms - - 0;
#X obj 1019 178 cnv 19 310 140 empty empty OSC 20 12 0 12 #c7c6ff #404040 0;
#X obj 1167 197 hradio 34 1 0 4 empty empty osc\ |\ AM\ |\ FM\ |\ PM 0 -10 0 12 #c6feff #000000 #000000 0;
#X floatatom 1066 254 5 0 0 2 freq - - 0;
#X obj 1202 253 hsl 110 19 0 900 0 0 empty empty FM_index -2 -7 0 11 #c6feff #000000 #000000 0 1;
#X obj 1034 291 osc, f 19;
#X obj 1200 292 hsl 120 19 0 1 0 0 empty empty PM_index -2 -7 0 11 #c6feff #000000 #000000 0 1;
#X obj 1104 342 cnv 19 200 300 empty empty 5xLFO 20 12 0 12 #c7c6ff #404040 0;
#X obj 1220 389 vradio 37 1 0 5 empty empty empty 0 -10 0 12 #c6feff #000000 #000000 0;
#X text 1264 390 SIN;
#X text 1268 432 SAW;
#X text 1265 471 RAMP;
#X text 1267 509 SQU;
#X text 1270 545 TRI;
#X text 1122 614 Audio Out;
#X obj 1166 402 vsl 33 162 0 1 0 0 empty empty Freq 0 -9 0 12 #c6feff #000000 #000000 0 1;
#X obj 1170 585 5xLFO, f 9;
#X floatatom 1123 545 5 0 0 0 - - - 0;
#X text 1242 616 Trigger;
#X floatatom 910 592 5 0 0 0 - - - 0;
#X connect 1 0 4 2;
#X connect 2 0 4 1;
#X connect 3 0 4 3;
#X connect 4 0 68 0;
#X connect 5 0 4 4;
#X connect 6 0 29 0;
#X connect 8 0 13 4;
#X connect 9 0 13 1;
#X connect 10 0 13 2;
#X connect 11 0 13 3;
#X connect 12 0 13 0;
#X connect 13 0 6 1;
#X connect 16 0 32 0;
#X connect 16 1 12 0;
#X connect 16 1 29 1;
#X connect 16 1 82 0;
#X connect 17 0 16 0;
#X connect 18 0 16 3;
#X connect 18 0 36 0;
#X connect 18 0 54 0;
#X connect 19 0 16 4;
#X connect 19 0 36 0;
#X connect 19 0 55 0;
#X connect 20 0 16 5;
#X connect 20 0 36 0;
#X connect 20 0 56 0;
#X connect 21 0 16 6;
#X connect 21 0 36 0;
#X connect 21 0 57 0;
#X connect 22 0 16 7;
#X connect 22 0 36 0;
#X connect 22 0 58 0;
#X connect 23 0 16 8;
#X connect 23 0 36 0;
#X connect 23 0 59 0;
#X connect 24 0 16 9;
#X connect 24 0 36 0;
#X connect 24 0 60 0;
#X connect 25 0 16 10;
#X connect 25 0 36 0;
#X connect 25 0 61 0;
#X connect 29 0 14 0;
#X connect 29 0 14 1;
#X connect 30 0 31 0;
#X connect 32 0 35 0;
#X connect 33 0 34 0;
#X connect 34 0 32 1;
#X connect 35 0 66 0;
#X connect 36 0 37 1;
#X connect 36 0 39 1;
#X connect 36 0 40 1;
#X connect 36 0 43 1;
#X connect 36 0 45 1;
#X connect 36 0 47 1;
#X connect 36 0 49 1;
#X connect 36 0 51 1;
#X connect 37 0 38 0;
#X connect 39 0 41 0;
#X connect 40 0 42 0;
#X connect 43 0 44 0;
#X connect 45 0 46 0;
#X connect 47 0 48 0;
#X connect 49 0 50 0;
#X connect 51 0 52 0;
#X connect 54 0 37 0;
#X connect 55 0 39 0;
#X connect 56 0 40 0;
#X connect 57 0 43 0;
#X connect 58 0 45 0;
#X connect 59 0 47 0;
#X connect 60 0 49 0;
#X connect 61 0 51 0;
#X connect 62 0 16 1;
#X connect 63 0 16 2;
#X connect 65 0 68 2;
#X connect 66 0 68 1;
#X connect 67 0 68 3;
#X connect 68 0 6 0;
#X connect 69 0 68 4;
#X connect 71 0 79 1;
#X connect 78 0 79 0;
#X connect 78 0 80 0;
#X connect 79 0 4 0;
#X connect 79 1 2 0;
