#N canvas 0 28 1280 772 12;
#X obj 69 143 inlet~, f 17;
#X obj 279 118 inlet;
#X msg 279 142 roomsize \$1;
#X obj 433 119 inlet;
#X msg 433 143 wet \$1;
#X obj 537 123 inlet;
#X msg 537 147 dry \$1;
#X obj 321 262 freeverb~;
#X text 65 106 Entrada de audio;
#X obj 321 328 outlet~;
#X obj 741 316 cnv 19 406 106 empty empty Reverb 20 12 0 12 #e0e0e0 #404040 0;
#X obj 782 360 hsl 102 29 0 1 0 0 empty empty roomsize -2 -10 0 12 #c6feff #000000 #000000 0 1;
#X obj 911 362 hsl 102 29 0 1 0 0 empty empty wet -2 -10 0 12 #c6feff #000000 #000000 0 1;
#X obj 1042 361 hsl 102 29 0 1 0 0 empty empty dry -2 -10 0 12 #c6feff #000000 #000000 0 1;
#X obj 744 402 reverb, f 26;
#X connect 0 0 7 0;
#X connect 1 0 2 0;
#X connect 2 0 7 0;
#X connect 3 0 4 0;
#X connect 4 0 7 0;
#X connect 5 0 6 0;
#X connect 6 0 7 0;
#X connect 7 0 9 0;
#X connect 11 0 14 1;
#X connect 12 0 14 2;
#X connect 13 0 14 3;
