#N canvas 0 0 1440 872 12;
#X obj 743 326 wrap~;
#X obj 743 374 cos~;
#X obj 740 496 dac~;
#X floatatom 674 265 5 0 0 0 - - - 0;
#X obj 674 292 phasor~ 100;
#X obj 743 351 *~ 440;
#X floatatom 827 290 5 0 0 0 - - - 0;
#X obj 743 398 vca;
#X obj 835 379 hsl 162 19 0 1 0 0 empty empty empty -2 -10 0 12 #fcfcfc #000000 #000000 0 1;
#X obj 101 402 osc~ 440;
#X obj 126 455 *~;
#X obj 202 405 osc~ 320;
#X obj 126 479 *~;
#X obj 183 474 hsl 162 19 0 1 0 0 empty empty empty -2 -10 0 12 #fcfcfc #000000 #000000 0 1;
#X floatatom 232 357 5 0 0 0 - - - 0;
#X floatatom 91 364 5 0 0 0 - - - 0;
#X text 122 271 Ring Modulation;
#X text 695 215 Oscillator SYNC;
#X connect 0 0 5 0;
#X connect 1 0 7 0;
#X connect 3 0 4 0;
#X connect 4 0 0 0;
#X connect 5 0 1 0;
#X connect 6 0 5 1;
#X connect 7 0 2 0;
#X connect 7 0 2 1;
#X connect 8 0 7 1;
#X connect 9 0 10 0;
#X connect 10 0 12 0;
#X connect 11 0 10 1;
#X connect 13 0 12 1;
#X connect 14 0 11 0;
#X connect 15 0 9 0;
