#N canvas 0 0 1440 872 12;
#X obj 36 156 soundfiler;
#X floatatom 36 180 5 0 0 0 - - - 0;
#X obj 36 104 openpanel;
#X obj 34 538 outlet~;
#X obj 36 75 bng 19 250 50 0 empty sampler_panel1 Open 0 -10 0 12 #fcfcfc #000000 #000000;
#X obj 29 457 bng 19 250 50 0 empty sampler_bang1 empty 0 -10 0 12 #fcfcfc #000000 #000000;
#X obj 29 509 *~;
#X obj 171 516 *~;
#X obj 309 508 *~;
#X obj 464 515 *~;
#X obj 618 514 *~;
#X obj 760 520 *~;
#X obj 172 458 bng 19 250 50 0 empty sampler_bang2 empty 0 -10 0 12 #fcfcfc #000000 #000000;
#X obj 320 453 bng 19 250 50 0 empty sampler_bang3 empty 0 -10 0 12 #fcfcfc #000000 #000000;
#X obj 476 454 bng 19 250 50 0 empty sampler_bang4 empty 0 -10 0 12 #fcfcfc #000000 #000000;
#X obj 626 454 bng 19 250 50 0 empty sampler_bang5 empty 0 -10 0 12 #fcfcfc #000000 #000000;
#X obj 769 454 bng 19 250 50 0 empty sampler_bang6 empty 0 -10 0 12 #fcfcfc #000000 #000000;
#X obj 63 459 r sampler_vol1;
#X obj 208 458 r sampler_vol2;
#X obj 357 455 r sampler_vol3;
#X obj 509 455 r sampler_vol4;
#X obj 651 456 r sampler_vol5;
#X obj 792 456 r sampler_vol6;
#X obj 41 319 soundfiler;
#X floatatom 41 343 5 0 0 0 - - - 0;
#X obj 41 267 openpanel;
#X obj 41 236 bng 19 250 50 0 empty sampler_panel2 Open 0 -10 0 12 #fcfcfc #000000 #000000;
#N canvas 0 50 450 250 (subpatch) 0;
#X array sample2 48276 float 0;
#X coords 0 1 48275 -1 100 70 1 0 0;
#X restore 244 304 graph;
#N canvas 0 50 450 250 (subpatch) 0;
#X array sample1 1.30161e+07 float 0;
#X coords 0 1 1.30161e+07 -1 100 70 1 0 0;
#X restore 236 127 graph;
#X msg 36 131 read -resize \$1 sample1;
#X msg 41 294 read -resize \$1 sample2;
#X obj 387 154 soundfiler;
#X floatatom 387 178 5 0 0 0 - - - 0;
#X obj 387 102 openpanel;
#X obj 387 71 bng 19 250 50 0 empty sampler_panel3 Open 0 -10 0 12 #fcfcfc #000000 #000000;
#X obj 392 317 soundfiler;
#X floatatom 392 341 5 0 0 0 - - - 0;
#X obj 392 265 openpanel;
#X obj 392 239 bng 19 250 50 0 empty sampler_panel4 Open 0 -10 0 12 #fcfcfc #000000 #000000;
#N canvas 0 50 450 250 (subpatch) 0;
#X array sample4 48276 float 0;
#X coords 0 1 48275 -1 100 70 1 0 0;
#X restore 595 302 graph;
#N canvas 0 50 450 250 (subpatch) 0;
#X array sample3 1.30161e+07 float 0;
#X coords 0 1 1.30161e+07 -1 100 70 1 0 0;
#X restore 587 125 graph;
#X msg 387 129 read -resize \$1 sample3;
#X msg 392 293 read -resize \$1 sample4;
#X obj 174 545 outlet~;
#X obj 317 546 outlet~;
#X obj 464 539 outlet~;
#X obj 618 538 outlet~;
#X obj 760 544 outlet~;
#X text 396 605 Salidas de audio;
#X obj 736 144 soundfiler;
#X floatatom 736 168 5 0 0 0 - - - 0;
#X obj 736 92 openpanel;
#X obj 736 64 bng 19 250 50 0 empty sampler_panel5 Open 0 -10 0 12 #fcfcfc #000000 #000000;
#X obj 741 307 soundfiler;
#X floatatom 741 331 5 0 0 0 - - - 0;
#X obj 741 255 openpanel;
#X obj 741 227 bng 19 250 50 0 empty sampler_panel6 Open 0 -10 0 12 #fcfcfc #000000 #000000;
#N canvas 0 50 450 250 (subpatch) 0;
#X array sample6 48276 float 0;
#X coords 0 1 48275 -1 100 70 1 0 0;
#X restore 944 292 graph;
#N canvas 0 50 450 250 (subpatch) 0;
#X array sample5 48276 float 0;
#X coords 0 1 48275 -1 100 70 1 0 0;
#X restore 936 115 graph;
#X msg 736 119 read -resize \$1 sample5;
#X msg 741 282 read -resize \$1 sample6;
#X obj 935 432 cnv 19 100 110 empty empty 1 20 12 0 12 #bbbbbb #404040 0;
#X obj 945 456 bng 30 250 50 0 sampler_bang1 empty empty -1 -10 0 12 #c6ffc7 #000000 #000000;
#X obj 945 508 bng 26 250 50 0 sampler_panel1 empty open -1 -8 0 11 #c6ffc7 #000000 #000000;
#X obj 939 677 sampler, f 45;
#X obj 992 456 vsl 23 76 0 1 0 0 sampler_vol1 empty Vol 0 -9 0 10 #c6feff #000000 #000000 0 1;
#X obj 1045 432 cnv 19 100 110 empty empty 2 20 12 0 12 #bbbbbb #404040 0;
#X obj 1055 456 bng 30 250 50 0 sampler_bang2 empty empty -1 -10 0 12 #c6ffc7 #000000 #000000;
#X obj 1055 508 bng 26 250 50 0 sampler_panel2 empty open -1 -8 0 11 #c6ffc7 #000000 #000000;
#X obj 1102 456 vsl 23 76 0 1 0 0 sampler_vol2 empty Vol 0 -9 0 10 #c6feff #000000 #000000 0 1;
#X obj 1156 431 cnv 19 100 110 empty empty 3 20 12 0 12 #bbbbbb #404040 0;
#X obj 1166 455 bng 30 250 50 0 sampler_bang3 empty empty -1 -10 0 12 #c6ffc7 #000000 #000000;
#X obj 1166 507 bng 26 250 50 0 sampler_panel3 empty open -1 -8 0 11 #c6ffc7 #000000 #000000;
#X obj 1213 455 vsl 23 76 0 1 0 0 sampler_vol3 empty Vol 0 -9 0 10 #c6feff #000000 #000000 0 1;
#X obj 936 553 cnv 19 100 110 empty empty 4 20 12 0 12 #bbbbbb #404040 0;
#X obj 946 577 bng 30 250 50 0 sampler_bang4 empty empty -1 -10 0 12 #c6ffc7 #000000 #000000;
#X obj 946 629 bng 26 250 50 0 sampler_panel4 empty open -1 -8 0 11 #c6ffc7 #000000 #000000;
#X obj 993 577 vsl 23 76 0 1 0 0 sampler_vol4 empty Vol 0 -9 0 10 #c6feff #000000 #000000 0 1;
#X obj 1046 553 cnv 19 100 110 empty empty 5 20 12 0 12 #bbbbbb #404040 0;
#X obj 1056 577 bng 30 250 50 0 sampler_bang5 empty empty -1 -10 0 12 #c6ffc7 #000000 #000000;
#X obj 1056 629 bng 26 250 50 0 sampler_panel5 empty open -1 -8 0 11 #c6ffc7 #000000 #000000;
#X obj 1103 577 vsl 23 76 0 1 0 0 sampler_vol5 empty Vol 0 -9 0 10 #c6feff #000000 #000000 0 1;
#X obj 1157 553 cnv 19 100 110 empty empty 6 20 12 0 12 #bbbbbb #404040 0;
#X obj 1167 577 bng 30 250 50 0 sampler_bang6 empty empty -1 -10 0 12 #c6ffc7 #000000 #000000;
#X obj 1167 629 bng 26 250 50 0 sampler_panel6 empty open -1 -8 0 11 #c6ffc7 #000000 #000000;
#X obj 1214 577 vsl 23 76 0 1 0 0 sampler_vol6 empty Vol 0 -9 0 10 #c6feff #000000 #000000 0 1;
#X text 1049 386 Interfaz;
#X obj 315 477 tabplay~ sample3;
#X obj 171 492 tabplay~ sample2;
#X obj 29 485 tabplay~ sample1;
#X obj 464 491 tabplay~ sample4;
#X obj 618 490 tabplay~ sample5;
#X obj 760 496 tabplay~ sample6;
#X connect 0 0 1 0;
#X connect 2 0 29 0;
#X connect 4 0 2 0;
#X connect 5 0 89 0;
#X connect 6 0 3 0;
#X connect 7 0 43 0;
#X connect 8 0 44 0;
#X connect 9 0 45 0;
#X connect 10 0 46 0;
#X connect 11 0 47 0;
#X connect 12 0 88 0;
#X connect 13 0 87 0;
#X connect 14 0 90 0;
#X connect 15 0 91 0;
#X connect 16 0 92 0;
#X connect 17 0 6 1;
#X connect 18 0 7 1;
#X connect 19 0 8 1;
#X connect 20 0 9 1;
#X connect 21 0 10 1;
#X connect 22 0 11 1;
#X connect 23 0 24 0;
#X connect 25 0 30 0;
#X connect 26 0 25 0;
#X connect 29 0 0 0;
#X connect 30 0 23 0;
#X connect 31 0 32 0;
#X connect 33 0 41 0;
#X connect 34 0 33 0;
#X connect 35 0 36 0;
#X connect 37 0 42 0;
#X connect 38 0 37 0;
#X connect 41 0 31 0;
#X connect 42 0 35 0;
#X connect 49 0 50 0;
#X connect 51 0 59 0;
#X connect 52 0 51 0;
#X connect 53 0 54 0;
#X connect 55 0 60 0;
#X connect 56 0 55 0;
#X connect 59 0 49 0;
#X connect 60 0 53 0;
#X connect 87 0 8 0;
#X connect 88 0 7 0;
#X connect 89 0 6 0;
#X connect 90 0 9 0;
#X connect 91 0 10 0;
#X connect 92 0 11 0;
