#N canvas 0 0 1440 872 12;
#X floatatom 91 140 5 0 0 2 - - - 0;
#X obj 24 4 inlet~;
#X obj 315 324 hradio 34 1 0 4 empty empty empty 0 -10 0 12 #c6feff #000000 #000000 0;
#X obj 252 453 *~;
#X msg 89 431 1;
#X msg 126 431 0;
#X obj 91 113 inlet;
#X obj 94 217 f;
#X obj 105 270 bng 19 250 50 0 empty m7 empty 0 -10 0 12 #fcfcfc #000000 #000000;
#X obj 317 296 inlet;
#X obj 37 467 *~ 1;
#X text 8 -27 Entrada de audio;
#X obj 933 18 cnv 19 310 140 empty empty SAW 20 12 0 12 #c7c6ff #404040 0;
#X obj 1013 42 hradio 34 1 0 4 empty empty saw\ |\ AM\ |\ FM\ |\ PM 0 -10 0 12 #c6feff #000000 #000000 0;
#X floatatom 980 93 5 0 0 2 freq - - 0;
#X text 867 380 Selector de modo (local \, modulado);
#X obj 182 214 +~;
#X obj 368 205 *~;
#X obj 382 170 hsl 162 19 0 900 0 0 empty empty FM_Index -2 -10 0 12 #ffffff #000000 #000000 0 1;
#X msg 391 528 1;
#X msg 353 527 0;
#X obj 361 498 sel 1;
#X obj 236 295 *~;
#X obj 249 240 sel 2;
#X msg 249 266 1;
#X msg 281 266 0;
#X obj 372 123 inlet;
#X obj 1048 98 hsl 110 19 0 900 0 0 empty empty FM_index -2 -7 0 11 #c6feff #000000 #000000 0 1;
#X text 869 437 Si es 0 activamos el oscilador local;
#X text 869 472 Si es 1 se aplica modulación de amplitud (AM);
#X text 868 508 Si es 2 se aplica modulación de frecuencia (FM);
#X text 65 82 Entrada de frecuencia;
#X obj 20 690 outlet~;
#X obj 96 399 sel 0;
#X obj 524 549 cos~;
#X obj 520 517 +~;
#X obj 586 487 *~;
#X obj 634 486 hsl 162 19 0 1 0 0 empty empty PM_index -2 -10 0 12 #fcfcfc #000000 #000000 0 1;
#X obj 519 620 *~;
#X msg 616 616 1;
#X msg 578 615 0;
#X obj 591 558 sel 3;
#X obj 617 415 inlet;
#X obj 1098 139 hsl 120 19 0 1 0 0 empty empty PM_index -2 -7 0 11 #c6feff #000000 #000000 0 1;
#X text 869 541 Si es 3 se aplica modulación de fase (PM);
#X obj 518 53 snapshot~;
#X obj 516 0 tgl 19 0 empty empty empty 0 -10 0 12 #fcfcfc #000000 #000000 0 1;
#X obj 515 -71 loadbang;
#X obj 515 -47 bng 19 250 50 0 empty empty empty 0 -10 0 12 #fcfcfc #000000 #000000;
#X msg 515 -23 1;
#X floatatom 517 80 5 0 0 0 - - - 0;
#X obj 517 105 != 0;
#X floatatom 517 129 5 0 0 0 - - - 0;
#X text 202 185 FM;
#X text 531 153 Activar/Desactivar síntesis dependiendo de snapshot;
#X text 421 495 AM;
#X obj 252 559 *~;
#X obj 236 319 *~;
#X obj 252 583 *~;
#X obj 519 644 *~;
#X obj 37 336 phasor~;
#X obj 186 246 phasor~;
#X obj 258 425 *~ 1;
#X obj 37 491 -~ 0.5;
#X obj 37 515 *~ 2;
#X obj 41 564 clip~ -1 1;
#X obj 252 477 +~ 1;
#X obj 257 505 *~ 1.5;
#X obj 186 282 *~ 2;
#X obj 524 573 +~ 1;
#X obj 948 131 saw, f 19;
#X msg 87 303 0;
#X obj 72 594 clip~ -1 1;
#X obj 221 635 clip~ -1 1;
#X obj 528 678 clip~ -1 1;
#X obj 516 24 metro 120;
#X connect 0 0 7 1;
#X connect 0 0 60 0;
#X connect 0 0 16 0;
#X connect 1 0 45 0;
#X connect 1 0 17 0;
#X connect 1 0 62 0;
#X connect 1 0 36 0;
#X connect 2 0 23 0;
#X connect 2 0 21 0;
#X connect 2 0 33 0;
#X connect 2 0 41 0;
#X connect 2 0 8 0;
#X connect 3 0 66 0;
#X connect 4 0 10 1;
#X connect 5 0 10 1;
#X connect 6 0 0 0;
#X connect 7 0 16 0;
#X connect 7 0 60 0;
#X connect 8 0 7 0;
#X connect 8 0 71 0;
#X connect 9 0 2 0;
#X connect 10 0 63 0;
#X connect 13 0 70 2;
#X connect 14 0 70 1;
#X connect 16 0 61 0;
#X connect 17 0 16 1;
#X connect 18 0 17 1;
#X connect 19 0 56 1;
#X connect 20 0 56 1;
#X connect 21 0 19 0;
#X connect 21 1 20 0;
#X connect 22 0 57 0;
#X connect 23 0 24 0;
#X connect 23 1 25 0;
#X connect 24 0 22 1;
#X connect 25 0 22 1;
#X connect 26 0 18 0;
#X connect 27 0 70 3;
#X connect 33 0 4 0;
#X connect 33 1 5 0;
#X connect 34 0 69 0;
#X connect 35 0 34 0;
#X connect 36 0 35 1;
#X connect 37 0 36 1;
#X connect 38 0 59 0;
#X connect 39 0 38 1;
#X connect 40 0 38 1;
#X connect 41 0 39 0;
#X connect 41 1 40 0;
#X connect 42 0 37 0;
#X connect 43 0 70 4;
#X connect 45 0 50 0;
#X connect 46 0 75 0;
#X connect 47 0 48 0;
#X connect 48 0 49 0;
#X connect 49 0 46 0;
#X connect 50 0 51 0;
#X connect 51 0 52 0;
#X connect 52 0 57 1;
#X connect 52 0 58 1;
#X connect 52 0 59 1;
#X connect 56 0 58 0;
#X connect 57 0 72 0;
#X connect 58 0 73 0;
#X connect 59 0 74 0;
#X connect 60 0 3 0;
#X connect 60 0 10 0;
#X connect 60 0 35 0;
#X connect 61 0 68 0;
#X connect 62 0 3 1;
#X connect 63 0 64 0;
#X connect 64 0 65 0;
#X connect 65 0 32 0;
#X connect 66 0 67 0;
#X connect 67 0 56 0;
#X connect 68 0 22 0;
#X connect 69 0 38 0;
#X connect 71 0 60 1;
#X connect 71 0 61 1;
#X connect 72 0 32 0;
#X connect 73 0 32 0;
#X connect 74 0 32 0;
#X connect 75 0 45 0;
