#N canvas 0 0 1440 872 12;
#X obj 44 211 r m1;
#X obj 45 252 spigot;
#X obj 115 211 sel 0;
#X msg 115 237 1;
#X msg 152 238 0;
#X obj 198 257 spigot;
#X msg 268 239 1;
#X msg 305 240 0;
#X obj 197 213 r m2;
#X obj 353 261 spigot;
#X msg 423 239 1;
#X msg 460 240 0;
#X obj 506 261 spigot;
#X msg 576 241 1;
#X msg 613 242 0;
#X obj 648 263 spigot;
#X msg 718 243 1;
#X msg 755 244 0;
#X obj 801 263 spigot;
#X msg 871 245 1;
#X msg 908 246 0;
#X obj 956 258 spigot;
#X msg 1026 245 1;
#X msg 1063 246 0;
#X obj 1109 265 spigot;
#X msg 1182 243 1;
#X msg 1219 244 0;
#X obj 270 213 sel 1;
#X obj 423 204 sel 2;
#X obj 576 208 sel 3;
#X obj 718 211 sel 4;
#X obj 871 213 sel 5;
#X obj 1026 214 sel 6;
#X obj 1182 216 sel 7;
#X obj 352 213 r m3;
#X obj 505 215 r m4;
#X obj 160 719 f;
#X obj 51 505 sel 0 1 2 3 4 5 6 7;
#X obj 50 535 bng 19 250 50 0 empty empty empty 0 -10 0 12 #fcfcfc #000000 #000000;
#X obj 81 536 bng 19 250 50 0 empty empty empty 0 -10 0 12 #fcfcfc #000000 #000000;
#X obj 113 535 bng 19 250 50 0 empty empty empty 0 -10 0 12 #fcfcfc #000000 #000000;
#X obj 144 536 bng 19 250 50 0 empty empty empty 0 -10 0 12 #fcfcfc #000000 #000000;
#X obj 177 536 bng 19 250 50 0 empty empty empty 0 -10 0 12 #fcfcfc #000000 #000000;
#X obj 208 537 bng 19 250 50 0 empty empty empty 0 -10 0 12 #fcfcfc #000000 #000000;
#X obj 240 536 bng 19 250 50 0 empty empty empty 0 -10 0 12 #fcfcfc #000000 #000000;
#X obj 271 537 bng 19 250 50 0 empty empty empty 0 -10 0 12 #fcfcfc #000000 #000000;
#X obj 194 724 f, f 4;
#X obj 246 724 f;
#X obj 293 719 f;
#X obj 343 718 f;
#X obj 400 721 f;
#X obj 443 724 f;
#X obj 497 723 f;
#X obj 1147 772 outlet;
#X obj 654 131 inlet;
#X obj 896 591 inlet;
#X obj 944 591 inlet;
#X obj 1002 592 inlet;
#X obj 1058 592 inlet;
#X obj 1116 593 inlet;
#X obj 1178 595 inlet;
#X obj 1235 596 inlet;
#X obj 1290 594 inlet;
#X obj 463 59 loadbang;
#X obj 463 83 bng 19 250 50 0 empty empty empty 0 -10 0 12 #fcfcfc #000000 #000000;
#X msg 414 134 0, f 5;
#X msg 693 468 0.5;
#X obj 463 107 delay 100;
#X obj 463 131 bng 19 250 50 0 empty empty empty 0 -10 0 12 #fcfcfc #000000 #000000;
#X obj 647 217 r m6;
#X obj 800 219 r m7;
#X obj 955 219 r m8;
#X obj 1108 221 r m9;
#X text 1219 772 trigger;
#X obj 76 799 outlet;
#X text 134 799 MIDI OUT;
#X obj 75 751 int;
#X obj 79 701 / 1;
#X obj 79 726 * 12;
#X obj 720 107 inlet;
#X obj 720 131 * 10;
#X obj 773 331 metro 350;
#X obj 858 109 inlet;
#X obj 773 355 f 0;
#X obj 773 379 + 1;
#X obj 773 403 % 8;
#X floatatom 773 428 5 0 0 0 - - - 0;
#X obj 782 292 tgl 19 0 empty empty empty 0 -10 0 12 #fcfcfc #000000 #000000 0 1;
#X text 714 87 selector;
#X obj 720 155 sel 10;
#X obj 776 155 bng 19 250 50 0 empty empty empty 0 -10 0 12 #fcfcfc #000000 #000000;
#X obj 776 179 delay 100;
#X text 903 110 Milisec;
#X obj 773 451 spigot;
#X obj 898 412 bng 19 250 50 0 empty empty empty 0 -10 0 12 #fcfcfc #000000 #000000;
#X msg 898 436 0;
#X msg 939 439 1;
#X obj 896 615 * 1;
#X connect 0 0 1 0;
#X connect 1 0 37 0;
#X connect 2 0 3 0;
#X connect 2 1 4 0;
#X connect 3 0 1 1;
#X connect 4 0 1 1;
#X connect 5 0 37 0;
#X connect 6 0 5 1;
#X connect 7 0 5 1;
#X connect 8 0 5 0;
#X connect 9 0 37 0;
#X connect 10 0 9 1;
#X connect 11 0 9 1;
#X connect 12 0 37 0;
#X connect 13 0 12 1;
#X connect 14 0 12 1;
#X connect 15 0 37 0;
#X connect 16 0 15 1;
#X connect 17 0 15 1;
#X connect 18 0 37 0;
#X connect 19 0 18 1;
#X connect 20 0 18 1;
#X connect 21 0 37 0;
#X connect 22 0 21 1;
#X connect 23 0 21 1;
#X connect 24 0 37 0;
#X connect 25 0 24 1;
#X connect 26 0 24 1;
#X connect 27 0 6 0;
#X connect 27 1 7 0;
#X connect 28 0 10 0;
#X connect 28 1 11 0;
#X connect 29 0 13 0;
#X connect 29 1 14 0;
#X connect 30 0 16 0;
#X connect 30 1 17 0;
#X connect 31 0 19 0;
#X connect 31 1 20 0;
#X connect 32 0 22 0;
#X connect 32 1 23 0;
#X connect 33 0 25 0;
#X connect 33 1 26 0;
#X connect 34 0 9 0;
#X connect 35 0 12 0;
#X connect 36 0 53 0;
#X connect 36 0 77 0;
#X connect 37 0 38 0;
#X connect 37 1 39 0;
#X connect 37 2 40 0;
#X connect 37 3 41 0;
#X connect 37 4 42 0;
#X connect 37 5 43 0;
#X connect 37 6 44 0;
#X connect 37 7 45 0;
#X connect 38 0 36 0;
#X connect 39 0 46 0;
#X connect 40 0 47 0;
#X connect 41 0 48 0;
#X connect 42 0 49 0;
#X connect 43 0 50 0;
#X connect 44 0 51 0;
#X connect 45 0 52 0;
#X connect 46 0 53 0;
#X connect 46 0 77 0;
#X connect 47 0 53 0;
#X connect 47 0 77 0;
#X connect 48 0 53 0;
#X connect 48 0 77 0;
#X connect 49 0 53 0;
#X connect 49 0 77 0;
#X connect 50 0 53 0;
#X connect 50 0 77 0;
#X connect 51 0 53 0;
#X connect 51 0 77 0;
#X connect 52 0 53 0;
#X connect 52 0 77 0;
#X connect 54 0 2 0;
#X connect 54 0 32 0;
#X connect 54 0 31 0;
#X connect 54 0 30 0;
#X connect 54 0 29 0;
#X connect 54 0 28 0;
#X connect 54 0 27 0;
#X connect 54 0 33 0;
#X connect 55 0 36 1;
#X connect 55 0 97 0;
#X connect 56 0 46 1;
#X connect 57 0 47 1;
#X connect 58 0 48 1;
#X connect 59 0 49 1;
#X connect 60 0 50 1;
#X connect 61 0 51 1;
#X connect 62 0 52 1;
#X connect 63 0 64 0;
#X connect 64 0 67 0;
#X connect 64 0 66 0;
#X connect 64 0 81 0;
#X connect 65 0 2 0;
#X connect 66 0 52 1;
#X connect 66 0 51 1;
#X connect 66 0 50 1;
#X connect 66 0 49 1;
#X connect 66 0 48 1;
#X connect 66 0 47 1;
#X connect 66 0 46 1;
#X connect 66 0 36 1;
#X connect 67 0 68 0;
#X connect 68 0 65 0;
#X connect 69 0 15 0;
#X connect 70 0 18 0;
#X connect 71 0 21 0;
#X connect 72 0 24 0;
#X connect 76 0 74 0;
#X connect 77 0 78 0;
#X connect 78 0 76 0;
#X connect 79 0 80 0;
#X connect 80 0 2 0;
#X connect 80 0 27 0;
#X connect 80 0 28 0;
#X connect 80 0 29 0;
#X connect 80 0 30 0;
#X connect 80 0 31 0;
#X connect 80 0 32 0;
#X connect 80 0 33 0;
#X connect 80 0 89 0;
#X connect 81 0 83 0;
#X connect 82 0 81 1;
#X connect 83 0 84 0;
#X connect 84 0 85 0;
#X connect 84 0 83 1;
#X connect 85 0 86 0;
#X connect 86 0 93 0;
#X connect 87 0 81 0;
#X connect 89 0 90 0;
#X connect 89 1 91 0;
#X connect 89 1 94 0;
#X connect 90 0 87 0;
#X connect 90 0 91 0;
#X connect 90 0 96 0;
#X connect 91 0 87 0;
#X connect 93 0 37 0;
#X connect 94 0 95 0;
#X connect 95 0 93 1;
#X connect 96 0 93 1;
