#N canvas 0 44 1920 997 12;
#X obj 989 781 dac~, f 13;
#X obj 589 216 cnv 19 164 276 empty empty Programas 20 12 0 12 #c7c6ff #404040 0;
#X obj 209 215 cnv 19 164 276 empty empty FM_2_Synthesizer 20 12 0 12 #c7c6ff #404040 0;
#X obj 240 303 bng 15 250 50 0 fm2_trigger fm_2_bang Trigger -10 -17 0 10 #e3c6ff #000000 #c6feff;
#N canvas 4 4 1920 1037 programa5 0;
#X obj 524 331 bng 19 250 50 0 empty empty empty 0 -10 0 12 #fcfcfc #000000 #000000;
#X obj 500 471 s fm2;
#X obj 594 391 s gm2;
#X floatatom 502 422 5 0 0 0 - - - 0;
#X msg 655 230 0;
#X msg 592 228 1;
#X obj 599 142 r signal;
#X obj 495 274 spigot;
#X obj 391 380 s fm_2_bang;
#X obj 453 473 s f1;
#X msg 649 429 425;
#X text 860 214 programa 2;
#X msg 453 449 6;
#X obj 597 168 sel 6 7;
#X obj 649 453 s fm1_r;
#X obj 502 445 / 10;
#X obj 499 396 random 970;
#X obj 594 365 random 590;
#X obj 495 249 r m6;
#X connect 0 0 10 0;
#X connect 0 0 8 0;
#X connect 0 0 12 0;
#X connect 0 0 16 0;
#X connect 0 0 17 0;
#X connect 3 0 15 0;
#X connect 4 0 7 1;
#X connect 5 0 7 1;
#X connect 6 0 13 0;
#X connect 7 0 0 0;
#X connect 10 0 14 0;
#X connect 12 0 9 0;
#X connect 13 0 5 0;
#X connect 13 1 5 0;
#X connect 13 2 4 0;
#X connect 15 0 1 0;
#X connect 16 0 3 0;
#X connect 17 0 2 0;
#X connect 18 0 7 0;
#X restore 610 402 pd programa5;
#X obj 239 332 r~ fm2;
#N canvas 4 4 1920 1037 programa6 0;
#X obj 524 311 bng 19 250 50 0 empty empty empty 0 -10 0 12 #fcfcfc #000000 #000000;
#X floatatom 392 448 5 0 0 0 - - - 0;
#X floatatom 533 403 5 0 0 0 - - - 0;
#X msg 662 223 0;
#X msg 599 221 1;
#X obj 606 135 r signal;
#X obj 524 289 spigot;
#X obj 534 427 / 10;
#X obj 604 347 random 1200;
#X obj 517 375 random 900;
#X obj 386 405 random 709;
#X text 899 155 programa 3;
#X obj 608 158 sel 4 7;
#X obj 390 475 s f3;
#X obj 544 481 s fm3;
#X obj 685 431 s fm3_r;
#X obj 604 372 s gm3;
#X obj 421 356 s fm_3_bang;
#X obj 524 265 r m7;
#X msg 684 407 170;
#X connect 0 0 19 0;
#X connect 0 0 8 0;
#X connect 0 0 9 0;
#X connect 0 0 10 0;
#X connect 0 0 17 0;
#X connect 1 0 13 0;
#X connect 2 0 7 0;
#X connect 3 0 6 1;
#X connect 4 0 6 1;
#X connect 5 0 12 0;
#X connect 6 0 0 0;
#X connect 7 0 14 0;
#X connect 8 0 16 0;
#X connect 9 0 2 0;
#X connect 10 0 1 0;
#X connect 12 0 4 0;
#X connect 12 1 4 0;
#X connect 12 2 3 0;
#X connect 18 0 6 0;
#X connect 19 0 15 0;
#X restore 608 438 pd programa6;
#X obj 24 214 cnv 19 164 276 empty empty FM_1_Synthesizer 20 12 0 12 #c7c6ff #404040 0;
#X obj 50 337 r~ fm1;
#N canvas 0 44 1920 997 programa1 0;
#X obj 523 374 bng 19 250 50 0 empty empty empty 0 -10 0 12 #fcfcfc #000000 #000000;
#X obj 325 528 s f2;
#X obj 603 456 s gm2;
#X floatatom 325 494 5 0 0 0 freq - - 0;
#X floatatom 476 463 5 0 0 0 mod_Freq - - 0;
#X msg 722 234 0;
#X msg 664 238 1;
#X obj 627 105 r signal;
#X obj 523 314 spigot;
#X obj 325 417 s fm_2_bang;
#X obj 477 537 s fm2;
#X obj 477 503 / 100;
#X text 68 473 Enviamos parametros a las propiedades de los generadores (AM/FM), f 33;
#X text 833 462 decay 1;
#X text 38 281 Aplicamos un 'firewall' con spigot. recibimos un tempo (m7);
#X text 940 46 Recibimos la señal aletaoria (random) para evaluar con sel y luego usar contra Spigot a través de mensajes 1 y 0;
#X text 359 55 ============ Programa 1 ====== Generador 2 : FM_2;
#X text 630 518 gain mod;
#X floatatom 774 189 5 0 0 0 - - - 0;
#X obj 633 186 sel 0 1, f 14;
#X obj 782 458 s fm2_r;
#X msg 782 416 585;
#X obj 477 416 random 200;
#X obj 593 409 random 500;
#X obj 325 462 random 700;
#X obj 488 285 r m6;
#X connect 0 0 21 0;
#X connect 0 0 9 0;
#X connect 0 0 22 0;
#X connect 0 0 23 0;
#X connect 0 0 24 0;
#X connect 3 0 1 0;
#X connect 4 0 11 0;
#X connect 5 0 8 1;
#X connect 6 0 8 1;
#X connect 7 0 18 0;
#X connect 7 0 19 0;
#X connect 8 0 0 0;
#X connect 11 0 10 0;
#X connect 19 0 6 0;
#X connect 19 1 6 0;
#X connect 19 2 5 0;
#X connect 21 0 20 0;
#X connect 22 0 4 0;
#X connect 23 0 2 0;
#X connect 24 0 3 0;
#X connect 25 0 8 0;
#X restore 609 265 pd programa1;
#X obj 52 450 s~ c1;
#X obj 238 445 s~ c2;
#N canvas 0 4 1920 1037 programa3 0;
#X obj 1001 212 bng 19 250 50 0 empty empty empty 0 -10 0 12 #fcfcfc #000000 #000000;
#X floatatom 515 533 5 0 0 0 - - - 0;
#X obj 515 556 / 10;
#X msg 1241 135 0;
#X msg 1178 133 1;
#X obj 1185 47 r signal;
#X obj 1001 177 spigot;
#X obj 1001 249 random 4;
#X obj 1403 426 sel 0 1;
#X msg 1397 455 1;
#X msg 1438 456 0;
#X obj 1351 483 spigot;
#X obj 543 394 spigot;
#X obj 967 397 sel 2 3;
#X obj 534 429 bng 34 250 50 0 empty empty empty 0 -10 0 12 #0400ff #000000 #000000;
#X obj 1355 509 bng 23 250 50 0 empty empty empty 0 -10 0 12 #0400ff #000000 #000000;
#X msg 971 425 1;
#X msg 1015 427 0;
#X text 294 366 Enviamos un metronomo a un FM2;
#X text 1325 48 Recibimos la señal aletaoria (random) para evaluar con sel y luego usar contra Spigot a través de mensajes 1 y 0;
#X text 540 174 Aplicamos un 'firewall' con spigot. recibimos un tempo (m1);
#X floatatom 1398 668 5 0 0 0 - - - 0;
#X text 1197 691 decay;
#X obj 1398 691 / 1;
#X msg 616 490 880;
#X obj 623 542 random 900;
#X obj 1183 73 sel 0 3;
#X obj 1481 647 random 900;
#X obj 381 507 s fm_3_bang;
#X obj 461 558 s f3;
#X obj 514 594 s fm3;
#X obj 623 567 s gm3;
#X obj 1194 661 s fm3_r;
#X obj 616 513 s fm3_r;
#X obj 1265 642 s fm_3_bang;
#X obj 1344 693 s f3;
#X obj 1397 729 s fm3;
#X obj 1481 671 s gm3;
#X obj 504 504 random 3200;
#X msg 1193 636 160;
#X obj 1387 640 random 170;
#X obj 535 362 r m7;
#X obj 1328 439 r m6;
#X obj 945 124 r m1;
#X connect 0 0 7 0;
#X connect 1 0 2 0;
#X connect 2 0 30 0;
#X connect 3 0 6 1;
#X connect 3 0 12 1;
#X connect 3 0 11 1;
#X connect 4 0 6 1;
#X connect 5 0 26 0;
#X connect 6 0 0 0;
#X connect 7 0 8 0;
#X connect 7 0 13 0;
#X connect 8 0 9 0;
#X connect 8 1 9 0;
#X connect 8 2 10 0;
#X connect 9 0 11 1;
#X connect 10 0 11 1;
#X connect 11 0 15 0;
#X connect 12 0 14 0;
#X connect 13 0 16 0;
#X connect 13 1 16 0;
#X connect 13 2 17 0;
#X connect 14 0 24 0;
#X connect 14 0 25 0;
#X connect 14 0 28 0;
#X connect 14 0 38 0;
#X connect 15 0 39 0;
#X connect 15 0 27 0;
#X connect 15 0 34 0;
#X connect 15 0 40 0;
#X connect 16 0 12 1;
#X connect 17 0 12 1;
#X connect 21 0 23 0;
#X connect 23 0 36 0;
#X connect 24 0 33 0;
#X connect 25 0 31 0;
#X connect 26 0 4 0;
#X connect 26 1 4 0;
#X connect 26 2 3 0;
#X connect 27 0 37 0;
#X connect 38 0 1 0;
#X connect 38 0 29 0;
#X connect 39 0 32 0;
#X connect 40 0 21 0;
#X connect 40 0 35 0;
#X connect 41 0 12 0;
#X connect 42 0 11 0;
#X connect 43 0 6 0;
#X restore 608 335 pd programa3;
#N canvas 0 4 1920 1037 programa4 0;
#X obj 524 331 bng 19 250 50 0 empty empty empty 0 -10 0 12 #fcfcfc #000000 #000000;
#X floatatom 479 431 5 0 0 0 - - - 0;
#X floatatom 530 434 5 0 0 0 - - - 0;
#X msg 641 241 0;
#X msg 578 239 1;
#X obj 585 153 r signal;
#X obj 524 289 spigot;
#X obj 351 348 s fm_1_bang;
#X obj 477 458 s f1;
#X obj 545 501 s fm1;
#X obj 775 352 s gm1;
#X text 850 213 Porgrama 4;
#X obj 530 457 / 100;
#X msg 681 439 800;
#X obj 584 181 sel 4 5;
#X obj 682 462 s fm1_r;
#X obj 504 406 random 1170;
#X obj 775 327 random 909;
#X obj 383 436 random 60;
#X obj 522 264 r m7;
#X connect 0 0 13 0;
#X connect 0 0 7 0;
#X connect 0 0 16 0;
#X connect 0 0 17 0;
#X connect 0 0 18 0;
#X connect 1 0 8 0;
#X connect 2 0 12 0;
#X connect 3 0 6 1;
#X connect 4 0 6 1;
#X connect 5 0 14 0;
#X connect 6 0 0 0;
#X connect 12 0 9 0;
#X connect 13 0 15 0;
#X connect 14 0 4 0;
#X connect 14 1 4 0;
#X connect 14 2 3 0;
#X connect 16 0 2 0;
#X connect 17 0 10 0;
#X connect 18 0 1 0;
#X connect 19 0 6 0;
#X restore 608 367 pd programa4;
#N canvas 0 4 1920 1037 programa2 0;
#X obj 505 416 bng 19 250 50 0 empty empty empty 0 -10 0 12 #fcfcfc #000000 #000000;
#X floatatom 326 528 5 0 0 0 freq - - 0;
#X floatatom 494 495 5 0 0 0 mod_Freq - - 0;
#X msg 704 229 0;
#X msg 647 230 1;
#X obj 648 151 r signal;
#X obj 540 309 spigot;
#X obj 330 431 s fm_2_bang;
#X obj 627 463 random 900;
#X text 68 473 Enviamos parametros a las propiedades de los generadores (AM/FM), f 33;
#X text 833 462 decay 1;
#X text 35 238 Aplicamos un 'firewall' con spigot. recibimos un tempo (m7);
#X text 785 179 Recibimos la señal aletaoria (random) para evaluar con sel y luego usar contra Spigot a través de mensajes 1 y 0;
#X text 630 518 gain mod;
#X obj 326 562 s f1;
#X obj 494 565 s fm1;
#X obj 627 492 s gm1;
#X text 359 55 ============ Programa 2 ====== Generador 1 : FM_1;
#X obj 494 518 / 10;
#X obj 648 181 sel 2 3, f 14;
#X obj 782 457 s fm2_r;
#X obj 327 496 random 30;
#X obj 478 466 random 1100;
#X msg 781 432 225;
#X obj 462 238 r m7;
#X connect 0 0 23 0;
#X connect 0 0 7 0;
#X connect 0 0 8 0;
#X connect 0 0 21 0;
#X connect 0 0 22 0;
#X connect 1 0 14 0;
#X connect 2 0 18 0;
#X connect 3 0 6 1;
#X connect 4 0 6 1;
#X connect 5 0 19 0;
#X connect 6 0 0 0;
#X connect 8 0 16 0;
#X connect 18 0 15 0;
#X connect 19 0 4 0;
#X connect 19 1 4 0;
#X connect 19 2 3 0;
#X connect 21 0 1 0;
#X connect 22 0 2 0;
#X connect 23 0 20 0;
#X connect 24 0 6 0;
#X restore 608 299 pd programa2;
#X text 710 369 FM_1;
#X text 712 303 FM_2;
#X obj 238 371 hip~ 700;
#X obj 238 395 lop~ 600;
#X obj 238 419 *~;
#X obj 51 371 hip~ 1600;
#X obj 51 395 lop~ 7000;
#X obj 136 383 tgl 33 0 empty empty empty 0 -10 0 12 #e3c6ff #000000 #000000 0 1;
#N canvas 206 530 1920 997 FM1 0;
#X obj 255 383 +~;
#X obj 340 381 *~;
#X obj 341 302 osc~;
#X floatatom 346 250 5 0 0 0 - fm1 - 0;
#X floatatom 384 360 5 0 0 0 - gm1 - 0;
#X obj 254 515 s~ fm1;
#X floatatom 255 303 5 0 0 0 - f1 - 0;
#X obj 252 407 osc~;
#X text 537 364 Attack;
#X text 805 364 Release;
#X obj 593 304 f, f 5;
#X obj 569 269 bng 15 250 50 0 empty fm1_trigger empty 17 7 0 10 #fcfcfc #000000 #000000;
#X floatatom 593 330 5 0 0 0 - - - 0;
#X msg 593 359 0 \, 1 \$1;
#X msg 695 365 1 \, 0 \$1, f 13;
#X obj 593 400 line, f 8;
#X obj 593 442 select 1, f 14;
#X obj 695 329 f;
#X obj 695 397 line, f 7;
#X floatatom 651 479 5 0 0 0 - - - 0;
#X text 245 212 mod-freq sounds good in range 0-40hz;
#X obj 253 456 *~;
#X msg 651 502 \$1 20;
#X obj 651 526 line~;
#X obj 609 267 r fm1_a;
#X obj 735 276 r fm1_r;
#X text 1008 314 Parámetros;
#X text 1034 360 f1 \; fm1 \; gm1 \; fm1_a \; fm1_r \; fm1_trigger;
#X connect 0 0 7 0;
#X connect 1 0 0 1;
#X connect 2 0 1 0;
#X connect 3 0 2 0;
#X connect 4 0 1 1;
#X connect 6 0 0 0;
#X connect 7 0 21 0;
#X connect 10 0 12 0;
#X connect 11 0 10 0;
#X connect 12 0 13 0;
#X connect 13 0 15 0;
#X connect 14 0 18 0;
#X connect 15 0 16 0;
#X connect 15 0 19 0;
#X connect 16 0 17 0;
#X connect 17 0 14 0;
#X connect 18 0 19 0;
#X connect 19 0 22 0;
#X connect 21 0 5 0;
#X connect 22 0 23 0;
#X connect 23 0 21 1;
#X connect 24 0 10 1;
#X connect 25 0 17 1;
#X restore 50 256 pd FM1;
#N canvas 4 44 1920 997 FM2 0;
#X obj 197 331 +~;
#X obj 465 276 *~;
#X obj 194 409 *~;
#X floatatom 184 243 5 0 0 0 - f2 - 0;
#X obj 194 450 s~ fm2;
#X floatatom 513 276 5 0 0 0 - gm2 - 0;
#X floatatom 464 179 5 0 0 0 - fm2 - 0;
#X text 565 257 Attack;
#X text 833 257 Release;
#X obj 621 197 f, f 5;
#X obj 597 162 bng 15 250 50 0 empty fm2_trigger empty 17 7 0 10 #fcfcfc #000000 #000000;
#X floatatom 621 223 5 0 0 0 - - - 0;
#X msg 621 252 0 \, 1 \$1;
#X msg 723 258 1 \, 0 \$1, f 13;
#X obj 621 293 line, f 8;
#X obj 621 335 select 1, f 14;
#X obj 723 222 f;
#X obj 723 290 line, f 7;
#X floatatom 679 372 5 0 0 0 - - - 0;
#X msg 679 395 \$1 20;
#X obj 679 419 line~;
#X obj 637 160 r fm2_a;
#X obj 763 169 r fm2_r;
#X text 1002 236 Parámetros;
#X text 995 281 f2 \; fm2 \; gm2 \; fm2_a \; fm2_r \; fm2_trigger;
#X obj 194 376 phasor~;
#X obj 464 232 osc~;
#X connect 0 0 25 0;
#X connect 1 0 0 1;
#X connect 2 0 4 0;
#X connect 3 0 0 0;
#X connect 5 0 1 1;
#X connect 6 0 26 0;
#X connect 9 0 11 0;
#X connect 10 0 9 0;
#X connect 11 0 12 0;
#X connect 12 0 14 0;
#X connect 13 0 17 0;
#X connect 14 0 15 0;
#X connect 14 0 18 0;
#X connect 15 0 16 0;
#X connect 16 0 13 0;
#X connect 17 0 18 0;
#X connect 18 0 19 0;
#X connect 19 0 20 0;
#X connect 20 0 2 1;
#X connect 21 0 9 1;
#X connect 22 0 16 1;
#X connect 25 0 2 0;
#X connect 26 0 1 0;
#X restore 233 254 pd FM2;
#X obj 317 383 tgl 33 0 empty empty empty 0 -10 0 12 #e3c6ff #000000 #000000 0 1;
#X obj 51 419 *~;
#X obj 205 11 hradio 60 1 0 8 empty empty empty 0 -10 0 12 #c6feff #000000 #000000 0;
#X obj 26 511 cnv 19 726 266 empty empty Cortafuegos 20 12 0 12 #e0e0e0 #404040 0;
#X obj 65 737 s signal;
#X obj 65 624 bng 19 250 50 0 empty empty empty 0 -10 0 12 #fcfcfc #000000 #000000;
#X obj 65 654 spigot;
#X obj 233 626 bng 19 250 50 0 empty empty empty 0 -10 0 12 #fcfcfc #000000 #000000;
#X obj 233 656 spigot;
#X obj 412 627 bng 19 250 50 0 empty empty empty 0 -10 0 12 #fcfcfc #000000 #000000;
#X obj 412 657 spigot;
#X obj 584 625 bng 19 250 50 0 empty empty empty 0 -10 0 12 #fcfcfc #000000 #000000;
#X obj 584 655 spigot;
#X obj 112 595 sel 0 4;
#X msg 117 626 1;
#X msg 154 627 0;
#X obj 233 737 s signal;
#X msg 301 629 1;
#X msg 338 630 0;
#X obj 293 596 sel 1 5;
#X msg 477 629 1;
#X msg 514 630 0;
#X obj 470 595 sel 2 6;
#X obj 412 734 s signal;
#X msg 645 622 1;
#X msg 684 623 0;
#X obj 638 597 sel 3 7;
#X obj 584 733 s signal;
#X obj 314 527 r secuenciador;
#X obj 399 216 cnv 19 164 276 empty empty FM_3_Synthesizer 20 12 0 12 #c7c6ff #404040 0;
#X obj 429 305 bng 15 250 50 0 fm3_trigger fm_3_bang Trigger -10 -17 0 10 #e3c6ff #000000 #c6feff;
#X obj 427 373 hip~ 700;
#X obj 427 397 lop~ 600;
#X obj 427 421 *~;
#X obj 506 385 tgl 33 0 empty empty empty 0 -10 0 12 #e3c6ff #000000 #000000 0 1;
#N canvas 4 44 1920 997 FM3 0;
#X obj 197 331 +~;
#X obj 465 276 *~;
#X obj 194 409 *~;
#X floatatom 184 243 5 0 0 0 - f3 - 0;
#X obj 464 232 phasor~;
#X floatatom 513 276 5 0 0 0 - gm3 - 0;
#X floatatom 464 179 5 0 0 0 - fm3 - 0;
#X text 565 257 Attack;
#X text 833 257 Release;
#X obj 621 197 f, f 5;
#X obj 597 162 bng 15 250 50 0 empty fm3_trigger empty 17 7 0 10 #fcfcfc #000000 #000000;
#X floatatom 621 223 5 0 0 0 - - - 0;
#X msg 621 252 0 \, 1 \$1;
#X msg 723 258 1 \, 0 \$1, f 13;
#X obj 621 293 line, f 8;
#X obj 621 335 select 1, f 14;
#X obj 723 222 f;
#X obj 723 290 line, f 7;
#X floatatom 679 372 5 0 0 0 - - - 0;
#X msg 679 395 \$1 20;
#X obj 679 419 line~;
#X text 1002 236 Parámetros;
#X obj 637 160 r fm3_a;
#X obj 194 376 phasor~;
#X obj 194 450 s~ fm3;
#X obj 763 169 r fm3_r;
#X text 995 281 f3 \; fm3 \; gm3 \; fm3_a \; fm3_r \; fm3_trigger;
#X connect 0 0 23 0;
#X connect 1 0 0 1;
#X connect 2 0 24 0;
#X connect 3 0 0 0;
#X connect 4 0 1 0;
#X connect 5 0 1 1;
#X connect 6 0 4 0;
#X connect 9 0 11 0;
#X connect 10 0 9 0;
#X connect 11 0 12 0;
#X connect 12 0 14 0;
#X connect 13 0 17 0;
#X connect 14 0 15 0;
#X connect 14 0 18 0;
#X connect 15 0 16 0;
#X connect 16 0 13 0;
#X connect 17 0 18 0;
#X connect 18 0 19 0;
#X connect 19 0 20 0;
#X connect 20 0 2 1;
#X connect 22 0 9 1;
#X connect 23 0 2 0;
#X connect 25 0 16 1;
#X restore 419 254 pd FM3;
#X obj 428 334 r~ fm3;
#X obj 427 447 s~ c3;
#X obj 65 681 bng 19 250 50 0 empty empty empty 0 -10 0 12 #fcfcfc #000000 #000000;
#X obj 233 682 bng 19 250 50 0 empty empty empty 0 -10 0 12 #fcfcfc #000000 #000000;
#X obj 412 683 bng 19 250 50 0 empty empty empty 0 -10 0 12 #fcfcfc #000000 #000000;
#X obj 584 679 bng 19 250 50 0 empty empty empty 0 -10 0 12 #fcfcfc #000000 #000000;
#X text 711 337 FM_3;
#X text 710 405 FM_2;
#X text 710 440 FM_3;
#X obj 55 307 bng 15 250 50 0 fm1_trigger fm_1_bang Trigger -10 -17 0 10 #e3c6ff #000000 #c6feff;
#X obj 928 209 vu 23 200 empty empty -1 -8 0 12 #404040 #000000 1 0;
#N canvas 329 161 625 417 vu 0;
#X obj 59 129 env~ 1024;
#X obj 161 111 abs~;
#X obj 161 213 snapshot~;
#X obj 161 256 rmstodb;
#X obj 161 21 inlet~;
#X obj 161 288 - 100;
#X obj 59 287 - 100;
#X obj 59 361 outlet;
#X obj 161 361 outlet;
#X text 344 307 Check the help file of env~ and slop~ for more details., f 31;
#X obj 239 89 expr 1000 / $f1;
#X floatatom 239 117 5 0 0 0 - - - 0;
#X obj 161 146 slop~ 0 0 0 0 1e+09;
#X obj 239 18 inlet;
#X floatatom 239 57 5 0 0 0 - - - 0;
#X text 359 89 convert to hz;
#X text 282 118 hz;
#X text 284 57 peak decay time in ms;
#X obj 59 171 t f b;
#X text 345 132 The env~ object is dedicated to RMS analysis. Its output is in dB (0-100 range \, pd style) but needs to be converted to dBFS (and we do that by simply subtracting 100)., f 31;
#X text 345 225 The slop~ object is used here for peak detection. We need to convert the output to dB with rmstodb and also subtract by 100 to convert it to dBFS., f 31;
#X connect 0 0 18 0;
#X connect 1 0 12 0;
#X connect 2 0 3 0;
#X connect 3 0 5 0;
#X connect 4 0 0 0;
#X connect 4 0 1 0;
#X connect 5 0 8 0;
#X connect 6 0 7 0;
#X connect 10 0 11 0;
#X connect 11 0 12 3;
#X connect 12 0 2 0;
#X connect 13 0 14 0;
#X connect 14 0 10 0;
#X connect 18 0 6 0;
#X connect 18 1 2 0;
#X restore 905 166 pd vu;
#X floatatom 937 140 6 0 1000 0 - decay - 0;
#X obj 1060 209 vu 23 200 empty empty -1 -8 0 12 #404040 #000000 1 0;
#N canvas 329 161 625 417 vu 0;
#X obj 59 129 env~ 1024;
#X obj 161 111 abs~;
#X obj 161 213 snapshot~;
#X obj 161 256 rmstodb;
#X obj 161 21 inlet~;
#X obj 161 288 - 100;
#X obj 59 287 - 100;
#X obj 59 361 outlet;
#X obj 161 361 outlet;
#X text 344 307 Check the help file of env~ and slop~ for more details., f 31;
#X obj 239 89 expr 1000 / $f1;
#X floatatom 239 117 5 0 0 0 - - - 0;
#X obj 161 146 slop~ 0 0 0 0 1e+09;
#X obj 239 18 inlet;
#X floatatom 239 57 5 0 0 0 - - - 0;
#X text 359 89 convert to hz;
#X text 282 118 hz;
#X text 284 57 peak decay time in ms;
#X obj 59 171 t f b;
#X text 345 132 The env~ object is dedicated to RMS analysis. Its output is in dB (0-100 range \, pd style) but needs to be converted to dBFS (and we do that by simply subtracting 100)., f 31;
#X text 345 225 The slop~ object is used here for peak detection. We need to convert the output to dB with rmstodb and also subtract by 100 to convert it to dBFS., f 31;
#X connect 0 0 18 0;
#X connect 1 0 12 0;
#X connect 2 0 3 0;
#X connect 3 0 5 0;
#X connect 4 0 0 0;
#X connect 4 0 1 0;
#X connect 5 0 8 0;
#X connect 6 0 7 0;
#X connect 10 0 11 0;
#X connect 11 0 12 3;
#X connect 12 0 2 0;
#X connect 13 0 14 0;
#X connect 14 0 10 0;
#X connect 18 0 6 0;
#X connect 18 1 2 0;
#X restore 1037 166 pd vu;
#X floatatom 1069 140 6 0 1000 0 - decay - 0;
#X obj 1198 208 vu 23 200 empty empty -1 -8 0 12 #404040 #000000 1 0;
#N canvas 329 161 625 417 vu 0;
#X obj 59 129 env~ 1024;
#X obj 161 111 abs~;
#X obj 161 213 snapshot~;
#X obj 161 256 rmstodb;
#X obj 161 21 inlet~;
#X obj 161 288 - 100;
#X obj 59 287 - 100;
#X obj 59 361 outlet;
#X obj 161 361 outlet;
#X text 344 307 Check the help file of env~ and slop~ for more details., f 31;
#X obj 239 89 expr 1000 / $f1;
#X floatatom 239 117 5 0 0 0 - - - 0;
#X obj 161 146 slop~ 0 0 0 0 1e+09;
#X obj 239 18 inlet;
#X floatatom 239 57 5 0 0 0 - - - 0;
#X text 359 89 convert to hz;
#X text 282 118 hz;
#X text 284 57 peak decay time in ms;
#X obj 59 171 t f b;
#X text 345 132 The env~ object is dedicated to RMS analysis. Its output is in dB (0-100 range \, pd style) but needs to be converted to dBFS (and we do that by simply subtracting 100)., f 31;
#X text 345 225 The slop~ object is used here for peak detection. We need to convert the output to dB with rmstodb and also subtract by 100 to convert it to dBFS., f 31;
#X connect 0 0 18 0;
#X connect 1 0 12 0;
#X connect 2 0 3 0;
#X connect 3 0 5 0;
#X connect 4 0 0 0;
#X connect 4 0 1 0;
#X connect 5 0 8 0;
#X connect 6 0 7 0;
#X connect 10 0 11 0;
#X connect 11 0 12 3;
#X connect 12 0 2 0;
#X connect 13 0 14 0;
#X connect 14 0 10 0;
#X connect 18 0 6 0;
#X connect 18 1 2 0;
#X restore 1175 165 pd vu;
#X floatatom 1207 139 6 0 1000 0 - decay - 0;
#X obj 1165 139 r~ c3;
#X obj 928 416 vsl 23 150 0 1 0 0 empty empty empty 0 -9 0 12 #e3c6ff #000000 #000000 0 1;
#X msg 928 573 \$1 20;
#X obj 928 597 line~;
#X obj 876 573 r~ c1;
#X obj 876 597 *~;
#X obj 895 140 r~ v1;
#X msg 1060 573 \$1 20;
#X obj 1060 597 line~;
#X obj 1013 598 *~;
#X obj 1013 574 r~ c2;
#X msg 1198 575 \$1 20;
#X obj 1198 599 line~;
#X obj 1149 599 *~;
#X obj 1027 140 r~ v2;
#X obj 1149 575 r~ c3;
#X obj 1177 833 s~ v1;
#X obj 1013 623 s~ v2;
#X obj 922 829 s~ v3;
#X obj 1060 416 vsl 23 150 0 1 0 0 empty empty empty 0 -9 0 12 #e3c6ff #000000 #000000 0 1;
#X obj 1198 416 vsl 23 150 0 1 0 0 empty empty empty 0 -9 0 12 #e3c6ff #000000 #000000 0 1;
#X obj 949 666 r~ v1, f 13;
#X obj 1037 889 r~ v2, f 7;
#X obj 1095 666 r~ v3;
#X text 1050 48 Mixer;
#X text 712 264 FM_1;
#X msg 127 327 1;
#X msg 158 332 0;
#X msg 298 321 1;
#X msg 329 326 0;
#X msg 484 322 1;
#X msg 515 327 0;
#X obj 478 265 sel 2 7 0 4 6;
#X obj 290 264 sel 1 4 5 7 6 0;
#X obj 119 270 sel 0 3 1 5 7 4;
#X obj 65 708 random 12;
#X obj 233 709 random 12;
#X obj 584 704 random 14;
#X obj 584 595 r m1;
#X obj 412 598 r m6;
#X obj 232 596 r m6;
#X obj 65 595 r m1;
#X obj 412 707 random 8;
#X text 906 815 ____________________________________;
#X text 903 814 ____________________________________;
#X connect 5 0 17 0;
#X connect 8 0 20 0;
#X connect 17 0 18 0;
#X connect 18 0 19 0;
#X connect 19 0 11 0;
#X connect 20 0 21 0;
#X connect 21 0 26 0;
#X connect 22 0 26 1;
#X connect 25 0 19 1;
#X connect 26 0 10 0;
#X connect 27 0 112 0;
#X connect 27 0 113 0;
#X connect 27 0 114 0;
#X connect 30 0 31 0;
#X connect 31 0 63 0;
#X connect 32 0 33 0;
#X connect 33 0 64 0;
#X connect 34 0 35 0;
#X connect 35 0 65 0;
#X connect 36 0 37 0;
#X connect 37 0 66 0;
#X connect 38 0 39 0;
#X connect 38 1 39 0;
#X connect 38 2 40 0;
#X connect 39 0 31 1;
#X connect 40 0 31 1;
#X connect 42 0 33 1;
#X connect 43 0 33 1;
#X connect 44 0 42 0;
#X connect 44 1 42 0;
#X connect 44 2 43 0;
#X connect 45 0 35 1;
#X connect 46 0 35 1;
#X connect 47 0 45 0;
#X connect 47 1 45 0;
#X connect 47 2 46 0;
#X connect 49 0 37 1;
#X connect 50 0 37 1;
#X connect 51 0 49 0;
#X connect 51 1 49 0;
#X connect 51 2 50 0;
#X connect 53 0 44 0;
#X connect 53 0 51 0;
#X connect 53 0 47 0;
#X connect 53 0 38 0;
#X connect 56 0 57 0;
#X connect 57 0 58 0;
#X connect 58 0 62 0;
#X connect 59 0 58 1;
#X connect 61 0 56 0;
#X connect 63 0 115 0;
#X connect 64 0 116 0;
#X connect 65 0 122 0;
#X connect 66 0 117 0;
#X connect 72 0 71 0;
#X connect 72 1 71 1;
#X connect 73 0 72 1;
#X connect 75 0 74 0;
#X connect 75 1 74 1;
#X connect 76 0 75 1;
#X connect 78 0 77 0;
#X connect 78 1 77 1;
#X connect 79 0 78 1;
#X connect 80 0 78 0;
#X connect 81 0 82 0;
#X connect 82 0 83 0;
#X connect 83 0 85 1;
#X connect 84 0 85 0;
#X connect 85 0 96 0;
#X connect 86 0 72 0;
#X connect 87 0 88 0;
#X connect 88 0 89 1;
#X connect 89 0 97 0;
#X connect 90 0 89 0;
#X connect 91 0 92 0;
#X connect 92 0 93 1;
#X connect 93 0 98 0;
#X connect 94 0 75 0;
#X connect 95 0 93 0;
#X connect 99 0 87 0;
#X connect 100 0 91 0;
#X connect 101 0 0 0;
#X connect 101 0 0 1;
#X connect 102 0 0 1;
#X connect 102 0 0 0;
#X connect 103 0 0 1;
#X connect 103 0 0 0;
#X connect 106 0 22 0;
#X connect 107 0 22 0;
#X connect 108 0 25 0;
#X connect 109 0 25 0;
#X connect 110 0 59 0;
#X connect 111 0 59 0;
#X connect 112 0 110 0;
#X connect 112 1 110 0;
#X connect 112 2 110 0;
#X connect 112 3 110 0;
#X connect 112 4 110 0;
#X connect 112 5 111 0;
#X connect 113 0 108 0;
#X connect 113 1 108 0;
#X connect 113 2 108 0;
#X connect 113 3 108 0;
#X connect 113 4 108 0;
#X connect 113 5 108 0;
#X connect 113 6 109 0;
#X connect 114 0 106 0;
#X connect 114 1 106 0;
#X connect 114 2 106 0;
#X connect 114 3 106 0;
#X connect 114 4 106 0;
#X connect 114 5 106 0;
#X connect 114 6 107 0;
#X connect 115 0 29 0;
#X connect 116 0 41 0;
#X connect 117 0 52 0;
#X connect 118 0 36 0;
#X connect 119 0 34 0;
#X connect 120 0 32 0;
#X connect 121 0 30 0;
#X connect 122 0 48 0;
