#N canvas 0 0 1440 872 12;
#X obj 347 232 inlet~;
#X msg 484 246 \$1 20;
#X obj 484 270 line~;
#X obj 356 398 outlet~;
#X obj 487 203 inlet;
#X obj 356 365 *~;
#X connect 0 0 5 0;
#X connect 1 0 2 0;
#X connect 2 0 5 1;
#X connect 4 0 1 0;
#X connect 5 0 3 0;
