#N canvas 184 79 1440 900 12;
#X declare -lib zexy;
#X declare -lib Gem;
#X obj 23 192 colorRGB;
#X obj 216 151 tgl 19 0 empty empty empty 0 -10 0 12 #fcfcfc #000000 #000000 0 1;
#X obj 209 269 f;
#X obj 276 255 + 1;
#X obj 277 282 % 80;
#X obj 209 293 * 0.1;
#X obj 209 317 - 3.95;
#X obj 139 113 sel 0;
#X msg 47 157 0;
#X msg 79 156 1;
#X obj 367 463 _gemwin;
#X obj 1246 101 declare -lib zexy;
#X obj 148 398 zexy;
#X obj 232 418 t a b;
#X obj 232 442 separator;
#X obj 334 393 bng 19 250 50 0 empty empty empty 0 -10 0 12 #fcfcfc #000000 #000000;
#X obj 373 130 colorRGB;
#X obj 602 80 gemwin;
#X obj 546 217 f;
#X obj 614 230 % 80;
#X obj 546 241 * 0.1;
#X obj 463 56 sel 0;
#X msg 434 87 0;
#X msg 514 99 1;
#X obj 710 314 bng 19 250 50 0 empty empty empty 0 -10 0 12 #fcfcfc #000000 #000000;
#X msg 602 56 destroy;
#X obj 473 309 translateXYZ 3.07 0 0;
#X obj 52 418 scaleXYZ;
#X obj 528 550 colorRGB;
#X obj 761 508 gemwin;
#X obj 705 645 f;
#X obj 772 631 + 1;
#X obj 773 658 % 80;
#X obj 705 669 * 0.1;
#X obj 705 693 - 3.95;
#X obj 622 484 sel 0;
#X msg 622 508 0;
#X msg 660 511 1;
#X obj 710 725 t a b;
#X obj 710 749 separator;
#X obj 812 700 bng 19 250 50 0 empty empty empty 0 -10 0 12 #fcfcfc #000000 #000000;
#X msg 761 484 destroy;
#X floatatom 364 540 5 0 0 0 - - - 0;
#X obj 501 669 translateXYZ -1.09 0 0;
#X obj 208 228 / 100;
#X obj 391 362 / 360;
#X obj 621 460 random 3;
#X obj 359 169 rotateXYZ 180 0 90;
#X obj 42 689 line;
#X obj 43 770 bng 19 250 50 0 empty empty empty 0 -10 0 12 #fcfcfc #000000 #000000;
#X floatatom 651 845 5 0 0 0 - - - 0;
#X obj 42 717 sel 360;
#X obj 42 821 line;
#X obj 43 847 sel 0;
#X obj 234 709 bng 19 250 50 0 empty empty empty 0 -10 0 12 #fcfcfc #000000 #000000;
#X obj 22 221 rotateXYZ 0 0 0;
#X obj 21 260 translateXYZ -0.1 0 0;
#X obj 499 697 rotateXYZ 0 0 0;
#X floatatom 771 235 5 0 0 0 - - - 0;
#X obj 126 84 random 3;
#X obj 199 107 bng 19 250 50 0 empty empty empty 0 -10 0 12 #fcfcfc #000000 #000000;
#X obj 227 102 bng 19 250 50 0 empty empty empty 0 -10 0 12 #fcfcfc #000000 #000000;
#X obj 771 258 / 100;
#X floatatom 437 257 5 0 0 0 - - - 0;
#X floatatom 946 433 5 0 0 1 size - - 0;
#X floatatom 1016 491 16 0 0 2 segments - - 0;
#X obj 849 460 r \$0-s3d;
#X msg 905 381 setCartesian 2 3 \$1 1 0;
#X msg 918 404 setSpherical 2 3 \$1 45 45;
#X obj 926 482 sphere3d;
#X floatatom 873 327 5 0 0 0 - - - 0;
#X floatatom 868 367 5 0 0 0 - - - 0;
#X floatatom 440 139 5 0 0 0 - - - 0;
#X obj 353 211 scaleXYZ;
#X obj 52 446 disk, f 13;
#X obj 391 433 disk, f 7;
#X obj 549 776 disk, f 13;
#X obj 424 576 random 160;
#X obj 756 59 clip 15 40;
#X obj 756 36 random 12;
#X obj 407 339 random 360;
#X obj 193 207 random 100;
#X obj 534 66 bng 19 250 50 0 empty empty empty 0 -10 0 12 #fcfcfc #000000 #000000;
#X obj 562 61 bng 19 250 50 0 empty empty empty 0 -10 0 12 #fcfcfc #000000 #000000;
#X obj 463 32 random 2;
#X obj 526 439 gemhead;
#X floatatom 610 896 5 0 0 0 - - - 0;
#X obj 947 263 colorRGB;
#X obj 972 180 sel 0;
#X msg 943 211 0;
#X msg 1023 223 1;
#X obj 1043 190 bng 19 250 50 0 empty empty empty 0 -10 0 12 #fcfcfc #000000 #000000;
#X obj 1071 185 bng 19 250 50 0 empty empty empty 0 -10 0 12 #fcfcfc #000000 #000000;
#X obj 972 156 random 2;
#X floatatom 930 281 5 0 0 0 - - - 0;
#X obj 910 306 rotateXYZ;
#X obj 663 875 / 360;
#X obj 924 352 scaleXYZ;
#X obj 876 135 gemhead;
#X obj 1011 643 loadbang;
#X obj 1011 667 bng 19 250 50 0 empty empty empty 0 -10 0 12 #fcfcfc #000000 #000000;
#X msg 1011 691 1;
#X obj 886 565 loadbang;
#X obj 886 589 bng 19 250 50 0 empty empty empty 0 -10 0 12 #fcfcfc #000000 #000000;
#X obj 272 320 loadbang;
#X obj 272 344 bng 19 250 50 0 empty empty empty 0 -10 0 12 #fcfcfc #000000 #000000;
#X obj 88 378 * 1.008;
#X obj 590 728 * 1.008;
#X obj 367 11 gemhead;
#X obj 412 826 loadbang;
#X obj 412 848 bng 19 250 50 0 empty empty empty 0 -10 0 12 #fcfcfc #000000 #000000;
#X msg 412 870 100;
#X msg 978 523 draw line;
#X msg 272 368 12;
#X msg 886 613 12;
#X obj 1030 331 * 3;
#X obj 21 82 gemhead;
#X obj 546 266 - 0.95;
#X obj 946 456 * 0.6;
#X obj 366 60 repeat 12;
#X obj 878 183 repeat 1;
#X obj 201 173 metro 1150;
#X obj 523 510 repeat 14;
#X msg 43 794 360 \, 0 9000;
#X obj 611 876 * 0.1;
#X msg 236 75 6000;
#X msg 1250 183 create \, 1;
#X obj 1248 72 declare -lib Gem;
#X obj 1256 282 gemwin;
#X msg 1311 255 0 \, destroy;
#X msg 1282 220 dimen 1980 720;
#X obj 115 152 r load;
#X obj 1011 715 s load;
#X obj 17 110 repeat 2;
#X text 1235 39 Declaramos las librerías;
#X text 262 711 Bucle infinito;
#X text 124 666 Inicio;
#X text 137 795 Fin;
#X obj 67 771 s rand3;
#X obj 1028 307 r gem3;
#X obj 663 899 s gem3;
#X obj 49 625 hsl 162 19 100 9000 0 0 empty empty empty -2 -10 0 12 #fcfcfc #000000 #000000 0 1;
#X msg 41 662 0 \, 360 \$1;
#X connect 0 0 55 0;
#X connect 1 0 121 0;
#X connect 2 0 3 0;
#X connect 2 0 5 0;
#X connect 3 0 4 0;
#X connect 4 0 2 1;
#X connect 5 0 6 0;
#X connect 7 0 8 0;
#X connect 7 0 60 0;
#X connect 7 0 24 0;
#X connect 7 1 9 0;
#X connect 7 1 61 0;
#X connect 8 0 0 3;
#X connect 8 0 0 1;
#X connect 9 0 0 1;
#X connect 9 0 0 3;
#X connect 9 0 0 2;
#X connect 13 0 14 0;
#X connect 13 1 15 0;
#X connect 15 0 2 0;
#X connect 16 0 47 0;
#X connect 18 0 20 0;
#X connect 19 0 18 1;
#X connect 20 0 117 0;
#X connect 21 0 22 0;
#X connect 21 0 82 0;
#X connect 21 1 23 0;
#X connect 21 1 83 0;
#X connect 22 0 16 1;
#X connect 22 0 16 3;
#X connect 23 0 16 3;
#X connect 23 0 16 2;
#X connect 23 0 16 1;
#X connect 24 0 18 0;
#X connect 24 0 79 0;
#X connect 24 0 84 0;
#X connect 25 0 17 0;
#X connect 26 0 75 0;
#X connect 27 0 74 0;
#X connect 28 0 43 0;
#X connect 30 0 31 0;
#X connect 30 0 33 0;
#X connect 31 0 32 0;
#X connect 32 0 30 1;
#X connect 33 0 34 0;
#X connect 35 0 36 0;
#X connect 35 1 37 0;
#X connect 36 0 28 3;
#X connect 36 0 28 1;
#X connect 37 0 28 1;
#X connect 37 0 28 2;
#X connect 37 0 28 3;
#X connect 38 0 39 0;
#X connect 38 1 40 0;
#X connect 40 0 30 0;
#X connect 41 0 29 0;
#X connect 43 0 57 0;
#X connect 44 0 73 1;
#X connect 44 0 73 2;
#X connect 44 0 73 3;
#X connect 45 0 27 3;
#X connect 45 0 27 1;
#X connect 45 0 27 2;
#X connect 46 0 35 0;
#X connect 47 0 73 0;
#X connect 48 0 50 0;
#X connect 48 0 51 0;
#X connect 49 0 46 0;
#X connect 49 0 123 0;
#X connect 49 0 138 0;
#X connect 50 0 55 2;
#X connect 50 0 55 1;
#X connect 50 0 47 2;
#X connect 50 0 43 3;
#X connect 50 0 57 3;
#X connect 50 0 57 2;
#X connect 50 0 57 1;
#X connect 50 0 96 0;
#X connect 50 0 94 0;
#X connect 50 0 124 0;
#X connect 51 0 49 0;
#X connect 52 0 53 0;
#X connect 52 0 50 0;
#X connect 53 0 54 0;
#X connect 54 0 142 0;
#X connect 55 0 56 0;
#X connect 56 0 27 0;
#X connect 57 0 76 0;
#X connect 58 0 62 0;
#X connect 59 0 7 0;
#X connect 60 0 8 0;
#X connect 61 0 9 0;
#X connect 64 0 118 0;
#X connect 65 0 69 2;
#X connect 66 0 69 0;
#X connect 67 0 69 0;
#X connect 68 0 69 0;
#X connect 70 0 67 0;
#X connect 71 0 68 0;
#X connect 72 0 16 4;
#X connect 73 0 26 0;
#X connect 77 0 43 1;
#X connect 77 0 43 2;
#X connect 79 0 78 0;
#X connect 80 0 45 0;
#X connect 81 0 44 0;
#X connect 82 0 22 0;
#X connect 83 0 23 0;
#X connect 84 0 21 0;
#X connect 84 0 56 2;
#X connect 84 0 56 1;
#X connect 84 0 56 3;
#X connect 86 0 74 2;
#X connect 86 0 75 2;
#X connect 86 0 76 2;
#X connect 87 0 95 0;
#X connect 88 0 89 0;
#X connect 88 0 91 0;
#X connect 88 1 90 0;
#X connect 88 1 92 0;
#X connect 89 0 87 1;
#X connect 89 0 87 3;
#X connect 90 0 87 3;
#X connect 90 0 87 2;
#X connect 90 0 87 1;
#X connect 91 0 89 0;
#X connect 92 0 90 0;
#X connect 93 0 88 0;
#X connect 94 0 95 1;
#X connect 94 0 95 3;
#X connect 94 0 95 2;
#X connect 95 0 97 0;
#X connect 96 0 140 0;
#X connect 97 0 69 0;
#X connect 98 0 120 0;
#X connect 99 0 100 0;
#X connect 100 0 101 0;
#X connect 101 0 28 4;
#X connect 101 0 87 4;
#X connect 101 0 16 4;
#X connect 101 0 132 0;
#X connect 102 0 103 0;
#X connect 103 0 114 0;
#X connect 104 0 105 0;
#X connect 105 0 113 0;
#X connect 106 0 74 1;
#X connect 106 0 75 1;
#X connect 107 0 76 1;
#X connect 108 0 119 0;
#X connect 109 0 110 0;
#X connect 110 0 111 0;
#X connect 111 0 86 0;
#X connect 112 0 69 0;
#X connect 113 0 74 3;
#X connect 113 0 106 0;
#X connect 113 0 75 3;
#X connect 114 0 76 3;
#X connect 114 0 107 0;
#X connect 115 0 64 0;
#X connect 115 0 97 1;
#X connect 115 0 97 2;
#X connect 115 0 97 3;
#X connect 116 0 133 0;
#X connect 117 0 26 1;
#X connect 117 0 26 2;
#X connect 117 0 26 3;
#X connect 118 0 69 1;
#X connect 119 0 16 0;
#X connect 120 0 87 0;
#X connect 121 0 59 0;
#X connect 121 0 81 0;
#X connect 121 0 93 0;
#X connect 121 0 80 0;
#X connect 121 0 77 0;
#X connect 122 0 28 0;
#X connect 123 0 52 0;
#X connect 124 0 65 0;
#X connect 124 0 86 0;
#X connect 125 0 121 1;
#X connect 126 0 128 0;
#X connect 129 0 128 0;
#X connect 130 0 128 0;
#X connect 131 0 0 4;
#X connect 133 0 0 0;
#X connect 139 0 115 0;
#X connect 141 0 142 0;
#X connect 142 0 48 0;
