#N canvas 0 28 1440 900 12;
#X declare -lib Gem;
#X declare -lib zexy;
#X obj 21 17 declare -lib Gem;
#X obj 44 177 colorRGB;
#X obj 265 132 gemwin;
#X obj 216 151 tgl 19 0 empty empty empty 0 -10 0 12 #fcfcfc #000000 #000000 0 1;
#X obj 209 269 f;
#X obj 276 255 + 1;
#X obj 277 282 % 80;
#X obj 209 293 * 0.1;
#X obj 209 317 - 3.95;
#X obj 126 108 sel 0;
#X msg 117 144 0;
#X msg 158 153 1;
#X obj 367 463 _gemwin;
#X obj 185 29 declare -lib zexy;
#X obj 148 398 zexy;
#X obj 232 418 t a b;
#X obj 232 442 separator;
#X obj 334 393 bng 19 250 50 0 empty empty empty 0 -10 0 12 #fcfcfc #000000 #000000;
#X msg 265 108 destroy;
#X obj 373 130 colorRGB;
#X obj 602 80 gemwin;
#X obj 546 217 f;
#X obj 614 230 % 80;
#X obj 546 241 * 0.1;
#X obj 463 56 sel 0;
#X msg 434 87 0;
#X msg 514 99 1;
#X obj 569 366 t a b;
#X obj 569 390 separator;
#X obj 710 314 bng 19 250 50 0 empty empty empty 0 -10 0 12 #fcfcfc #000000 #000000;
#X msg 602 56 destroy;
#X obj 473 309 translateXYZ 3.07 0 0;
#X obj 52 418 scaleXYZ;
#X obj 528 550 colorRGB;
#X obj 761 508 gemwin;
#X obj 705 645 f;
#X obj 772 631 + 1;
#X obj 773 658 % 80;
#X obj 705 669 * 0.1;
#X obj 705 693 - 3.95;
#X obj 622 484 sel 0;
#X msg 622 508 0;
#X msg 660 511 1;
#X obj 710 725 t a b;
#X obj 710 749 separator;
#X obj 812 700 bng 19 250 50 0 empty empty empty 0 -10 0 12 #fcfcfc #000000 #000000;
#X msg 761 484 destroy;
#X floatatom 364 540 5 0 0 0 - - - 0;
#X obj 501 669 translateXYZ -1.09 0 0;
#X obj 208 228 / 100;
#X obj 391 362 / 360;
#X obj 614 436 random 3;
#X obj 359 169 rotateXYZ 180 0 90;
#X obj 199 547 line;
#X obj 98 594 bng 19 250 50 0 empty empty empty 0 -10 0 12 #fcfcfc #000000 #000000;
#X floatatom 299 576 5 0 0 0 - - - 0;
#X obj 98 570 sel 360;
#X obj 185 691 line;
#X obj 195 729 sel 0;
#X obj 159 753 bng 19 250 50 0 empty empty empty 0 -10 0 12 #fcfcfc #000000 #000000;
#X obj 22 221 rotateXYZ 0 0 0;
#X obj 44 282 translateXYZ -0.1 0 0;
#X obj 293 798 rotateXYZ 0 0 0;
#X floatatom 771 235 5 0 0 0 - - - 0;
#X obj 126 84 random 3;
#X obj 199 107 bng 19 250 50 0 empty empty empty 0 -10 0 12 #fcfcfc #000000 #000000;
#X obj 227 102 bng 19 250 50 0 empty empty empty 0 -10 0 12 #fcfcfc #000000 #000000;
#X obj 771 258 / 100;
#X floatatom 437 257 5 0 0 0 - - - 0;
#X floatatom 946 433 5 0 0 1 size - - 0;
#X floatatom 1016 491 16 0 0 2 segments - - 0;
#X obj 849 460 r \$0-s3d;
#X msg 905 381 setCartesian 2 3 \$1 1 0;
#X msg 918 404 setSpherical 2 3 \$1 45 45;
#X obj 926 482 sphere3d;
#X floatatom 873 327 5 0 0 0 - - - 0;
#X floatatom 868 367 5 0 0 0 - - - 0;
#X floatatom 440 139 5 0 0 0 - - - 0;
#X obj 353 211 scaleXYZ;
#X obj 70 375 disk, f 13;
#X obj 391 433 disk, f 7;
#X obj 549 776 disk, f 13;
#X obj 424 576 random 160;
#X obj 756 59 clip 15 40;
#X obj 27 461 random 40;
#X obj 27 485 clip 15 40;
#X obj 756 36 random 12;
#X obj 407 339 random 360;
#X obj 193 207 random 100;
#X obj 534 66 bng 19 250 50 0 empty empty empty 0 -10 0 12 #fcfcfc #000000 #000000;
#X obj 562 61 bng 19 250 50 0 empty empty empty 0 -10 0 12 #fcfcfc #000000 #000000;
#X obj 463 32 random 2;
#X obj 526 439 gemhead;
#X floatatom 161 824 5 0 0 0 - - - 0;
#X obj 159 777 random 30;
#X obj 947 263 colorRGB;
#X obj 972 180 sel 0;
#X msg 943 211 0;
#X msg 1023 223 1;
#X obj 1043 190 bng 19 250 50 0 empty empty empty 0 -10 0 12 #fcfcfc #000000 #000000;
#X obj 1071 185 bng 19 250 50 0 empty empty empty 0 -10 0 12 #fcfcfc #000000 #000000;
#X obj 972 156 random 2;
#X floatatom 930 281 5 0 0 0 - - - 0;
#X obj 910 306 rotateXYZ;
#X obj 341 663 / 360;
#X obj 924 352 scaleXYZ;
#X obj 876 135 gemhead;
#X floatatom 418 743 5 0 0 0 - - - 0;
#X obj 360 742 % 10;
#X msg 278 80 create \, 1;
#X obj 134 490 loadbang;
#X obj 134 514 bng 19 250 50 0 empty empty empty 0 -10 0 12 #fcfcfc #000000 #000000;
#X obj 1011 643 loadbang;
#X obj 1011 667 bng 19 250 50 0 empty empty empty 0 -10 0 12 #fcfcfc #000000 #000000;
#X msg 1011 691 1;
#X obj 886 565 loadbang;
#X obj 886 589 bng 19 250 50 0 empty empty empty 0 -10 0 12 #fcfcfc #000000 #000000;
#X obj 272 320 loadbang;
#X obj 272 344 bng 19 250 50 0 empty empty empty 0 -10 0 12 #fcfcfc #000000 #000000;
#X obj 105 343 * 1.008;
#X obj 590 728 * 1.008;
#X obj 367 11 gemhead;
#X obj 50 751 loadbang;
#X obj 50 775 bng 19 250 50 0 empty empty empty 0 -10 0 12 #fcfcfc #000000 #000000;
#X msg 50 799 100;
#X msg 978 523 draw line;
#X floatatom 488 720 5 0 0 0 - - - 0;
#X msg 272 368 12;
#X msg 886 613 12;
#X obj 410 699 * 127;
#X obj 361 644;
#X obj 341 687 * 3;
#X obj 30 63 gemhead;
#X obj 546 266 - 0.95;
#X obj 946 456 * 0.6;
#X obj 366 60 repeat 12;
#X obj 878 183 repeat 1;
#X obj 364 621 * 0.5;
#X obj 201 173 metro 1150;
#X msg 183 667 360 \, 0 4150;
#X msg 83 690 0 \, 360 4150;
#X msg 236 75 6000;
#X obj 523 510 repeat 14;
#X obj 18 109 repeat 6;
#X connect 1 0 60 0;
#X connect 3 0 138 0;
#X connect 4 0 5 0;
#X connect 4 0 7 0;
#X connect 5 0 6 0;
#X connect 6 0 4 1;
#X connect 7 0 8 0;
#X connect 9 0 10 0;
#X connect 9 0 65 0;
#X connect 9 0 29 0;
#X connect 9 1 11 0;
#X connect 9 1 66 0;
#X connect 10 0 1 3;
#X connect 10 0 1 1;
#X connect 11 0 1 1;
#X connect 11 0 1 3;
#X connect 11 0 1 2;
#X connect 15 0 16 0;
#X connect 15 1 17 0;
#X connect 17 0 4 0;
#X connect 18 0 2 0;
#X connect 19 0 52 0;
#X connect 21 0 23 0;
#X connect 22 0 21 1;
#X connect 23 0 133 0;
#X connect 24 0 25 0;
#X connect 24 0 89 0;
#X connect 24 1 26 0;
#X connect 24 1 90 0;
#X connect 25 0 19 1;
#X connect 25 0 19 3;
#X connect 26 0 19 3;
#X connect 26 0 19 2;
#X connect 26 0 19 1;
#X connect 27 0 28 0;
#X connect 29 0 21 0;
#X connect 29 0 84 0;
#X connect 29 0 86 0;
#X connect 29 0 91 0;
#X connect 30 0 20 0;
#X connect 31 0 80 0;
#X connect 32 0 79 0;
#X connect 33 0 48 0;
#X connect 35 0 36 0;
#X connect 35 0 38 0;
#X connect 36 0 37 0;
#X connect 37 0 35 1;
#X connect 38 0 39 0;
#X connect 40 0 41 0;
#X connect 40 1 42 0;
#X connect 41 0 33 3;
#X connect 41 0 33 1;
#X connect 42 0 33 1;
#X connect 42 0 33 2;
#X connect 42 0 33 3;
#X connect 43 0 44 0;
#X connect 43 1 45 0;
#X connect 45 0 35 0;
#X connect 46 0 34 0;
#X connect 48 0 62 0;
#X connect 49 0 78 1;
#X connect 49 0 78 2;
#X connect 49 0 78 3;
#X connect 50 0 32 3;
#X connect 50 0 32 1;
#X connect 50 0 32 2;
#X connect 51 0 40 0;
#X connect 52 0 78 0;
#X connect 53 0 55 0;
#X connect 53 0 56 0;
#X connect 54 0 51 0;
#X connect 54 0 139 0;
#X connect 55 0 60 2;
#X connect 55 0 60 1;
#X connect 55 0 52 2;
#X connect 55 0 48 3;
#X connect 55 0 62 3;
#X connect 55 0 62 2;
#X connect 55 0 62 1;
#X connect 55 0 104 0;
#X connect 55 0 102 0;
#X connect 55 0 137 0;
#X connect 56 0 54 0;
#X connect 57 0 58 0;
#X connect 57 0 55 0;
#X connect 58 0 59 0;
#X connect 59 0 94 0;
#X connect 59 0 140 0;
#X connect 60 0 61 0;
#X connect 61 0 32 0;
#X connect 62 0 81 0;
#X connect 63 0 67 0;
#X connect 64 0 9 0;
#X connect 65 0 10 0;
#X connect 66 0 11 0;
#X connect 69 0 134 0;
#X connect 70 0 74 2;
#X connect 71 0 74 0;
#X connect 72 0 74 0;
#X connect 73 0 74 0;
#X connect 75 0 72 0;
#X connect 76 0 73 0;
#X connect 77 0 19 4;
#X connect 78 0 31 0;
#X connect 82 0 48 1;
#X connect 82 0 48 2;
#X connect 84 0 85 0;
#X connect 86 0 83 0;
#X connect 87 0 50 0;
#X connect 88 0 49 0;
#X connect 89 0 25 0;
#X connect 90 0 26 0;
#X connect 91 0 24 0;
#X connect 91 0 61 2;
#X connect 91 0 61 1;
#X connect 91 0 61 3;
#X connect 93 0 79 2;
#X connect 93 0 80 2;
#X connect 93 0 81 2;
#X connect 95 0 103 0;
#X connect 96 0 97 0;
#X connect 96 0 99 0;
#X connect 96 1 98 0;
#X connect 96 1 100 0;
#X connect 97 0 95 1;
#X connect 97 0 95 3;
#X connect 98 0 95 3;
#X connect 98 0 95 2;
#X connect 98 0 95 1;
#X connect 99 0 97 0;
#X connect 100 0 98 0;
#X connect 101 0 96 0;
#X connect 102 0 103 1;
#X connect 102 0 103 3;
#X connect 102 0 103 2;
#X connect 103 0 105 0;
#X connect 104 0 131 0;
#X connect 105 0 74 0;
#X connect 106 0 136 0;
#X connect 108 0 107 0;
#X connect 109 0 2 0;
#X connect 110 0 111 0;
#X connect 111 0 140 0;
#X connect 112 0 113 0;
#X connect 113 0 114 0;
#X connect 114 0 33 4;
#X connect 114 0 95 4;
#X connect 114 0 1 4;
#X connect 114 0 19 4;
#X connect 115 0 116 0;
#X connect 116 0 128 0;
#X connect 117 0 118 0;
#X connect 118 0 127 0;
#X connect 119 0 79 1;
#X connect 119 0 80 1;
#X connect 120 0 81 1;
#X connect 121 0 135 0;
#X connect 122 0 123 0;
#X connect 123 0 124 0;
#X connect 124 0 93 0;
#X connect 125 0 74 0;
#X connect 127 0 79 3;
#X connect 127 0 119 0;
#X connect 127 0 80 3;
#X connect 128 0 81 3;
#X connect 128 0 120 0;
#X connect 129 0 108 0;
#X connect 129 0 126 0;
#X connect 131 0 69 0;
#X connect 131 0 105 1;
#X connect 131 0 105 2;
#X connect 131 0 105 3;
#X connect 131 0 129 0;
#X connect 132 0 143 0;
#X connect 133 0 31 1;
#X connect 133 0 31 2;
#X connect 133 0 31 3;
#X connect 134 0 74 1;
#X connect 135 0 19 0;
#X connect 136 0 95 0;
#X connect 137 0 70 0;
#X connect 137 0 130 0;
#X connect 137 0 93 0;
#X connect 138 0 64 0;
#X connect 138 0 88 0;
#X connect 138 0 101 0;
#X connect 138 0 87 0;
#X connect 138 0 82 0;
#X connect 139 0 57 0;
#X connect 140 0 53 0;
#X connect 141 0 138 1;
#X connect 142 0 33 0;
#X connect 143 0 1 0;
