#N canvas 0 0 1440 872 12;
#X obj 55 277 phasor~;
#X msg 101 222 0;
#X obj 55 304 hip~;
#X obj 55 330 lop~;
#X obj 123 297 clip 30 300;
#X obj 123 341 clip 30 12000;
#X obj 123 276 r bhip;
#X obj 123 320 r blop;
#X obj 302 30 r m7;
#X obj 302 54 sel 1;
#X obj 302 80 bng 19 250 50 0 empty empty empty 0 -10 0 12 #fcfcfc #000000 #000000;
#X obj 352 54 sel 2;
#X obj 352 78 bng 19 250 50 0 empty empty empty 0 -10 0 12 #fcfcfc #000000 #000000;
#X msg 341 208 1;
#X obj 402 80 bng 19 250 50 0 empty empty empty 0 -10 0 12 #fcfcfc #000000 #000000;
#X obj 402 56 sel 3;
#X obj 455 81 bng 19 250 50 0 empty empty empty 0 -10 0 12 #fcfcfc #000000 #000000;
#X obj 505 79 bng 19 250 50 0 empty empty empty 0 -10 0 12 #fcfcfc #000000 #000000;
#X msg 564 203 1;
#X obj 555 81 bng 19 250 50 0 empty empty empty 0 -10 0 12 #fcfcfc #000000 #000000;
#X obj 455 55 sel 5;
#X obj 505 55 sel 6;
#X obj 555 57 sel 7;
#X obj 253 200 bng 33 250 50 0 empty empty empty -10 -17 0 10 #c6feff #000000 #000000;
#X obj 437 420 adsr_env, f 33;
#X obj 55 354 vca;
#X obj 516 292 loadbang;
#X obj 516 316 bng 19 250 50 0 empty empty empty 0 -10 0 12 #fcfcfc #000000 #000000;
#X msg 516 340 0;
#X obj 600 341 r bdec;
#X msg 551 342 100;
#X obj 73 96 r bnote;
#X obj 124 63 sel 0 1 2;
#X obj 55 145 f;
#X obj 184 87 bng 19 250 50 0 empty empty empty 0 -10 0 12 #fcfcfc #000000 #000000;
#X obj 124 14 bng 19 250 50 0 empty m1 empty 0 -10 0 12 #fcfcfc #000000 #000000;
#X obj 144 87 bng 19 250 50 0 empty empty empty 0 -10 0 12 #fcfcfc #000000 #000000;
#X obj 66 218 f;
#X obj 200 20 r brand;
#X obj 124 39 random 24;
#X obj 55 378 vca;
#X obj 297 143 tgl 19 0 empty gate1 empty 0 -10 0 12 #fcfcfc #000000 #000000 0 1;
#X obj 254 173 spigot;
#X obj 379 147 tgl 19 0 empty gate2 empty 0 -10 0 12 #fcfcfc #000000 #000000 0 1;
#X obj 326 174 spigot;
#X obj 452 149 tgl 19 0 empty gate3 empty 0 -10 0 12 #fcfcfc #000000 #000000 0 1;
#X obj 409 177 spigot;
#X obj 530 150 tgl 19 0 empty gate4 empty 0 -10 0 12 #fcfcfc #000000 #000000 0 1;
#X obj 489 176 spigot;
#X obj 602 153 tgl 19 0 empty gate5 empty 0 -10 0 12 #fcfcfc #000000 #000000 0 1;
#X obj 560 178 spigot;
#X obj 681 153 tgl 19 0 empty gate6 empty 0 -10 0 12 #fcfcfc #000000 #000000 0 1;
#X obj 640 177 spigot;
#X obj 51 460 outlet~;
#X obj 20 193 mtof;
#X obj 84 184 - 2;
#X msg 409 207 0.8;
#X msg 639 203 0.8;
#X msg 298 211 0.7;
#X msg 491 204 0.7;
#X obj 422 351 r battck;
#X obj 1008 91 cnv 19 310 280 empty empty Bass 20 12 0 12 #c6feff #404040 0;
#X obj 1036 246 z_bass;
#X obj 1033 199 tgl 19 0 gate1 empty * 0 -10 0 12 #fcfcfc #000000 #000000 0 1;
#X obj 1072 199 tgl 19 0 gate2 empty empty 0 -10 0 12 #fcfcfc #000000 #000000 0 1;
#X obj 1110 199 tgl 19 0 gate3 empty empty 0 -10 0 12 #fcfcfc #000000 #000000 0 1;
#X obj 1147 199 tgl 19 0 gate4 empty * 0 -10 0 12 #fcfcfc #000000 #000000 0 1;
#X obj 1184 199 tgl 19 0 gate5 empty empty 0 -10 0 12 #fcfcfc #000000 #000000 0 1;
#X obj 1220 199 tgl 19 0 gate6 empty empty 0 -10 0 12 #fcfcfc #000000 #000000 0 1;
#X obj 1036 304 vca;
#X obj 1251 318 s blop;
#X obj 1192 318 s bhip;
#X obj 1036 331 dac~;
#X text 1206 260 Filters;
#X obj 1101 149 s bdec;
#X obj 1032 149 s battck;
#X obj 1088 300 hsl 62 19 0 1 0 0 empty empty Amp -2 -10 0 12 #00faff #000000 #000000 0 1;
#X text 1256 200 Gater;
#X obj 1236 148 s bnote;
#X msg 1192 294 40;
#X msg 1032 125 0;
#X msg 1236 124 24;
#X msg 1251 294 340;
#X msg 1102 127 450;
#X text 1155 149 Env;
#X connect 0 0 2 0;
#X connect 1 0 0 1;
#X connect 2 0 3 0;
#X connect 3 0 25 0;
#X connect 4 0 2 1;
#X connect 5 0 3 1;
#X connect 6 0 4 0;
#X connect 7 0 5 0;
#X connect 8 0 9 0;
#X connect 8 0 11 0;
#X connect 8 0 15 0;
#X connect 8 0 20 0;
#X connect 8 0 22 0;
#X connect 8 0 21 0;
#X connect 9 0 10 0;
#X connect 10 0 42 0;
#X connect 11 0 12 0;
#X connect 12 0 44 0;
#X connect 13 0 25 1;
#X connect 14 0 46 0;
#X connect 15 0 14 0;
#X connect 16 0 48 0;
#X connect 17 0 50 0;
#X connect 18 0 25 1;
#X connect 19 0 52 0;
#X connect 20 0 16 0;
#X connect 21 0 17 0;
#X connect 22 0 19 0;
#X connect 23 0 24 0;
#X connect 24 0 40 1;
#X connect 25 0 40 0;
#X connect 26 0 27 0;
#X connect 27 0 28 0;
#X connect 27 0 30 0;
#X connect 28 0 24 1;
#X connect 28 0 24 3;
#X connect 28 0 24 4;
#X connect 29 0 24 2;
#X connect 30 0 24 2;
#X connect 31 0 33 1;
#X connect 32 0 36 0;
#X connect 32 1 36 0;
#X connect 32 2 36 0;
#X connect 32 3 34 0;
#X connect 33 0 54 0;
#X connect 33 0 55 0;
#X connect 34 0 33 0;
#X connect 35 0 39 0;
#X connect 35 0 1 0;
#X connect 36 0 37 0;
#X connect 38 0 39 1;
#X connect 39 0 32 0;
#X connect 40 0 53 0;
#X connect 41 0 42 1;
#X connect 42 0 23 0;
#X connect 42 0 58 0;
#X connect 43 0 44 1;
#X connect 44 0 23 0;
#X connect 44 0 13 0;
#X connect 45 0 46 1;
#X connect 46 0 23 0;
#X connect 46 0 56 0;
#X connect 47 0 48 1;
#X connect 48 0 23 0;
#X connect 48 0 59 0;
#X connect 49 0 50 1;
#X connect 50 0 23 0;
#X connect 50 0 18 0;
#X connect 51 0 52 1;
#X connect 52 0 23 0;
#X connect 52 0 57 0;
#X connect 54 0 0 0;
#X connect 55 0 37 1;
#X connect 56 0 25 1;
#X connect 57 0 25 1;
#X connect 58 0 25 1;
#X connect 59 0 25 1;
#X connect 60 0 24 1;
#X connect 62 0 69 0;
#X connect 69 0 72 0;
#X connect 69 0 72 1;
#X connect 76 0 69 1;
#X connect 79 0 71 0;
#X connect 80 0 75 0;
#X connect 81 0 78 0;
#X connect 82 0 70 0;
#X connect 83 0 74 0;
