#N canvas 0 0 1440 872 12;
#X obj 519 355 bng 30 250 50 0 empty empty empty 0 -10 0 12 #c6feff #000000 #000000;
#X obj 519 391 hat, f 31;
#X obj 519 415 vca;
#X msg 572 364 0;
#X msg 705 366 10000;
#X msg 624 367 46;
#X obj 405 184 r m7;
#X obj 167 209 spigot;
#X obj 291 209 spigot;
#X obj 405 208 spigot;
#X obj 249 87 r hat_selector;
#X obj 249 111 sel 0;
#X msg 239 140 1;
#X msg 272 141 0;
#X msg 325 142 1;
#X msg 358 143 0;
#X msg 398 139 1;
#X msg 431 140 0;
#X obj 335 113 sel 1;
#X obj 408 110 sel 2;
#X obj 167 185 r m1;
#X obj 291 185 r m6;
#X obj 519 462 outlet~;
#X obj 647 233 loadbang;
#X obj 647 257 bng 19 250 50 0 empty empty empty 0 -10 0 12 #fcfcfc #000000 #000000;
#X obj 576 131 r ahat;
#X obj 627 131 r rhat;
#X obj 680 132 r lophat;
#X obj 746 132 r hiphat;
#X obj 572 417 r hat_vol;
#X connect 0 0 1 0;
#X connect 1 0 2 0;
#X connect 2 0 22 0;
#X connect 3 0 1 1;
#X connect 4 0 1 3;
#X connect 4 0 1 4;
#X connect 5 0 1 2;
#X connect 6 0 9 0;
#X connect 7 0 0 0;
#X connect 8 0 0 0;
#X connect 9 0 0 0;
#X connect 10 0 11 0;
#X connect 10 0 18 0;
#X connect 10 0 19 0;
#X connect 11 0 12 0;
#X connect 11 1 13 0;
#X connect 12 0 7 1;
#X connect 13 0 7 1;
#X connect 14 0 8 1;
#X connect 15 0 8 1;
#X connect 16 0 9 1;
#X connect 17 0 9 1;
#X connect 18 0 14 0;
#X connect 18 1 15 0;
#X connect 19 0 16 0;
#X connect 19 1 17 0;
#X connect 20 0 7 0;
#X connect 21 0 8 0;
#X connect 23 0 24 0;
#X connect 24 0 4 0;
#X connect 24 0 5 0;
#X connect 24 0 3 0;
#X connect 25 0 1 1;
#X connect 26 0 1 2;
#X connect 27 0 1 3;
#X connect 28 0 1 4;
#X connect 29 0 2 1;
