#N canvas 0 0 1440 872 12;
#X obj 85 378 noise~;
#X obj 86 474 *~;
#X text 389 209 Attack;
#X text 497 236 Release;
#X floatatom 307 260 5 0 0 0 - - - 0;
#X msg 307 289 0 \, 1 \$1;
#X msg 409 295 1 \, 0 \$1, f 13;
#X obj 307 330 line, f 8;
#X obj 307 372 select 1, f 14;
#X obj 409 327 line, f 7;
#X floatatom 365 409 5 0 0 0 - - - 0;
#X obj 56 275 loadbang 50;
#X obj 409 259 f 26;
#X obj 86 513 outlet~;
#X obj 56 299 bng 19 250 50 0 empty empty empty 0 -10 0 12 #fcfcfc #000000 #000000;
#X msg 56 323 30;
#X obj 307 234 f;
#X obj 84 402 lop~ 500;
#X obj 84 426 hip~ 100;
#X obj 137 355 r hat_lop;
#X obj 159 407 r hat_hip;
#X obj 325 208 r hat_a;
#X obj 434 233 r hat_r;
#X obj 293 155 r m7;
#X obj 55 180 spigot;
#X obj 179 180 spigot;
#X obj 293 179 spigot;
#X obj 137 58 r hat_selector;
#X obj 150 94 sel 0;
#X msg 140 123 1;
#X msg 173 124 0;
#X msg 226 125 1;
#X msg 259 126 0;
#X msg 299 122 1;
#X msg 332 123 0;
#X obj 236 96 sel 1;
#X obj 309 93 sel 2;
#X obj 55 156 r m1;
#X obj 179 156 r m6;
#X text 390 95 TempoClocks!;
#X obj 58 215 bng 19 250 50 0 empty empty empty 0 -10 0 12 #fcfcfc #000000 #000000;
#X text 213 358 Low-pass;
#X text 236 410 Hi-pass;
#X obj 1059 93 cnv 19 150 330 empty empty Z_HAT_1 20 12 0 12 #c7c6ff #404040 0;
#X obj 1079 341 z_hat;
#X obj 1078 141 hradio 34 1 0 3 hat_selector empty x1\ \ \ x2\ \ \ x4 0 -10 0 12 #e3c6ff #000000 #000000 0;
#X msg 1079 196 0;
#X obj 1079 365 vca;
#X obj 1131 362 hsl 62 19 0 0.09 0 0 empty empty Amp -2 -10 0 12 #00faff #000000 #000000 0 1;
#X obj 1067 398 dac~;
#X msg 1141 195 23;
#X msg 1078 255 2300;
#X obj 1079 220 s hat_a;
#X obj 1141 219 s hat_r;
#X obj 1079 283 s hat_lop;
#X obj 1079 310 s hat_hip;
#X connect 0 0 17 0;
#X connect 1 0 13 0;
#X connect 4 0 5 0;
#X connect 5 0 7 0;
#X connect 6 0 9 0;
#X connect 7 0 8 0;
#X connect 7 0 10 0;
#X connect 8 0 12 0;
#X connect 9 0 10 0;
#X connect 10 0 1 1;
#X connect 11 0 14 0;
#X connect 12 0 6 0;
#X connect 14 0 15 0;
#X connect 15 0 0 0;
#X connect 16 0 4 0;
#X connect 17 0 18 0;
#X connect 18 0 1 0;
#X connect 19 0 17 1;
#X connect 20 0 18 1;
#X connect 21 0 16 1;
#X connect 22 0 12 1;
#X connect 23 0 26 0;
#X connect 24 0 40 0;
#X connect 25 0 40 0;
#X connect 26 0 40 0;
#X connect 27 0 28 0;
#X connect 27 0 35 0;
#X connect 27 0 36 0;
#X connect 28 0 29 0;
#X connect 28 1 30 0;
#X connect 29 0 24 1;
#X connect 30 0 24 1;
#X connect 31 0 25 1;
#X connect 32 0 25 1;
#X connect 33 0 26 1;
#X connect 34 0 26 1;
#X connect 35 0 31 0;
#X connect 35 1 32 0;
#X connect 36 0 33 0;
#X connect 36 1 34 0;
#X connect 37 0 24 0;
#X connect 38 0 25 0;
#X connect 40 0 16 0;
#X connect 44 0 47 0;
#X connect 46 0 52 0;
#X connect 47 0 49 0;
#X connect 47 0 49 1;
#X connect 48 0 47 1;
#X connect 50 0 53 0;
#X connect 51 0 54 0;
#X connect 51 0 55 0;
